<mxfile host="app.diagrams.net" agent="Mozilla/5.0 (Windows NT 10.0; Win64; x64) AppleWebKit/537.36 (KHTML, like Gecko) Chrome/129.0.0.0 Safari/537.36 Edg/129.0.0.0" version="27.0.3">
  <diagram name="第 1 页" id="qIcVefHQZJl1U1H9Miaq">
    <mxGraphModel dx="988" dy="583" grid="1" gridSize="10" guides="1" tooltips="1" connect="1" arrows="1" fold="1" page="1" pageScale="1" pageWidth="827" pageHeight="1169" math="0" shadow="0">
      <root>
        <mxCell id="0" />
        <mxCell id="1" parent="0" />
        <mxCell id="RlYvey6-DWaw5Cdh70bo-1" value="" style="shape=image;verticalLabelPosition=bottom;labelBackgroundColor=default;verticalAlign=top;aspect=fixed;imageAspect=0;image=data:image/png,iVBORw0KGgoAAAANSUhEUgAAApEAAAGxCAIAAAC1DXo3AAAgAElEQVR4Aeyd90NTSbj333/orhCKoK5lLeuqWKjSew8h9I5IU9AVhFCkiIAoUqRK7yC9KB1CB+kEEgjpOa83cz0bQ0BII+A8P8Bkzswzc75z4JOZM+X/IdCgAlABqABUACoAFTgJCvy/k1BJ0etIoVB6e3uXl5dFdwFz7qPA4OCgv79/dXX1PtdhtOQVmJyc7O/vZzAYkncNPR5OATabPTg4OD4+zuFwDpcDppIXBZaXl3t7eykUirxUSKR6nHJmNzY2qqioxMfHiyQOzHSQApWVlWfPno2JiYH/vA6SSaLXsFjslStXpqamJOoVOjuCAiQS6c6dO6ampru7u0fIBpPKgQIJCQnKysqNjY1yUBfRq3DKmV1fX4/BYGJiYkRXCObcR4Gmpqbbt2+/efOGy+XukwRGS1gBOzu7ixcvTk5OStgvdHdoBTY2Nm7cuGFkZESlUg+dCSaUCwUIBIKCgkJ9fb1c1EbUSpxyZi8sLKSkpPT19YmqD8y3rwI0Gm1+fv6kDzTte3tyeaGqqiozM5NMJstl7X6LStHp9A8fPpSUlLDZ7N/ihk/RTfb19SUnJy8sLJzoezrlzD7RbQMrDxWACkAFoAJQAX4FTjmz6XQ67Avyt7cEw3Nzc5mZmV++fJGgT+jqYAXW19e/ffsGe3gHqyTVq1wud2lpaXV1VaqlQOfSUIBCoczPz9PpdGk4l5nPU87stra2v//++82bNzIT9PcpqKqqSk1NLTY2Fs5Bk1mj+/r6amlpzc3NyaxEWJCAAltbW0ZGRjgcjkajCVyCH+VcgfT09L///rutrU3O63lw9U45s8EctJcvXx6sArwqggK1tbWXLl1KTEyEc9BEUE+0LHZ2dpcuXYJz0ERTTyK5NjY2bt68aWBgAOegSURPWTqJjY1VVlaGc9BkqfmRyxoZGfHw8KiqqjpyTpjhVwqQSKT29vaTPqHjV3cpX9dfv3796NGjtbU1+arW71QbKpUaFhZGIBDgKvkT1+zV1dUeHh4jIyMnrub8FT7l/Wz+W4VhqABUACoAFYAKnGgFTjmzORwOlUplsVgnupHks/JbW1vd3d2Li4vyWb1TWSsGg7G7uwtfRhxv49JotJM+j+l4BTyu0lksFpVKPenzb045s/v6+gwNDfPz84/rKTnF5VZWVqqoqMA5aLJs4mfPntnY2MDvSbLUXKAsCoXi7OwcFBQEsS2gjPx/zM/PNzAwOOnbdZxyZsN90KT3h1RZWQnnjUtPXqGe4T5oQmWRZeTGxsbff/8N90GTpeaSKis2NlZRURHOQZOUnlLx093dfe/evXfv3knF++/t9Nu3bzk5OYODg7+3DDK9+5CQEENDQzjvT6ai/1wYmUy2trb28PCA/eyfhTkBn7Kzs+/du9fZ2XkC6rp/FU95P3v/G4dXoAJQAagAVAAqcMIUgMw+YQ0mP9Wl0WgLCwtwv3H5aRFYE6gAVODUK3DKmT02Nubt7V1TU3PqG1L2N9jQ0HD9+vWUlBQ4jVlm4qenpwcHB6+vr8usRFiQgAJUKjUiIiI+Pp7JZApcgh/lXIGamhovL6+xsTE5r+fB1TvlzK6vr1dUVIRncR78EIh2tbKyUlVVFZ6fLZp6ouWyt7eH+6CJJp2kcoGzOI2NjeE+aJKSVGZ+CAQCnIMmM7VFLOjz58+XL19OSUkRMT/Mtr8CIyMjISEhDQ0N+yeBVySsgKen5+3bt2dnZyXsF7o7tAKbm5t6enp2dnZwv/FDayYvCV+/fn3x4sXPnz/LS4VEqscp72czGIzFxcWdnR2RxIGZoALypcDm5ubKygo81+sYW4XL5a6urm5sbBxjHWDRoimws7OzuLh40jedPeXMFq1pYa7DKECn0xcXF0kk0mESwzRQAagAVAAqIL4Cp5zZ3759S09P7+/vF18p6EFAgS9fvujp6UVHR8Nun4Ay0vtYV1eXnZ0N5+pLT+FfeqbT6fn5+eXl5fCx/6VW8pagv78/IyPj27dv8laxI9XnlDMb7oN2pKfhSIk7OzvPnz8fGBgIt3M/km7iJIZz0MRRTyJ54VmcEpHxWJwQCAQMBgP3QTsW8Q9baFNTk5qaWmJi4mEzwHSHVmB0dNTDwyMjIwN2OA6tmbgJcTjcjRs3pqenxXUE84uqAIlE0tDQMDc3393dFdUHzHc8Crx69ers2bONjY3HU7yESj3l/eytra3Pnz/Pz89LSC7oBipwnAqMjo52dnbCXTOPsQ3YbHZPT8/AwMBJPx7qGDU8rqIXFhY+f/68tbV1XBWQSLmnnNkS0Qg6EaoAh8Oh0+lwZwmh4sBIqABUACogDQVOObMpFEpPT8/S0pI0tPvNfQ4NDTk4OKSmpsKxcZk9CRMTE1+/fj3pi1VkJpc0CmKz2QMDA2NjY3D7P2nIK1Wfy8vLPT09J30K5ylndn19vZKSUmxsrFQfhd/TeUdHx59//gnnoMmy9e3t7S9evDg5OSnLQmFZ/AqAOWiGhoZwHzR+WU5EGM5BOwHN1NDQoKCgAJktjabq6+vT1dWFa72koe1+Pu3s7C5fvjw1NbVfAhgvbQVIJNLNmzcNDQ3hHDRpSy1x/wQCQUlJ6aRv3XjK+9nfvn3LzMyE67Ml/vQjCMLlcplMJhwYl4a2+/msr6//8OHDSR/c2+/uTkQ8g8EoKCioqKiAT/6JaC/+SsL12fxqwPDvqACHZ7/jncN7hgpABaACx6HAKe9ns9nsra0tuDZGGo/W9PR0ZGRkUVERXPQiDXmF+qRSqWQyGQouVBzZRHK5XAqFAo8wkI3aki2FTqdvbW2d9D2gTjmzm5ub1dTUEhISJNv20BuCIB0dHRcvXnz06NFJ/xs4Qa2Jx+OvXr06MzNzgup8yqpKIpHu3r1rZmYG32efuJZ99eqVsrJyc3Pzias5f4VPObPr6uowGAycg8bf5JIK9/T03L59+8mTJ/DFnqQk/aUfOG/8lxJJOwE4P9vAwADOG5e21BL3HxsbC8/PlriqEnY4Pj7u7+9fV1cnYb/QHYLQaLTp6enV1VUohswUyMjICAsLW19fl1mJsCABBahU6vPnz5OSkuBuQgLKyP/H+vp6Pz+/8fFx+a/qATU85f3sA+4cXoIKQAWgAlABqMDJUuCUM5vL5TIYDDhnRxoP5fLy8sePHzs6OuCGUNKQV6hPFosFu3dClZFlJJPJhHM4ZCm4pMricDgMBuOk/7865czu7u7W1NR89+6dpFod+kEVAPugwTloqCAyCISEhBgbGy8sLMigLFiEUAXIZLKtra23tzdcjSJUH3mOzM7Ovn//fnd3tzxX8pd1O+XMrq+vP3PmDJyD9svnQIQEXV1dV65cCQ4OhnPQRFBPtCz29vYXLlyA+6CJpp5Ecm1sbFy/fh3uXSoRMWXsJDY2Fp6fLWPNj1xcb2+vrq7uhw8fjpwTZviVAiQSqbm5eWRk5KSPNf3qRuXoelhYmLm5+bdv3+SoTr9ZVSgUioODg6+vL+xnn7iWz8nJ0dHRgf3sE9dwsMJQAagAVAAqABU4kQqcvLFxGo32+fPntLS0ZzyL5BkI7/35/PnzvZH7xSQmJlZXV5PJ5BPZkhKq9NbWVmVlZWJiIlApMjJyP7l+GY/mjYqKys7OHh0dhZMBJdRK0A1UACrwmypwwpi9sLBga2urrKysqKiIwWAUFRWVlZVVxDAlPlNWVsZgMKdg8ETkZ7m9vf3BgwdAEqCGOPIqKyuj6mIwmPPnz7948QLuHiVy6yAIkpqaGhAQsLa2Jo4TmFccBahUamhoaExMDDzFXBwZjyVvVVWVh4fHyMjIsZQuqUJPErNZLNbjx4/V1NQ8PDzKyso6Ozu7u7u7urp6xbBuPqutrQ0PDz937py5uflveHQSmUw2NDQ8f/58REREXV1dzw8TQ93enp6evr6+tra27OxsXV3d8+fPV1RUSOrZ/Q392NnZXbp0CZ6ffYxND87PhvugHWMTiFw0gUCA+6CJrJ4oGefn5zU0NIyNjZeWlsCJUmyecTgcriSMyWRub2/7+PicPXu2p6dHlCqe5Dzt7e3q6urBwcG7u7tcLpfNZrNYLHG05XA4LJ4BJ42NjVevXvXy8oJz1kR+THA4HNxvXGT1JJKRRCJpaGjA/cYlIqaMnSQkJKipqTU1Ncm4XMkWd5L62QMDA5cvX/bz86PT6QADCIKIeRwkP+sBY96+fausrFxeXi5ZoeXfW1FRkZKS0ocPHyT11hloC07a5nK5CwsLd+7cMTExgWvD5P9hgDWECkAF5FOBk8Tsvr6+P//8MzQ0VFJQEWgSwJi8vDxFRcWioiKBq6f+Y05ODgaDKSkpkdKdrq+va2pq6unpwT2kpKQwdAsVgAqcegVOErN7e3svXLggG2YXFhae+rYXuMEPHz7IgNm6urqQ2QLKM5nMrq6u7OzshISEeElYampqTU0NnKomoPPBHykUSl1dXXp6ukRaITExMSsrq6WlhUajHVwuvCqmAlwud3h4OC8vLzExMS4uLl5sS05OLikpmZ2dFbNiUsoOmf2fsPz9bMjs/3SRUAj0syGzBeScmpqysLDAYDAKCgqqqqqKiooKCgpgWQRGJPvjjz8UFBSUlZWvX79eUFAAZw8ICC70Y11d3e3bt8FSlDNnzigpKYmk/f9lOsMz4M3AwKC3t1dooTBSfAVIJJKvr+/Zs2fRVhPzzwf8JWIwmAsXLhAIBDn8ynXCmH3+/HnYzxb/QRfqAfazhcoi1UgWi+Xq6qqiouLt7V1cXNzQ0NDc3NzS0tIshjU1NVVWVsbExPzzzz83btwYGxuT6i2cAucLCwv37t27evVqRERERUVFU1PT9/mSYrTA/2UtLi4ODQ1VVVW1srIikUinQCh5uwUOhxMXF6eiomJra/v+/fuampqmpibxG66+vj4tLU1HR0ddXV0OJzadSGZLqesA+9lwbFzG/5XGx8evXbvm6Oi4trbGZrPBRA107p5olQFz/hkMRnp6urq6+qtXr0Tz8/vkKigoUFdXj4mJQSe3ijljBl1zsbOz4+fnd/Hixba2tt9HT5nd6cbGxvdhjLt3705NTbHZbPCHg05PFq0aHA6HybPPnz9funTJ1dVVSrgRrXoIgkBm/ycdZDZk9n9Pg0xCLS0tampqz58/B0cEgidQTGaDlRRMJrOvr+/y5csBAQEyuZUTXAiBQFBWVm5ubuZfOyry/QD90dWSWVlZKioqv+G7NpEFPHzG2dnZmzdv2tjYUKlU8JUXXZt6eCcCKTkcDpvNptPpS0tLDx48ePjwobytc4HM/q/JILMhs/97GmQSqq2tVVdXT0pKQnsJ4n+pR8EzMjJy6dIlDw8PmdzKCS7k2bNnCgoKvb29KGjFaQXwbwTtahcXF//P//xPbm7uCRZIXqs+PT39119/4XA4/j8f8b/yAvyvr6/r6endv39f3ubMQmb/9zxCZkNm//c0yCRUU1OjoqLy6tUr9J8Oupxd5PJBP4/FYg0PD1+6dMnNzU1kV79JxmfPnmEwGMBs8Ttq4N8I+MnhcAoLC5WVleHRgtJ4liYnJ69evYrH49HvqeL/+QBXbDYbMPvevXuQ2aK3XW9vL5iDJs634AOKh8yGzD7g8ZDGpZqamrNnzyYnJ4v5AlWgblwul8PhjI6OXr58GTJbQJy9HwGzv3z5sveS+DHFxcUYDAYyW3wl93qYnJy8cuUKYPbeqyLHABBsbGzo6elBZoss4/9mhMwWS75fZYbzxn+lkOSvQ2ZLXtOje4TMPrpmcpEDMlsumuGASkBmHyCO+Jcgs8XX8KgeILOPqpg00kNmS0NVGfiEzJaByGIVAZktlny/ygyZ/SuFJH8dMlvymh7dI2T20TWTixyQ2XLRDAdUAjL7AHHEvwSZLb6GR/UAmX1UxaSRHjJbGqrKwCdktgxEFqsIyGyx5PtVZsjsXykk+euQ2ZLX9OgeIbOPrplc5IDMlotmOKASkNkHiCP+Jchs8TU8qgfI7KMqJo30kNnSUFUGPiGzZSCyWEWcIGY3Nzd3dHTsvVs2m72zs0OhUEgk0vLy8vT09ODgYENDQ3p6+ujoKEjPYDDGx8eJROI4nxF5NjMzs9dnQ0NDY2Pj3vijxkBmH1Ux8dNDZouvofgeILPF1/BYPEBmH4vsRyhUnplNJpMzMjLifpiNjY2trS2BQIiPj4+Li8vMzNzZ2UEQZGhoyMfHx5tndnZ2lpaWjx49ioqKys3NXVhYAFqMj4/fuXMHh8Ph8XhLS0tNTU0cDufs7Ozg4GBsbIxuSb2wsDA9PT01NfXx40cbG5vR0dGpqanp6enFxcUjaMqXFDKbTwwZBSGzZST0gcVAZh8oj/xehMyW37YBNZNnZlOp1IqKivz8/IyMDBsbGy0tLQMDAwsLi8zMzI8fP1ZVVYEz3QYGBjJ4lpmZaW9v/+jRo/z8/IKCgqKiIrRfPjQ0ZGlpucOzuro6LBa7vb29s7MzMzOjo6MDNr+l0Wjm5uaWlpb29vbW1taGhoY2NjZ2dnbm5uaOjo4MBkOEtoTMFkE0MbNAZospoESyQ2ZLREbZO4HMlr3mRytRnpmNIMja2tqnT58CAgJKSkri4uKSk5Pz8vL8/f2rq6s3NzfBpnrt7e2JiYmvXr3y9vbW0tKKi4tLSkpKTExMSkr69OkT2N9taGjI0NBwkGfZ2dkWFhYDAwODg4MtLS1aWlqA2VQq1dLSkkgkUn+27u5ue3t7Op1+NGV5qSGzRRBNzCyQ2WIKKJHskNkSkVH2TiCzZa/50UqUZ2Y3Njba2toGBQU1NTXNzc29e/cuLy9vdna2urra19cXh8N1dHQsLi7ieebs7Hz37l09PT1nZ2c3NzcXnrm6ura0tIDx82vXrrm7u3t4eFhbW9+4ccPd3d3T09PZ2fnBgwf8zJ6fnxdQcHBw0M7ODjJbQBa5/QiZLQ9NA5ktD60gQh0gs0UQTaZZ5JnZFApleno6ODjYxsYGxbCbm5uNjU1ISMj8/PzOzg6TyZyamvr69auZmZmjo+OnT59Kefbp06fy8vLh4eHt7W0EQYaHhy0sLBg8a2xsxGKxdDqdwWAsLCxoa2ujzNbS0tLW1jY0NDTgMx0dHWtrazg2jpwQg8yWh4aCzJaHVhChDpDZIogm0yzyzGwEQb4flO7r65uent7d3d31w1JSUvz8/FCZFhcXvby8Ll++HBoa+uSHPX36VF9f/+vXryDZwMCAjo5OK89SUlJMTU0/f/7c1tZWXl6Ojo1vb28bGxuPjIws7zESiYQWd6QAHBs/klwSSQyZLREZxXQCmS2mgMeVHTL7uJQ/bLnyz2wfHx8sFhvKZ1gs1tfXF9zh2NiYnZ3ds2fPrl27FsJnjx8/1tTU7O7uBslqa2vv3r0bGhoaEhKCxWLv3r0bEhISGhrq6+urqakJ+tlra2uGhoa7u7uH1e4Q6SCzDyGShJNAZktYUJHcQWaLJNvxZ4LMPv42OLgG8s9sPz+/yMjIPD578uQJ2s+emZmprKwkkUgaGhq5fJaTk2NsbIwyOy0t7eXLl9977Uwms6mpCYvFMhgMJpP57ds3tJ/d3Nzs7e0t2QMcIbMPfvykcRUyWxqqHtUnZPZRFZOT9JDZctIQ+1ZDzpnN4XCqqqoIBMKPRdr/97umpob/lnZ2dm7evPmSz6Kjo3V0dACzORyOra1tQ0MDyNLa2orD4cB8cn5mP3r0qKCggN+t+GHIbPE1PKoHyOyjKiaN9JDZ0lBVBj4hs2UgslhFyDOzp6am/P39vb29fX82Pz8/Hx+fwMDAubk5cPOA2Y8ePQr6YY8ePbp3715PTw+CIOPj46ampmADFgRB2tvb3dzcqFRqdHQ0Dodzc3PjcrmTk5OmpqYiv7ferw0gs/dTRnrxkNnS0/bwniGzD6+VXKWEzJar5hBSGXlmNoVC6ezs7NjHurq6qFQquCUGgxEVFTXCZ8PDw69fvwZQ397eHhwcRG9+e3v7+7cBNpvd2tra0NCwvLyMIMjq6mpzczOaRlIByGxJKXl4P5DZh9dKeikhs6WnrVQ9Q2ZLVV4JOJdnZh/p9sBY95GyyCAxZLYMRBYoAjJbQJBj+QiZfSyyi18oZLb4GkrXw6lhtnRlEtW7jJm9urpaUFAApsHvV2UqlZqVlQV2kUMQhM1m19TUCD0ohcViFRcXz83NtbW1gbcM/D45HM7k5OSQMBsdHQXbyvKnX1hYeP36tdCvVmtra0NDQwN7bGxsDKRfXFwcHh4WVtT/xo2MjKAjLgiCQGbzy35cYcjs41JezHIhs8UUUOrZIbOlKrHsme3g4DA2NsZgMGJjYz09PT08PDw9Pb28vHx9fcEpZ4uLi7a2tltbW+DGZ2ZmnJycZmdnSSQSi8XiV2NsbMzS0nJubi4+Pv7NmzfgEoPBAFPrd3Z2rKysHB0d8Xg8DofT0NBwcnICYT09vf7+fpD++wo63vFpxL6+Pk1Nzfb2dvBxYmKCyWSCNGlpadbW1n5+fmDpnaurq6+vr5eXl6GhIdjK5v379y4uLng8HvzU1dW1tLQEYTwe7+XlNTY2htYcMhuV4hgDkNnHKL44RUNmi6OeLPJCZktVZVkye2pqKiQkRF9f39bWtqCgYHBwsKioyMDAoKGhoampyd7evrm5eX19/d27d9ra2pWVlUQikc1mJ/CMSqUGBwfzv9Gn0WgBAQHJyclcLjcuLi4tLQ1BkOnpaS8vr/HxcQRBKBSKsbHx3NwclUpdW1vT0tJaWVmhUqlkMtnBwQH0y7lc7rNnz0xMTJydnR0dHa2srOzt7bE8u3fvHtq5JxAIL1++HB0d/T4hQU9Pr66ubnR0tKurS19fH/TXmUzm1tbWJs+Wl5dtbGxaW1vBx83Nze3tbf4VepDZUn2kD+kcMvuQQslbMshseWsRwfpAZgsqItHPsmT29vZ2b29vW1ubp6dnbm4ugiBjY2M4HG6XZ97e3s3NzWNjY1gs9uHDh1gsNiYmpqenB4/HLy0t0Wi0vLw8T09PsKUMm81++/atsbExGEKPi4t7/fr10NCQo6NjcnIy2HqdQqEYGhrW19eDQm/fvt3S0tLT09PZ2WlhYQGYzeFwQkJC8vPzt/aYoaHhxMQEEJtAIFhaWoJdbm7cuOHt7R0SEhIYGPjgwQN0jD0oKCgwMNDX19fd3f3+/fve3t7u7u4gJj8/n7/RILP51TiuMGT2cSkvZrmQ2WIKKPXskNlSlViWzAY3Mjw87O7uPj09TafTe3p63Nzc6HT67u6ul5dXS0sLh8N58eJFSkpKRkZGdHS0kZHRw4cP8Xi8s7MzFovV1dWtqanhcDilpaX37t2zsbEBPmNjY+3t7c3MzHJyctABbQqFoqur6+rq6uPj4+XldeXKFU9PTzCmraGhga6MDwkJKS0t5e4xfmbHxcVFRUWBU9f09fVramoGBwfb29t1dXUBs7lcrra2dlNTU2RkZFhYWG9vb09Pj46OTl1dXXx8fFhYGH8jQmbzq3FcYcjs41JezHIhs8UUUOrZIbOlKrGMmb2xseHs7Pzy5cu4uLiWlpaamprAwEAWi0WlUj09PVtbW0Ggvr4+Ojq6sLCwqampo6NjZGRkZmZmZWWlqampurqaSCS6uLh8+PDB1taWyWT29vaam5ubmJh8+fKFfwgajI0vLS2xWKytra0HDx6AN+K7u7tYLBbtZwcHBz948MD8ZzMzM9PU1Jyengbil5aWuri4fKe4kZEROnLu6ur6/Q03+IrA5XL19PS2trYyMjLc3Nyyeaatrb2yslJaWvrkyRP+RoTM5lfjuMKQ2celvJjlQmaLKaDUs0NmS1ViWTJ7c3MzPDz82rVrenp6/v7+Ozs7qampCQkJCILs7Oy4u7t3dHSsrKxYWlr29vZ6eXmNjo7W19cHBweHh4eHhYWFhoa+fPlye3ubSqV++/atv7/f1tYWnB1ubGyckpIiIBSZTNbX1y8pKWloaKisrLx582Z5eXlDQ0Ntba2ZmRnKbF9f3/z8/Nk9Nj8/j05529zcfPfunbGxcXNzM5VK3dzcxOPxoaGhs7OzoFCU2enp6Xg8Pj09/c2bN4DZJSUlkNkCTSMPHyGz5aEVRKgDZLYIosk0C2S2VOWWJbNra2ujoqKcnZ2zsrK8vb37+/u9vb3Bjq0UCsXNza23t3d3d/fff/+1sbFxdXWlUqnx8fGPHz9u5FlhYaGtre3q6ioQpL+/387Obnt7e3FxMTY2FsxB49cKHGP6+PHjJ0+ehISEXLlyJSQk5MmTJ+Hh4ejpLCwWy8HBgX9DG34PIFxUVOTo6BgcHBwQEFBcXAyWnzk6Oj5+/NjBwSEtLW1ra4vL5err629tbaWnp4eHh3/58qWvr8/AwAD0s8PDw/ndwn42vxrHFYbMPi7lxSwXMltMAaWeHTJbqhLLktnfx713d3d9fHxaW1vBQLejo+Pa2hqCIJubm05OTiMjIwiCkMlkGxsbOzu7ra2thISEzMxMoMDS0hIOh+NnNvo+m0AgvH79GiQjEolJSUlsNvvLly9YLHZ7exuMjWtqaqJj4zgcDrzPXl1dtbCwAHXYT+ePHz92dXXt7u46OzvX1dWBA1jNzc2JROL4+Hh8fPy3b9+4XO739+5gbNzU1BRsUKuhoQHHxvdT9djjIbOPvQlEqwBktmi6yS4XZLZoWk9MTOTm5n6f8IVuYy7UjyyZjSAIl8v19fVtbW2lUCheXl7Z2dmgVpOTk9/XWa2srCAI0tvba2Nj4+npSSAQYmNjCQTCNM+6urrs7e2FMjs+Ph4dG29paQHvyF+/fo1O/trZ2dHS0qJQKIC46Fqv2tpaDw8P/rfgQlVCEKS5uVlHRwdMU2cymRYWFlNTU2hiwOy5ubmkpKT4+HgSz0xMTEArPH36FE0J91Thl+IYw5DZxyi+OEVDZoujnizyQmaLpnJhYaG6uvrVq1fNzc2joqI+f/4s9HwR2TPb29u7sbExNjY2MKa1xckAACAASURBVDAQbNgeExODw+GePn3KZDKXlpbweHxJScm3b9/q6upiYmL09PTA5iT29vaGhob8zLaysgLilJSUmJiYREdHv3jxwsrKKikpiUwm29vbg5fWCIJQqVTQD87JyQkICDAwMFhYWGCz2VgsFj1ObT+d2Wx2WlqamZlZeXk5SMNkMr/PehNgtoaGBh6Pt7CwMDMzc3Nzc3d319LSwuPxJiYmcGx8P22PMR4y+xjFF6doyGxx1JNFXmkzm8PhcLnc3NxcDAYj8ZMuZSHQPmWAO1JQUFDk2blz5+7cuePu7v7x48exsTG0840yW+ienfv4PkL0+vq6pqamrq4uOp+rsLCQSCS2tLSAEem5ublPnz41NjaCjc82Nzebm5vR9VoNDQ3g0tbW1sLCwtu3b7e3t0HxCwsL6enpILy7u1tfX5/Ls6qqqq2tLRaLNTAwgG6SyuVyiUQih8MZHx+vr6+fmJjgcrkcDqe8vByt2H53xeFwCgoKQBaQhs1mp6SkrK+v82eJjY0dGxub3WN1dXWlpaX8KeH7bH41jisMmX1cyotZLmS2mAJKPbu0mc1isba3t5OSkhQUFJKTk8f3GNjJ8sT9TEhIUFJSUlRUBNjG/DBlZeW//vrL0tIyNja2qamJQCAoKSmVlJTIjNlSf2LkvgDIbHloIshseWgFEeoAmS2CaDLNIm1ms9nsvr6+ixcvKigo/Pnnn3/9bFevXr12Mu3PP/8EwD5z5oyiouIPZGNA5B9//IHBYM6dOweS5efnH+adrggNv7efLYKTU5blGJk9NzcHJsmDYQY2m11bW9vZ2cnm2V6dV1dXk5OTV1ZWampqwO5yIA2LxRofHwebzAj8BJvJC7gaHR1F5xLyX1pZWRn72dARoPn5eYHxCZDxzZs36PsRfldHDUNmH1UxOUkPmS0nDbFvNaTNbA6HMzw8rKurq6ioqKWlZSfMbE+gaWlpgVFxgX42YDYGgzl//ryOjg5IVlBQAPvZ+z6Ckr5wjMzu7+93cHAALyPA9nA6OjpGRkbePOvo6BC414mJCWtr68XFxSdPnkRGRqIbta6urhoaGuJwODwe7+DgcOfOHXD+ipOTk76+/uTkJPDzfbkdIHpDQ4OmpmZnZyf4OD4+Dl5JvHv3DofDaWpq2traOjs74/H4rq6urKwsEonU3t7u6uqKIMju7m40z2JiYqKjo2/evBkUFPSSZzExMa2trQJ1PuRHyOxDCiVvySCz5a1FBOsjbWaDHgb6PnvPFpYnNSI3N1dJSQmD+d+ONfgJEK6urq6lpRUSEtLU1EQikbKzszEYTElJCexnCz55Uvt8jMxGEKSvry88PHxiYiIvLy8tLc3e3t7V1TUtLe3Dhw+bm5t0Or2srOz9+/dgK7e4uLh79+5lZGQkJSWZmpomJyeDs9eWlpaMjIxIJBKNRpuZmXn48OHGxgaNRltZWbGzswOHmDGZzMDAQLDU3tXV1cbGxsXFxc3NDewot7i4iCAIg8FYXV3V19dfWFjY/mF2dnYzMzNtbW14PB6kKSkpKSwsLOLZvXv3kpOTi4uLwUdQHxHaCjJbBNHkIQtktjy0wkF1kDazAZPz8vK+d0ALCwsPqsqJugaYfebMGTAqrqSkdPPmTU9Pz9LSUv4dvtA5aFK6OTg2vlfY42I2g8EAh4+RyeTd3d2SkpKMjAxHR0dPT8+MjIzCwkKw8fu7d+/i4uIIBEJcXFx4ePitW7eio6Pj4uJiY2NjYmL6+voQBFlaWnr48CE4try6uvr+/fufP3/u6elpamoyNzcHzGYwGF5eXtXV1Zs/G+D9/Pw8UGZoaAh0nYODg9+/f0+lUm1tbaenp1FmIwjS3d0dEhLymGfXrl3z8PAIDg4OCQlJSUkR+bsmZPbeJ/NExEBmy3szQWaL1kK5ubnKysqqqqpXrlyxtrbOysqamJjgfyUJ3EJmiyavOLmOi9mNjY3Ozs5WVladnZ1paWne3t6enp6mpqbW1tbePAN7yc3Pz+fn51OpVDDN/sGDByMjIywWq7Gx8dWrV2BMe2lpSVNT083NzdPT09nZ+cqVK+7u7h4eHq6urpqamiizfXx8amtrf/Sf/+/32tqaqakpYDaHw4mNjQ0LC6utrY2Ojvbx8aFSqXZ2dvzM5nA4c3NzdXV1tbW1dXV19+7dy8rKAuHOzk50icFRWwQy+6iKyUl6yGw5aYh9qwGZva80B14oLS01MzOLiYnp7+9HX0PuzQGZvVeTI8Xs7OyUl5cTiUR08tQvsx8Xs3d2dubm5lxdXZubm5eWlvLy8lJ4lsyzjx8/gvHqtbU1f3//hIQEOp3e29t75cqVp0+f1tXVYbFY9OUx6CuDc1FBn5tKpYI97BwcHFBmu7m5GRgYOPxstra2ZmZmS0tLYP8cTU3N5uZmDofz5MmTnJyc3d1dAWY3NjY+e/bs6dOnERERAQEBd+7c8fDwiIiIADHx8fGiYRsy+5cPqnwmgMyWz3b5r1aQ2f9pcZQQmUwmkUi/nFkmbWavra09ePBAR0fnl8ugj3JzcpR2cnLy0qVL169ft7e3JxAI7e3tGxsbB9fvuJgNauXr69vS0gION3vx4kUqz549e4bH4wF3EQRZXFwMCgqqrq4GE8Q8PDwsLS07OzvRx2lxcVFXV7eysrK+vr6goEBDQ6OioqK+vr6srMzU1BQwm06n4/H4qqqqmT0GNrQBh5c/efIEh8OlpqaC7WB3d3cFxsZnZmaam5ubmppSU1O1tbXfvHljYGBQW1vb1NSUnZ3d1tYm2vA4ZPbBT6ncXoXMltum+b+KQWZLtYWkymwul7u6uqqlpXWKmU0kEs+ePQsmDaiqql64cEFHR8fX1/fTp0/T09M0Gg3lHNqOx8tsHx+flpaW72ejWVtbe3p6hvPMw8PD3t6ef6hgaGjI29s7JibGwsKis7PTzs4O3VQOQZDh4eH79++HhISEhoYGBARcvXoVhB89eqStrQ2YTaFQrK2t0aPP0NvnDywsLDCZzO+bHxgaGgYEBLDZbMBsMAfNxcUFJN7a2srPzzczM+vq6mKz2V5eXiUlJVVVVfb29kJ39+MvYr8wZPZ+ysh5PGS2nDfQ/+4+ff78+dDQ0L3/+yRSdS7PTt8ctEOKI21mr62taWlp3bt3b2pqau40WktLi6qqKrr8HV1Zp6SkdOPGDWtr68TExLa2ttnZWfQkkuNltre3d1ZW1vdjWuzt7VNTU4uKioqLixMTE7FYLGA2i8Vqb293c3PLz88fHx+3tLTc3t5uaGiwtbVtamoCW8vV1tZ6e3uD8NLSkoGBwd6xcSKR6OjoiO5bd8AD2dPTY2BgMD4+jiAIjUZzd3efm5tD56CVl5e7u7vb2tricDjwT2B6elpXVxeLxYJDZQ7wfMCl42I2l8vd3NxEd+jjryH/WNTOzo7QV1pcLpfNZpPJZLDCHkEQCoUi4A0Uwe/54DCVSgW7EB6c7JdXwdxGocm4XC6oM7hKJpMPGB3Z3d0FRwMIdQWZLVQWOYqEzJZqY0ib2evr6w8ePFBRUblx48bN02V/8+zq1asosL9vf3vmzBkFnoF18EpKSsrKyn/++efff/9tZmbW19fH5XKPkdlcLtfJycnY2Li4uNja2vrRo0dRPAsICHB0dNzZ2aHT6WlpaQ4ODlVVVSwWi0gkWlpa7uzscDicqqoqGxubnJwcJpP5/PnzxMRE8GQuLS3p6+sDZm9tbdnY2IyPj3O53A8fPjx9+vTgr9psNrupqcnCwqKyshJ443K5s7OzTCaztbUV9LPr6uq+fv3a1NTk4uICdnfp6+srKyuzsbFpbm4WwNXh/1hkyWwwY3+LZ4uLi4GBgcPDw+Dj1tYWmBZAp9NTU1PBtHwWi/Xvv/82NTUJ3M7q6mpBQQGRSHz+/DmRSCwqKtrd3Y2MjJybm+NPubm56eXlhSDI+Pj4q1evEniWmJgYHx+flpZGJpMRBKHT6Zs/rKamxtPTc2Nj40fEJoPBAKsDEhMTQfZ4nqGu8vLy9rbshw8f0tLS9sajb1vQbwaRkZEDAwP8dUYQZGdnZ3JycmJiIj4+nkAgEInEiYmJyclJ9JUNSA+ZLaCb3H2EzJZqk0ib2eB99rlz5/T3N8OTbNra2vzMRpfCowFVVdV//vnn4cOHvr6+YAOvY2Q2nU738/Orqqoik8nOzs5DQ0MMBmNiYuLVq1ceHh40Go1KpWZnZ4+Pj5PJ5KqqqsTERAcHBzDJi8PhDAwMtLS0LCwsODo6gm4xgiArKyvm5uZbW1uZmZk+Pj5WVlbr6+tkMtnBwaG3t/fgp/f7ykNLS8uysjL+Xhc4DM3Pz+/58+do9qKiInAKS3Bw8MDAAIfDAV1//p1e0MSHCciS2S0tLV5eXu7u7ng83tzc/Pr16wYGBjgczt3d3c3NLScnB0EQ8K3I3t6+s7NzampKQ0PDwcHBx8fH19fX29s7OjqazWZTKJTQ0NCqqio3N7fExMSKior19XUTE5P29vbx8fGJiYnva+K5XO7S0pKenh6bzS4sLHRwcMjm2YcPH96+fWtoaDgzM4MgSF5enpWVFdgV53uht27dwmKxOJ45OzuDg3O6urp0dXXfvHmTnp4eGBior6+fnp6elpYWHx8P/AP25+bmpqWlvXnzJiwsTEdHJzk5OS0tLTU1tby8HG3W3NxcX1/fioqKMp75+PgEBAR84llDQwN4wGpqakxNTd3c3Ozs7BwcHFx5ZmRkBA7ARdsUMhuVQk4DkNlSbRipMhtBkFO/PptIJKqqqoL+NOhbKygoYDAYFRWVmzdvOjs75+bmLiws8Hc+jpHZYCgVHEiam5sLhuuHh4fj4uJ6e3v5K7m1tfX69ev4+PivX78KPIE0Gm14eBj9dwy642w2u7+/v7a2FiBhd3e3uroaTSPgAf04OTkp0EdEEGRycjI+Pj4rKwt9m4AgSE9PT2Vl5fLyMpoXQZCNjY3q6mr+IWX+qweHZclsMGO/p6cnOjo6JCTExMQErC9va2ubmZkBB7yCk2rb29trampCePaZZ62trYCvTCazq6srMDDQycnp7t273t7eSUlJHR0d34+IdXZ2NjQ0tLe3X1xc7OzsDAoKun79elxcXFpaGhaLBZgsKysrLCw0MDCYnp7mcDjx8fGRkZFTU1OTk5OvX78uKiqa4jMwNN3R0YHFYoGM1dXVnp6eILy4uKivrw9GOEgkkr6+/rNnz+Li4uLj4+N4Fh8fHxQUZG9vD/rrVCrV0dHx06dPcXFxT58+ffLkydMfFhERkZSUBN4ClJSU4PH4ioqKSj7DYrECW9hCZh/8YB//VchsqbYBZLaY8gJmgyFxgOrLly9bW1u/fv16aGhI6CvJ42W2mPd7arLLjNkcDodIJL558yYgIODdu3eLi4vu7u4jIyOlpaWBgYGJiYlfvnzZ3d3t7e1taGj4+vVrbW2tkZFRdHR0enp6RkZGf3//2NiYvb09k8lcWFhIS0vT19e/efPmo0eP6uvr379/7+rqurq6Gh4eXlFRweFwpqamcnJy7ty5U1dXl5WVBc6offz48YMHD6Kjo2NjYzc3NzkcTkJCQmxsbHp6emxsrLa2tpeXF8AtgUB49+4d6Ph2dHTcv38/mmeurq66urogDPrTKLOtrKwEvkuBVXxYLBYw+8OHDzdv3pycnORwOBkZGcBJdHR0VFRUZmYmumkEeF+TnJwM1jKkpqampKRYWFhAZiMI8v9O0B8eZLZUGwsyW0x5iUSimpqaiorK+fPnHz58CHYK297e5u+zChQBmS0gyLF8lBmzGQxGXFxcVFRUTExMVlbWu3fvgoOD09PT379/TyAQoqOjnz59ury8/OrVKzc3N2dn5/n5+by8PBMTk7y8vICAgLi4uJGRke/j5AwGo7e319vbOycnx87OLjo6+s2bNx4eHoaGhuvr64GBgegbYrAdLIvFAqfFj4+PV1dXGxkZjY2NEYlEMP8rnmf19fURERGmpqZFRUVJSUklJSVlZWXoTMOOjg59ff1CnoWHh5uYmBQUFBQWFmZkZKBj4yQSycTEpKqqqutny87OdnR0ZDAYc3NzhoaGWlpaU1NTXC63uro6/4d9/PixpqYGXV5fUlJiZGQUERHxjM+MjIwgsyGzf/oXweUZnDf+kyiS+3Dqx8ZnZmb09fVDQ0NbW1sPM0caQRDIbMk9X6J7khmzwbtqIpFoZmYWFxeXmpr6mmdJSUmWlpZVVVXgDQKXyx0bG3N2dt7d3W1pacHhcNPT00lJSQQCYWhoCPCvqampu7u7ra0tNTV1d3eXSCQGBQX5+vrW19e7ubmBreXAkWu3b99++fIlgUDQ1dX19PR0dHS8du2ap6ent7d3a2srh8OJiYl58+YNhUJxdnauqqpaWFiwsbFZXl6m0Wjou4aOjg4nJycWzyoqKjw9PUF4fn4eZfbGxoampiYWiwVHvOB55uLigsfjCQQCm83++vVrUVGRpaXl1NQUm81++vSpG89cXV3d3NwiIyPBFDwEQYqLi11cXKqrq+t+WG1tLQ6Hg8yGzP7p7xwyG5wR8pMokvtw6pnNZDJXV1cP6FXv1RIye68mso+RJbMRBCESiWCYOoFnYD42YDZ67+Pj43g8HjD77t27wcHB1tbWBAKhv78fi8Uymcyenp7Y2FgjIyNfX9/Y2Njc3FwSiVRWVubi4uLl5cVisbhcbnl5ub29/fXr15uamuLi4rKyslZXV9vb283MzFZWVkgkEpvNBrvO5eXlffny5c6dO48ePQoICLh+/XpgYGB4eDjKyKampvv37//LMxwOp6Wl9fz58xcvXjx+/Pjhw4dgbHxlZcXCwgLMRUdvhD8A1txbW1tPTU0xmcy2trZ6Pvv8+TPaz25oaLCxsfHimbe3NwhYWloKzJ+H77P55ZXHMBwbl2qrwLFxqcor1DlktlBZZBwpe2ZbWVnl5OR8+vSptLT006dPxcXFWCy2qqoKvfHx8XFnZ2cKhdLU1OTq6komkzMyMggEQk9Pj4uLC5PJnJqaioiIsLOzKy8vDwoKioiIQBBkbW1NX18/IyMD+Jmammpra/u+ToHJZIaEhFRWVtrY2OBwOB0dHXd39/DwcNCTdnd3b25u3t7ebudZZWWltrZ2TU1NR0cHepTq+/fvcThcNc9evHhhbm4Owjk5OWg/e2hoyMHBAe2ao/fCH6DRaIDZ4Ag4BwcHR0dHe3t7BweH+/fvg11sWSzW4OBgf39/ZWVlV1fXixcviETiyspKX19fT08P/3fiqampK1eu4PF4kZf58dcNDYPO28bGhp6e3r179w6+IzSXzALwffZ/UoOmgmPj/yki0dCp72eLoBZktgiiSTyLjJk9PT1tYWHh4eHh5+fnyzNvb29zc/PGxkb01sbHx21sbAgEQlZWlr6+/vPnz52cnF69etXW1ubu7s5ms5lM5tOnT4ODg0tKSr6vswdw7evrA6frohMeV1dXHz58SCKRsFhsX1+fgYHBDM++b6zr5OS0vb1NJpOtrKwqKioSEhLAfO/nz5/funUrKioqPj4+ISGhra0NQZCwsLC8vDxQverqarDmGyy21tHRAcjMyMh4+fIlP1PR20EDKLMnJibs7e3JZDIYY2exWEZGRmBIv6ury9PTs6qqysvLi0Kh/Pvvv5mZmZOTkxUVFU5OTkQiEfUG+9moFHIagP1sqTYM7GdLVV6hzqXN7EuXLrm5uQkt+neIpNFopaWlw8PDB+ylhSBIZGSkoqLily9fwLd28FNS+hQXF2MwmA8fPgCHJBJpcnKyrq6ObxHT/warq6u/zy8Dq/YRBPn69evNmzejoqLm5uZaW1s/f/7c1NQ0Pj7+7t27gIAADodDp9O/Lw8zMzO7e/eutbV1a2vr6Oioi4tLfn5+UFDQmzdvGAwGm82enp7W19fv7Oz08fGZn5/X1tZu4VlBQQHYmW5oaMjCwmJ4eLigoOAjz9LT0+/evZuVlfXx48eCgoKhoaH19XU9PT0UloDZHA5nZWWlubnZ2NiYw+F8fzF0mFX4/Mw2NDTMy8v7rk9xcXFJScndu3fn5+fZbHZQUFBeXh7YOWd9fX12dranp+f58+fveBYaGooOoUNmS+oplZYfyGxpKcvzC5ktVXmFOpc2sy9fvuzu7i606N8hcmVl5fLly3/99Ze5ufmLFy/a2trW1tb2rhSPjIxUUFD4+vUroDWLxdqbRmS5BJgNtpZz2MfQ3eKmp6fByWZoub29vT4+PtbW1mVlZWw2Oz8/39nZOTExcXx8vLKyMiYm5smTJ1lZWSwW6/vm9l5eXt3d3UNDQ+Bc1Hfv3hUVFa2urt6+ffsJzwIDA8Gu8pWVldHR0WgpYIDdysoKXSmOIEhfX19YWBiqSVdXF4FA2Nra8vX1tbKyAkPxPT09Xl5eKE35HfKH6XS6nZ3dzMzM1NSUnp5eZGQkeEf+77//amhofPv2jUajvXr1CnyzsbW1dXd39/Ly8vDwMDc3Hx4eplKptbW1aCmQ2fzaymMYMluqrQKZLVV5hTqXAbN/53720tKSurr6mTNnFBUVlZSUzp49e/fuXU9Pz48fP46Ojm5vbwMO/fvvv3/88Udvby+LxWKz2ej23UKb7KiRAsxmsVj0/Q2l0d5SdnZ2hoeH5+fnQZ3B9qLoQDSbzQZzykBGMpn8fbf2nZ2d0dFRCoVCpVJpNBqTyRwYGGDzbHd3d3R0lMPhMBgMgTUOIBn/S1wOh4PO6Ab7vYDBcDKZTKFQQH0YDAb/vjd76w9iwA56NJ6Bs9jRsY2BgQGwhhu9KRKJNP3DhB6RB5m9n87yEg+ZLdWWgMyWqrxCnUub2ZcuXXJwcJj9Xa23t1dNTQ1sKAt2plNUVMRgMMrKyteuXbOwsIiNjW1sbAwMDFRUVAQ7wIOp1EIbS7RIAWaL5gTmEqoAZLZQWeQoEjJbqo0BmS1VeYU6lzaz//zzT3V19evXr1+7du36PnbjlBq4XSWega62Is/A9u/ozvDnz5+/cOHCmTNnysrKGAwGh2dCG0u0SMhs0XQ7TC7I7MOodJxpILOlqj5ktlTlFepc2sy+fPnylStXDHlmvL+Z/DBjY+MfwdPwW09PT0VFRZHPFBQU0KFyDAZz9uzZW7duXb9+XVFRsbOzU2gbiRkJmS2mgAdkh8w+QBy5uASZLdVmgMyWqrxCncuA2a6urkKL/h0iwfvs7zsFgd42ONFcSUlJVVX12rVrWCw2Ozt7ZmYmMjISg8H09PRIQxPIbGmoCnxCZktPW8l4hsyWjI77eIHM3kcYKUZLm9mXLl2CzEa72UpKShcuXLCwsEhJSeE/teXZs2fKyspfvnyRRktDZktDVeATMlt62krGM2S2ZHTcxwtk9j7CSDFa2sz+zdd6LS0tnTt3DoPBXLhwQU9PLyYm5uvXr+h+I2i7Pn/+HMxBQ2MkGCgqKuJfny1Bz6fbVUVFBTjKbHNzk38SO/9d8zMbnW3On0C0MJjKDvdBE029n3JBZv8kh6Q/QGZLWtFf+5MBs3/ntV5ra2sGBgbBwcFgb8792kOq+6AVFRUpKChkZ2fvVzqMF6pAYGAgBoM5f/68gYEBOF10bm6Of8kZOF79r7/+cnZ2ZjKZkNlCZTzmSMhsqTYAZLZU5RXqHDJbqCySimSz2UI3URHwLwNmo/ugCRQNP+6ngL+/PwaDQU+jV1NTu3XrlrOz8+vXrwcHBykUCpfLBf1sV1dXsKp+P1dHjYf97KMqtm96yOx9pZHEBchsSah4NB+Q2UfTSzqppcdsLpdbUlKioKDw4sWLHmhHUQCLxSoqKiorK2MwGDDbH0whVFFRuXDhwsOHD8PCwrKysi5evAj62eg2beI/I5DZ4mv4fx4gsyUmpTBHkNnCVJFuHGS2dPU9nHepMru4uFhRUZF/gTg6Jw4GDlAALKNXUlICqAaT/0EkGgN2yDEzM1tfX4dj44d72GWbCjJbqnpDZktVXqHOIbOFyiLjSKkyu6SkRFFR0draOiwsLDQ09Am0QygQFhb24MGDM2fOAEiD3jY/sFVVVTU0NBwdHdXU1JydneHYuIz/ZA5bHGT2YZUSKR1ktkiyiZUJMlss+SSUWXrM5nA4YA4afJ991Lby9/cHvXB0YBwsrL969aqLi0tJScnS0tL4+PiVK1cgs4+qrezSQ2ZLVWvIbKnKK9Q5ZLZQWWQcKT1mIwgCxsYhs4/apv7+/go8A/vDX7161cHBITMzc3Z2Fh0Gn5ycvHr1qpOTE+xnH1VeGaWHzJaq0JDZUpVXqHPIbKGyyDhSqsyG67NFa82AgABFRcU///zTzMwsISFhcHCQTqcLuALzxkE/G85BExBHLj5CZku1GSCzpSqvUOeQ2UJlkXGkVJkN90ETrTWTk5OfPXvW1dUlcFQovzf+PVX448UMw3njYgr4X3bI7P+0kEIIMlsKov7CJWT2LwSSyWXIbJnILPlCILMlr6lkPUJmS1ZPAW+Q2QKCyOAjZLYMRP5lEZDZv5RIPhNAZstnu/xXK8js/7SQQggyWwqi/sIlZPYvBJLJZchsmcgs+UIgsyWvqWQ9QmZLVk8Bb5DZAoLI4CNktgxE/mURkNm/lEg+E0Bmy2e7/FcryOz/tJBCCDJbCqL+wiVk9i8EksllyGyZyCz5QiCzJa+pZD1CZktWTwFvkNkCgsjgI2S2DET+ZRHywGwWi7Wzs4OuPP5lnWECcK7XlStX8Hg8m82WoCBw3rjExITMlpiUwhxBZgtTRbpx8sNszg8D2FhdXSWRSAI3T+cZf+Tm5ubGxgZ/DJfLZexjQk9BXlpaWltb4/cAwiwWi8ln/Hk3NjbIZPLeLOPj46IxT3rM5nK5RUVFioqK++2pAk4eq6urCwgIsLS03Nra2ntfMGY/Bfj72aI1vVDPkNlCZRElEjJbFNUOnQcy+9BSSSyhnDCbSCQmJCTExsbGx8eXlZWRSCQnJ6fnz59XV1c3ii20HgAAIABJREFUNjbu7OyAGy4pKYmMjOSH9Js3b5KTk/nlmJqawuPxXl5eHh4e7u7uLi4uaPjJkydoShTJOTk5jx49otPpANCgw8ThcGJjY/39/T08PAICAnx9fcPDwxcXF8fHxxEESUhIyM3NRRCETCYPDg4O8OzLly/37t3r7u4GHwcGBtBqo4XuF5Aqs4uLi/een83lcre3t9va2iIiIrS0tFRUVBQVFW/fvr33e9J+dYbxoJ99+fJl0M+GzJbHRwIyW6qtApktVXmFOpcTZs/MzERFRenq6r5+/bq6ujotLc3GxiY2NtbX19fQ0HB9fR1UfnNzMzIyMigoCPR6uVxubGysALO7u7tNTU27eJacnGxtbd3e3t7V1VVUVKSvrw/80On0x48fu7m5ubu7Ozo63rx5E4Td3d1jYmLAP9/e3t6SkhItLa36+vqWlpb29vaJiQlbW1sEQaKjozMzMxEE6e3t9fT09Phh58+fd3V19fDw8PT0dHNzGx0dFar53khpM1tJSQntZzMYjNHR0bi4OENDw3PnzoFzL8BPDQ0NyOy9rXNADNi7FI6NHyDRMV+CzJZqA0BmS1Veoc7lhNkIglRUVISGhjKZzLKysgcPHmRlZZWXl9vY2Pz777+fP3/e3d1FEITL5e7u7g4MDIB74XK5ERERb9684b+1np4eR0dH0Gmuqqry8PAAfeiRkREjIyOQcnt729jYuLy8vP1ny87OtrGxQd9NdnR0mJubj/JsY2Njbm7O1NQUQZCXL18CZiMIsrCwMDQ0NDg4+PXr1xs3bvT09AzybGlpib9WB4elymxwrtfbt2+npqbevn1rbm5+9uxZJSUlcAAGhmcgfOfOnZWVFfT2QZ2ZTKbAqwYmk8l/OywWa28C/k4nm83em4B/p0+hrzMEqiHggcFg/LIaDAaDv557q8FgMPirweFw9t6sQDUEEoyNjV26dAmPx/P74S9UtDAcGxdNNyG5ILOFiCK5KMhsyWl5WE9ywmw2mx0TE5OamkqlUjs6OqytrV1dXfF4vKGhYVhYmIGBwcTERG9vb3Jycnp6+srKCrg9Lpfr4eHx+PFj/rvt6em5du0aDodzdnY2NDT8+++/nZyccDiclZWVtrY2SLm9vW1hYbEXq1++fLG3t0f/TYeGhpqYmDg6Ompqaqalpc3NzRkbGyMIEhUVlZGRAVylp6e7ubnh8XhXV9dz587hcDgXFxdXV9ePHz/yc4u/hnvD0mM2h8PJz89XVFT8559/rl69qqioqKSkBHrV4OxnEAYIP3funKGhYVxcHFrD5eVlJycns5/Nw8MDfbtPp9NDQkLMzc3RJObm5nZ2dlNTU6iT9PR09CoIWFpa1tXVoQk6OjoEEoAtvtEEVCrVxMREII2Hhwe/wt7e3vzVAIn5hw1SU1MtLS1RJyBxc3MzWkpLS4uFhQWawMzMzNzcPCUlBU0wOzvr6OjIn8DAwEBVVRWHw3E4HP7KoFlEC0Bmi6abkFyQ2UJEkVwUZLbktDysJzlh9uLioo6OjoaGhpGR0du3b8PCwsrKykpKSsLDw+fn57/Tl0gkfvnyJSUlxdzcvKurC9wejUYD/8r5Z4T19PRYWFhMTk5OTEy8f/8ei8USicSJiYn6+npDQ0OQcXt7W09P78WLF4k/7BXPwsLCrKysALOnpqZ0dXU3NzfBN4Pm5ma0n42OjY+Ojnb+sLa2ths3bjQ3N3fwrLOzk0gkHrIZpMdsOp3+6tUrDAajxGeKiooKCgoYDAacW4WGVVVVVVRUvL290WrPzs5eu3ZNXV393Llz6j/swYMHaB+XSqWam5v/uKJ+9uxZVVXVa9euDQ4Ook6ePHmCJlBTU1NRUblw4QKYEADSVFZWqqqq8qc5e/asv78/6oFMJisrK/PXQV1d/f79+/yY1NLSUuMZ6kddXX15eRl1EhISoq6urqamdv78eVBPdXX14uJiNEFxcfH58+fR7KqqqmpqakFBQWiCsbGxq1evognU1dVVVVUVFRVdXFwgs1GV5CsAmS3V9oDMlqq8Qp3LCbPfvn2rrq6em5v7/v372NjYoKAgTU1NLS2tW7duGRsba2lpTUxMIAhCpVL9/Py6u7vBvayurpqZmbm6uqIxCIL09PTY2tpSeVZWVubq6rq9vU2lUgcGBtCxcQqFoq2tHR8f/5rP0nhWXl7+HdJUKhWLxWppaWVmZs7Nzd29e5dKpe5ldmpqagDPsFjszZs3DQ0NjY2N/f39wbS1rKwsfqgI1R9ESo/ZXC63tLRUQUEhPT29vr7+yZMnmpqaFy5cUFZWRg+HBh1uMAdtaWkJ7UODutHpdNrPJjDmzGQyf75Oo9Pp/DfOYrH2JuAfTOZwOAIJaDSaQDX2JhCoBoPB2JuGX/O91aDRaALV2Huz/NXgcrkCCUZGRi5fvuzi4gLP4uSXWo7CkNlSbQzIbKnKK9S5nDC7rKzMxcWloKAgNzeXQCCEhYXV1tZWVVVFRERsbGx8HyQHfVbAbLSf3dzcbG9vX1VVRSAQUEg0NjbeuHHD2dkZj8cbGRl9nwuN45mVlZWenh4QgUQi6evr02g0oZqALwdFRUXLy8shISFaWlqhoaEIguxlNnjFPjQ0hMfjS0tLR0ZGHB0dNzc3x8bGEhISDvAvUK70mM3hcMrKyhQUFL5PjweFsliswcHB9PR0BweH69evKykpnTlzBn2fzT+YLFBJ+HGvAmCtl7OzMz/79yY7agwcGz+qYvumh8zeVxpJXIDMloSKR/MhJ8xms9mxsbEfP37Mzc2NiYnx8PAwNjY2MjLS0NBwdHTU1tbmZ3Z7e/vc3ByNRvPx8cnOzl5bW3Nycpqfnwd3npWVFRQUNM+z3NxcJyen2dnZ+fn5z58/o2Pjg4ODNjY2h1FqZGTkwYMHMzMzCILMz8+DOWjo2Pjs7Gx0dPStW7devnzJ5XI5HE54eLiPj4+NjU1lZeXh/49Lj9loPxudN47eNZfLXVxcrK+vDwsLA8u9tLS04PpsVJ/DBCYnJ//66y84Nn4YrY4nDWS2VHWHzJaqvEKdHzuzWSzW0tJSaWmpv79/UlJSYmJiZGSkq6trZ2dnQUFBcHDwxMQEDodDme3p6YnH48PDwz99+mRubk4mk7lcbkZGRmRkJNiUJSgoqLCwENxsbW2tl5cXYCeRSDQxMQHxSUlJCQkJQgXhj1xaWrKwsMjOzgaRZDIZhKOiojIzMykUioeHx/v376Ojo1NTU7lcLplMXllZMTc3z8jI4B9T5fcpNCw9ZiMIUlxcjMFg9jKbvyYMBmNiYqKlpeVI1eb38HuG+fdUkaACsJ8tMTEhsyUmpTBHJ4jZ6EissPuQQBw6dfnwvoT26sAf/wFOjovZXC53fX29srLS09Pzr7/+Onv2LBi7dnV1jYyMxOPxOzs7NTU1T58+nZycxOFw4H325uampaXl06dPGxoajIyMmpqawK1tb2/jcLjKysqJiQkDAwO0z11XV+fl5UWn079+/fru3TsrKysEQdbX179PCZ6dnT1AFgRBmpqa9PX1X716xS/s1tbW99VQ/v7++fn5aPaXL18GBARERkY6ODgMDg4uLS3Z29uHhITIwxy0QzIbvRcYOJICkNlHkusYEkNmS1V0uWI2l8vt6urq7+8Ht8xgMFZWVohEYnt7e3Z29osXL8A/fTqdvryPraysgDeaXC63u7u7/IeV8Qx8qqysRFcuodqSSCQ/P7/NzU00BgSWl5fr6+vrflh9ff3ExAT49kAikV68eAE6SWCQFnQ6379/X11dDcJCp7bKntk0Gq21tTU4OPjOnTuqqqrKPFNTU4uKivr69SuCIHV1dWVlZQiC9PX1paSkBAcHP3nyhEKhIAjCZrOJRCKDwcjJySkuLuanaW9v78ePHwcHB/k7lEQisbCwkEKhhISEeHp6NjQ0gI1QYmJiBLQV+Ah2a/n8+bPAl7P09HQsz759+4ZmCQ0N9fPz42/Kra2t5OTkhIQE/hqi6fcGjr2fvbdKMOYwCkBmH0al40wDmS1V9eWK2QiCtLW1mZmZNTU10Wg0f39/fX19JycnHx+fmJiY6upqsL6opKREQ0PDlmd2fGZra6urqwv4wWAwbG1t3dzcHj9+HBQUdOvWLQ8Pj2Ce6ejoVFRUAFXn5uZqamrA3CsTE5PY2FjwsaamBvC7p6cnICBAW1vb0tLSz88vICCgvLw8JSWlp6dnYWHB1NSUTqez2eywsDBnZ2cw8erevXva2togjMPh4uLiBHrw0mA2+NLAZrNHR0cvXbrk5uaGIAiNRhscHHzx4oWWlhZYIcO/m8e5c+c6Ozv3Pl0cDofFYu0lnwBK92YUiOEfb+ByuSwWC8QI9QMuga84/BnBlwYwpRnNzuVymUymgB9wFcwlFvCAVozfA2Q2KsvJCkBmy3t7QWZLtYXkjdkIgnR2dkZEROzs7HxnbWdnJ9phRSlSWFgYEREhVJbY2NisrCwEQRgMBg6H+/LlC0CXpaXl2NgYgiAcDicoKOjTp08ge0pKir6+vt8e++eff9ra2kAaLpfr6ura1taGkiAgIKCmpmZhYcHExIROp4PpzcQf5u/v//Llyx+fiIuLiwJVlQazORwOm2djY2OXL1+2trZ+/fq1qampmpoaWBnMvwMXILeamlphYWH7z9bR0cG/7cnW1tbP1//3E//4M41G6+3tFUjz5csX9GsKl8sdGhqKiYkJDg5+zLOgoCD+F9tsNjsuLu7x48fgG1VwcHBQUFBoaCjYhQ1IV1BQAPKiaR4/fjwyMoIK29PTExISAopA06DfzBAEWVpaevr0KSgF/NTV1VVUVATDDKgfSQWKf36fDZpGwDmXy2Wz2ZubmwILqASSCXxksVh0On12dhbsIMblcufn58FDiKZks9mTk5PgI//XFPQBRlOCwOrqKv9+LPxX92ZHY/iTgfDc3By65a3AVTabPTs7iz4VMzMz6HJzgZQIgqytrS0sLOyNBzGQ2fspIy/xkNlSbQk5ZDYg6+7urpeXl4GBgQ3PrK2tLSwswJrgwsLCyMhIFotVXl6emZmZlZWVmZlZVlbGYDAIBALKbEdHx+jo6Ly8vPfv3z948CAuLi4vLy83N9fS0rK0tBSompqays8PVGocDtfe3g4+UiiUmzdv6urqmpiYgJXHgYGBAsyemZmxtrY259k///xz584dCwsLc3NzHA7HP6ILHEqD2QAADAajoaHh/PnzYI+tP/74Q0FBAdBagNkKCgrKysoWFhbo3tcA5Kqqqvy7UNXX14NtQMBV8NPJyQkV6vssqmvXrqGrjUFxt27dQudC02g0AwMDkBF8e1BVVb179y7qgclk3r59G93XE9RTQUGB/z2Fm5sbGCdA7wWDwZSXl6NO3r17B1Y/o9uNKSoqhoSEoAkGBwfPnTuHplFWVlZSUvrjjz/Atzo0maQCAsxuaGgICQkB56z09/enpqZGRUUFBgaCh6SlpQV8q0hNTU1MTHz1w8DeMwk8a21tBbPoX7x40d/f7+3t3dnZGR8fv7297ebmJkDctbU1MzMzBEFaW1vt7e3t7OwcHBzseebq6rq6uoogyObmJvhaOTExUVBQoKurOzY2NvHDwIDW+Pg4yGVnZwcCjo6OwGF4eDj6HRr5Ye/evQsPD0fB/CP6f38TiUQHBwd0VZuPjw94acKfZnl5ubq6uqKiwt3d3cvLq5JnVVVVAm+yILP5RZPHMGS2VFtFrpi9vb0dHx8fEhKSl5e3s7Pj4+NTWlo6NDREJpOJRKK5ufnc3ByCIAUFBREREdvb23Z2domJiR8+fEhKSrK2tiaRSPzMdnBwCAwMJBAIL1++1NDQCAkJiYuLi4mJefjwIT+zo6Ojt/aYvb092s/Oycnx8/NbXl7u7+83MjL6PiorwGywI/fy8vISz0A/EoRXVlb4+4ugKaXEbDCg3d/ff/nyZQ0NDTs7u4sXL6qoqABeApqi6FVUVDx37lxsbGzkz/bixQt0KTaCIFNTU8+fP4+MjHz27BlI+OzZM3SKOIIgJBIJTDsHyf7999/IyMjU1FS058dms9+/f//8+fOoqKiBgYF+nvH31BEEGR8fB/Hoz4GBAX4kzM/Po5fQAHjdjvCMRCKh8WiAf4SDTqcPDQ2hl/r7+318fDAYTF9fH8+BhH8IMJvBYLx8+dLT05NMJhMIBF9f39LS0tbW1pmZme3tbXCn7e3tpqamhcIsODj46dOnXC6XRqMlJiaWlpbi8fi4uLi+vr7/z957PzSRP//j37/oLVU95YBTz0NPLFRBekIJCRA6hBJ6C50E6QiC0kGCIEg5ehMUkd47EggQSvruN688P24iIHpIIHg7P4TJ5rnPfT5nln3szHOeMysrK8bGxoWFhXQ6/c2bNzs7OwKBYGFhwdDQkMPhlJSUkMnk2dnZGTGNjIxgMJiZmRkIgtLS0h49eoTBYGxsbMzNzU1NTa2trcH7sY2NTV1dHQzD3d3dGAxmREzPnj2zs7MDfFtbm4GBAcDm3d1dPz8/RzFhsdg///xThM2Ojo4EAiE+Ph4JiU9NTQ0JCYmOjgb+EmtrazMzM+BToVKp4H+kqqrKysoq/gslJiYmJCSYmZkhXjGgJBSzT/lmPfXuUMw+dZFKdyhXmM3j8fr6+tLS0kgk0tbWlpOTU0FBgZWVVX19PY1GQ6o6Ipjt5OSE7OIVPTQOYLa0b9zKyupI33haWtrt27f19fUNpEhHR0dfXx9UxZiZmbl7925qaiqHw8nLy4uIiBC5AQ74xt+/f+/g4IDH4wkEgpmZ2f379+/evevg4EAgEPB4vK2t7QFTWxaYLRAIhGKSXs9msVh1dXWBgYEgxyTIl4mYvN9az5a+PX5hHqxn9/f3y2KOlV/7xsFiTWdn5/7+Po1Gi42N7RPTu3fvROVVQCnxrq4uEIUAXCbAnQ7gvKKigkKhCIXC2tpaW1tbHR2dmzdvWltb+/n5NTQ0mJqahoaGmpmZubq6rq2tVVdXm5qaqqmpubm5paSkGBsbh4aGhokpODhYR0dnZmZGKBQ+ffo0JSUFJKhJT09vaGg4LIfu7m5HR0dw/O3bt+7u7oBfXl42NDQEmM1kMs3MzOrr6/v6+sB0wNQKCwtxOBxw+29sbJiYmHR3d3d0dDRKUYOYurq6ALTT6XRzc3MKhRITExMbGxsTExMdHf3kyRMUs2EY/v8Oq0duj6CYLVPVyBVmg5m2t7f7+fnNzs7i8XgmkzkwMGBlZaWtrY0gH/CN7+zsHI/ZdnZ24eHhGRkZKSkp2trakZGRWVlZ6enppqamiJ2dkJAAfOnfEnJWVlZeXp6Xl5ezs7OJiQlwUZLJZGnfOJfLXRVTS0uLiYlJc3MzgUBoaWlZXV3t7OwcHBw84C2UBWYjgevSmI1Mis1mDw4OZmdnA+MbVK34j2N2VFSUiopKX18fIqXTYiAIotPp0vuz2Wz2zs4OsCbj4+NtbGzA6ntQUJCenp7IGoZhuKury83NjcfjJSYmYrFYOzHh8filpaXy8nIKhQKyeFZWVuJwuPv37wcEBIyOjmZmZjo7O+/v70dERLS3t4N0cqIiZ3p6ep8/fy4uLnZxcWlpaSkoKDAyMhKlq+vo6ADZQ5OTk6lUKshF88cffzx58sT2C/n7+wM3SXd3940bN8zNzS0tLXV1dW/dumVpaWlhYfH48WN9fX0Es0Wjlc4xDsTY399PIBAAZkdGRmppaU1PT4vKkXl7e2PEhMViMRiMqFz63t4eOKWyshL4/AHqg5cAV1dX5L8VNJuentbU1HRycvpXcQDHKxf6QhsbG4aGhg8ePEA8BMefeGa/opgtETVQVklJiWixTdrpJ2nxS3PyidlkMrmurs7X15fL5YKc1YaGhjk5OSBUGMSg7e7uWltbGxkZmZmZgSfO1tYWlUrNy8uDYXhra8vExIRGo+Xn5+fm5t6/fz8hIeHFixf5+fkWFhbgzV0UfkwikY60MBCdg/hkPp8fFRVla2sLnlPAvkHixmEY3t/fz8nJ0dfXB6vgFRUVPj4+FRUVVlZWh72vssBsYDAJhcLR0VFNTU1gsSGzQBiBQMBgMJqamoKDg83MzMbHx5Gf/mtMdHS0oqKiLOzsA3nQOBxORESEkZGRKLfr1tZWVFRUfHx8WlqaqDjp1NQUDocDviKA2aBmV21tLZPJnJubE+WCnZycBHa2QCCoqKhwdnZuaWlxcXGprq7OzMy0t7c3NDRcXV319fVFgvLW1tYeP37M4XBevnzp4OBQVVWVmZmpp6dXJSYQv5acnJyamrqxsZGTk+Pt7T0/P19cXLy0tMRgMJBIAlFAoq2tLXgfLSkpcXR0BPzg4ODjx48RzDYyMoqKiqJSqTQajSomUZkyMplsZ2fH5XI/fPjwRExg0X1ubm5iYmJ8fByspoPBgHuvsrLy4cOHGAzG2tra1tYWOOrv3bt32M6+efMmyF16YO/Aie9h4M+AIAjF7BPLUHIiamdLZCEDTg4x+59//nFzcwsMDCwRk6mpaV1d3crKip2dHdjHBexsBKWEYgL/vUlJSaDKsiiNJgaDAZFQbDZbOm6cTCaDpwCXyzU1Nf1uog8YhoeHhw0MDBD0jY+P7+joQDC7rq7O3Nw8MDDQzMwMxM1yuVwfHx9jY2PwOD6gt3PEbOmRnNbzTrrPC8TL1DdeUVEhbWdDEDQ5Oenh4bGxseHm5tbc3BwfHy9yO5PJ5ISEBAB+CGaHhISAqLTt7W1XV1cEsyEIEhWmZDAYomTmFRUVPB5vZWUlJSUlJiampKTE2dkZxGrt7+93dXXdvn3bzc0tPj7e1tY2MTExMDBQW1s7KSmJRqOBWAFQ23R1ddXU1LSrq0sEok+ePJmenmYymYjh293dTSAQ9sX0+vVrNzc3wE9PTyN29sbGhpGRUVpa2vNDBLIUzM7ODg8PixawgZ3t6ekJjHULCwtzc3MfHx/kcnQ6nUQiDQ0NjYyMjIppZGQErP1L31fT09M3btwgEolg96D0TyfmETcVk8k0MDB49OgRamefWJgwitknl90PnClvmD01NWVvb29iYpKSkrK6upqdnY3YgrOzs11dXRAEVVRUeHh49B+i9+/fBwQEADv7xYsXnp6eQAAHMNvd3R3sAurq6hLFqX0Xutra2gwNDel0OiJOLpcrFApB+QoOh/P58+elpSXwVjE8PFxUVJSTk7OysuLg4EChUEC0MHIuDMNygtnSQ/oP8unp6SoqKvX19ac+d6FQmJmZKaoaCdLUgP6npqY8PDzGx8cJBMLc3ByPxwsPD1dXV0fyyiGYHRAQkJaW1tLSUldXZ21tDeK6wXp2TU2NKDryr7/+srCwsLe3j4yMhCCos7PT3Nzc398fuAyBJ+nu3bufP39OSkoqLy+fm5trbm4WVVCdnZ1dXV0F+BQUFPTq1auBgQE9PT0QVX7jxg07OztHR0fw1gtu1D///BMnJiMjo9u3b+NwOFtbW0tLSz09PfCqsbKyYm5uvru7e4wY2Wy2ra3t9PT03t5eQ0NDrRTV1dUh4Yp9fX3e3t5eYvLw8AA8+E+X7nxxcVFbWxuDwezu7n73n1f6xGN4EEMgFApnZ2e1tbWtrKzA7I455Yx/Qn3jEoGjvnFRoV9pQJKI5jS49fV1HR0dAwODH3lvFdUT9Pf3LywsFG3fJJFI5ubmeDyeSCQ6i8nR0TE0NHRnZ6eiokJPT0/0kPL39/eTIn9/fxMTk5cvX3K5XCKRiLg9ORyOk5MTKO1sZGT04MGDpaUlgUAAVp2Pn2V3d7exsXFbW5t0GPPnz58DAwMdHR1BQUDQw/v372/evInBYJKSkkC82+bmJoVCMTQ0nJmZkb4KitnS0jgv/u3bt9evX/f19d3e3gZpZL51iwKQA1F+x4AE4u8RbS/GYrG3bt1C7kAYhgFmV1RUEIlENpv96tUrc3Pzp0+f2traghyxXV1d7u7uAoHg9evXIAgrNjaWSqUymUxkPXtvby8zMzM4OHh5eTk2NhbsymOxWKampmVlZUCS+/v7CwsLRkZGXC4XbHC4d++eg4MDFovF4XAEAkFUqI3P5zs4OHR3d/N4PKaYRPXOTUxMDtjZWVlZoaGha2IqLS11cnICvLRvvLe319HR8XiEY7PZwM6enJwEFdsiIiLCw8MjIiK0tLTAVuy9vT06nf7x48eioqLR0VEfH5+FhQUIgvr6+uh0uvR/H4vFwmKxGhoaPT09PB4PZCYA2XiOvJeAXhDtHNlGtNDOFVNxcfG1a9f8/PyOUfSRPcj6IIrZEgmjmC0/mA12qYL3bqFQuL+/v7y8PDMzMyWmiYn/5ScRZThhsVhra2tAcQc+19fXgT8cbDBF1AyeKWw2m8FgIKErSN4JpNlhhsvlIr475Fc+n9/e3t7b2yu9j2t3d3dycvLAcx+CoJWVlQPpI1DMRiR5jszu7i4ej1dQUDA0NPTx8QkNDQVAEn6IwsSEwMyh3/93ICwsLCQkJDw83NPT89GjRyoqKoGBgYgFCcNwU1OThYVFSEjImzdvEhMTHRwcJicnhUJhWVmZ6LVTKBQCOxs+isBiEARBXC43NjYWj8cHBweDCqQwDL9588bQ0NDBwQFZh15bWzMyMlpdXcXhcMPDw5aWlgCxZmZmiETizs7O+vo6BoMBS9QEMdnZ2d24ccPW1hbsdygvLxftYPTw8ACbvmAYfvv2rYeHBxjd8vIy4htPSEh49uzZUaOWHJPGbHt7e+l/KFNTU5Cpvq6uzt/fHxSY4XK5paWlycnJbW1tr1+/xuFwILwO6bGmpub69euampoEAoFMJgP4Dz+WwsLCjvk9LCwsKCjIysrqt99+++uvvz59+oRcS04YFLMligAPfTQGTSKRU+X+lZ19qleW385QzJYT3SwsLAQFBWlpaYGMLsrfJhBpL3q7/VYT0EBVVfXq1at///13fHw82MEFZvr+/Xtra+vo6GgikfjmzZva2tpVhYgHAAAgAElEQVS+vr4JMQ0PD/f09HA4nK6uLh0dHTKZHCAmkHM3UEyWlpbh4eEQBG1tbdXV1ZmZmVmJKSsr6+3btxgM5uPHjzQazd/ff3t7m8PhDA4OGhkZ1dXVBQUFrays3Lt3LyUl5enTpxQKxdraemdnp7u728bGhslkznyhvr4+Y2PjgYGBmZmZ2dnZzc3N2dlZEHwOplBXV+fu7s7lcvv6+vLz87FYrFAoZLFYjx8/PuBGOqxcBLMnJiZAxHuwmIKCgm7fvg3yuDk4OPzzzz9tbW329vZAMkNDQyQSqaSkpKWlxd3dXfr9mMfjvXr1Sl9fX11dXVlZ+Ri9AM2qqKiANkBNh5WopKSkoqJy8+ZN0RZz0b4VabP+8HTO5QiK2RKxo5gtV3Y2UIwoN1Zvb29wcDDymi9R2MXnUMyWHx3yeLzV1dXp6emxY+ndu3c3b97U09MbGBg4tuHY9PQ0g8GQ9hWDuqVNTU18Pr+/v59CoYgCr0Qg5OHh4ebm5urqKjKaGQzGyMhIZGRk7xfq+UK9vb15eXkvX77k8/n5+fmBgYGdnZ1sNntxcbGmpoZGo7179w6CoN3dXRqN1tfXNzAwYG1tnZycDNK2MBgMExOTCjE9e/bM3d19b2+vvb1dukgaKLxGIBCQ7HUwDI+OjhYVFSGaGh8fr6qq2tnZiYiIIJFIYH/E+/fvRe8K33UjczgcZ2fnubm5mZkZHA735s2bhi9kbm6+vLzM5/NbW1s5HA6DwQgKCnJwcHB2dnZycgK5jECWmMM4ur29DaLQx8bGRkdHv6WXoKAgJSWl/Pz8bzUAxycmJhYXF6V9AMjc5YFBMVuiBRSz5Qez9/f3BwcHExISdHV1QQKv3Nxciap+FQ5gdmpq6ncfdv9qxmDZ9fi9Xv+qQ7QxIoGtrS1zc3MnJydQNQ45/oOM9GorsjoOsqZIpyI/DEugf3CKKJkPcHFLX1T6FHAVpIAKeLKBdC5IP8gyzeF7D1kzQvo/3AaMQfq49ACQEw8zosV1MB5kAKDN4YsisQVHFqo53PN3j+Tm5mppaSGpiL/bXj4boJgt0QuK2eeO2QKBYHx8HNS0uH79OkDrS5cuKSgo5OTkSFT1q3D19fWqqqppaWnIU/VUZoZi9qmI8VudiEOUuN/6FT0utxIQCAQgjYzcjvBHBoZitkRKKGafI2avr6+XlJTgcDhNTU1kTRFkxlZWVv6FMfvq1atpaWmgcKTkXvw5DsXsn5MfejYqAfmVAIrZEt2gmH3GmC0UChkMxosXL5ydnTU1NVVUVABIg2zY0qUsFBUVsVhsVFRUZGQkKFMhXV1xe3s7Ojo68mtKT09HVMvn87Ozs8HpSKuYmBjpkPLq6uoDDaKiopB8UjAMDw4OUigU5PSIiIioqCjpVfaNjY2YmBikARhnbm6udAB5SkoK0iAyMpJIJCorK6enp0uveiLDPjGDYvaJRffdE9lsdmpqan5+vrRav3sW2kAeJNDR0REVFfUjm0TkYbTfGgOK2RLJoJh9xpg9OTkZEhKioaGBFKsAlRyRKorguJKS0v/93/9dunRJUVER+MmVlZW9vb0Rzc3Pz4MykQpfSFFR8c6dO0iDvb29hw8fgnO/NPlfAUqwtwSkUfPw8AD2PdJA9NLw6tUrpJPi4mJg8SOjUlVVJZPJSIOJiQlVVVXkdBCYqq+vLx3mCqpVIm3ATNPT039wLRC51vEMitnHy+dnft3Y2Pjrr7+ePHkitzFKPzO7X/tcKpWqqKjY1NR0oaeJYrZEfShmnzFmC4XCvb29kZGR8vJyLy8vLS0tAIcKCgoAoZFKz4qKiuHh4T1SJJ0KlMfjvXv3TurH/7GgGBfQrlAo/PTp04EGfX190lEwMzMzvb290m1EOSKQKr8gnhY06O7uRppJpzvlcDiHhzE8PCwdpzMwMICc29PTk5aWpqSklJaWhmK25P9QvjmA2SYmJihmy7eijhgdlUpVUFBAMfsI0cjoEJq7VEaCBd2eb+5SgUCws7PT398fHx9vZmamoaGhoqICMBt8/qoxaFevXgV2tjS0/6SiUTv7JwV4zOmgeoT0VqhjGqM/yZUE9vf319bWpN/U5Wp4PzgY1M6WCAq1s8/YzpaI/muOzWZPTU0VFRV5eHhoa2tfuXJFUVHx+EKZX3dwYb4he72ktwD9/OhRzP55GaI9oBKQTwmgmC3RC4rZcoLZiEp4PN7a2lp7e/vTp08HBgaQ478MU19ff/nyZeAbR+3sC6FWHo9XW1vb0tJyumGDF2LuF32QY2Nj5eXloOjZxZ0LitkS3aGYLW+YjegGqAb5+sswaB60C6dKJpP5999/m5qaSocWXrhZ/DcHTKPRVFVVm5ubL/T0UcyWqA/FbLnFbImSfi0OxewLp8+NjQ0tLS1jY2M0Bu3C6Y5KpSopKaExaGenODQGTaayPt8YNJlOTW47RzFbblXzrYGBSm59fX2nG+r/rcuhx09RAjMzMw0NDdKbQU6x8zPrCrWzJaJG7WzUzpbcDWfCAcxOSUk5xcVRkLaaz+ePjIxoamq6uLicyVTQi6ASQCVwFhJAMVsiZRSzUcyW3A1nwtXX1//2228As08rBg1UjxAIBCMjIzdu3HB3dz+TqfxXLiIQCEZHRycnJ09LX/8VwcnBPNfW1j5+/LizsyMHYzn5EFDMlsgOxWwUsyV3w5lw3d3dampq4eHhHA7ntHytYKOXQCDo6Oj4/fffg4ODz2Qq/5WLbG5uPnr0CIPBoDFoF07laWlpampqra2tF27k0gNGMVsiDRSzUcyW3A1nws3Pz9++fdvY2HhyclIgEAAT+Sf3aoMKhtvb23FxcVeuXPkl97WfiXKOvgiau/RouVyEo0lJSWgetDNVFBqDJlNxozFoMhXvkZ1DEBQbG6uqqqqvr+/v7x8TExMfHx8XFxcfH59wFMVJ0bfaxMbGRkRE2NjYqKmpPX78+KLvRj1Sbud4kM1mZ2dnFxcXozVCzlELJ7t0b29vYmKidNrjk/VzvmehdrZE/qidjdrZkrvhrDgmk5mUlHTv3r1r166BdK3K3yZFRUVQ9OzbTZRVVFRUVVVv3rxJJBI/fPhwVvNAr4NKAJXAWUgAxWyJlFHMRjFbcjecIcfn85eXl4eHhz98+PD+WDIxMbl27VpNTc3xLQcHB2dmZnZ3d89wEv+hS+3t7aGL2RdR3zweb2dn5xT3aJyLEFDMlogdxWwUsyV3g1xyfn5+BgYGSAlRuRzjLz6ora0tQ0NDAoHAZrN/8an+ctPLzs6+ceNGR0fHhZ4ZitkS9aGYjWK25G6QS257e3t9ff20IszlcoryPii0Fqe8a+jb46NSqcrKymgetG9L6LR/kf8YtANelyOLvh158GdExefzD1z3ZL2hMWgnkxt61n9KAru7u/7+/tHR0Vwu9z818V9gsjU1NXg8fmho6ELPBbWzJer7STubxWKFhYWxWCwYhiEI2tzc9PPzm5ubA92Cy+zs7AQGBoJN/QKBoLi4OD8/P09M5eXlIEvD1tZWrpieP3+em5sr/VlZWSkZ7heurKwsPT395zM8oJj9RaLy+5dOp6elpaHFm+VXQ+jI5FsCP/+cPPf5oZgtUcFPYnZ7e7u7u7tAIOjv7/fx8fH19dXT03N0dPT39w8LC2OIiU6nm5iYtLS09Pb2rqysPHjwgC6msrIyPT09sHtkZGTk/v37T58+TU5O9vPz09XVpdFoT58+jY6ONjAwAH5RgUBQWVkJ8J5Coejq6mZlZT1//jw/P7+2tvZkvlMUsyW3grxyOBxOXV19ampKXgeIjguVACoB2UoAxWyJfH8Gs7lcbnh4eHV19dDQUE5ODolEeiemvr6+9vZ2GxubmZmZ7u5uExMTXV1dLy8vEonU399/7949ipjCw8P19PSA23xoaAiLxYL0Gm1tbQ4ODiDbxurqqp6eHnCD7+/vm5iYREREJCUlJSYmxsXFJYkpMDAQi8WezGuHYrbkVpBXjkAg/PHHHzMzM/I6wF9/XCwWy9nZOTAwkMPh/Pqz/bVmWFZWZmZmdtE3QKKYLbkrfwaz+/v7iURia2srgUBISUkhEAjl5eVlYiosLLSyspqenhYIBKGhoYWFhSUlJUKhcHJysrS0tKioqKCgoLCwsKysDMQDf/r06f79+5liIpPJurq6aWlpmZmZ8fHx+vr6ALP39vYwGMzCwgIYM/I5ODhoZ2d3sqcJitmSW0FeuaWlpampqVMPiZDX6crjuEAtzidPnqC1OOVRPceOKSkpCa3FeayETvtHeY5Be/HiBQ6HMzY2TkxMLC8vt7a2fvbsWbaYsrKy8vLytre3mUymvb19W1sbFouFIOj58+cPHz4MCAgICQnx8PAwNDSsqamBYXhoaOjhw4d5eXn5+fmhoaEGBgbA6Z2SkvLw4UMEs01NTWtra/u/ptLSUmtraxSzT/vWQ/tDJfD/JLC9vW1ra+vp6Xmy/zJUjucogcLCQj09vXfv3p3jGH7+0qidLZHhz9jZ+/v7fX199vb2a2trRUVF9vb2MTExFAolOjqaQqHQaLT19fWpqam7d+9aW1vfuHGDRCKNjIwYGBiUlJS8evUqNTXV3t4erGcD3zgYVkdHh2hFHMRNrK2tIb7xvb09fX19PB7v+jURicSwsLCTZVVE7WzJrSCvXH9/f2NjI5rQ4xz1A0EQi8W66LWhzlGA53hpDoezubl5ssfjOQ77wKVRzJYI5Gcwm8lk+vr6xsbGVlZWJiYm6urqRkdHOzg4REZGhoSEEInEiYkJPp8/MTHR1NRkYmIyOTnJYrEeP36cnJyckZERFhbm4OAAhtLf3//gwQMqlUqj0by9vR8+fEij0ahUalRU1KNHj4CdzWKxTE1NGQyG4BCdLAANhmEUsyW3grxyeDxeQ0NjenpaXgeIjguVACoB2UoAxWyJfH8Gszs7O83NzaOiokpLS319ffF4fGJiIpFIjI2NjYyMdHFxGRsb4/P5DAajublZT08vJydncHBQX18/Li6OSqUGBAQ4OjqCodDpdAwGUyGmmJgYQ0PD8vLyioqK3NxcXV1dgNnz8/OWlpYnizWTTPhrDsXsr+Uhj99wONzvv/+Oxo2fo2729/cTExOzs7PRqIJz1MLJLt3a2hoUFDQxMXGy0+XkLBSzJYr4GczmcDgbGxtra2t9fX1EIjEwMNDR0fHJkyd4PB6Hw1lYWIyNjTU3NxMIBGtr67t37+bn58/NzT158qSurq6lpSU7O9vS0hLYTwkJCc+ePQPDam9vP9I3/urVq9DQ0NPda4hituRWkFeut7e3trYWjX46R/2AGDQTExNUC+eohZNdmkqlojFoJxPdCc+S5xi08fHxqKgoIpHo6+vr5+dHo9FevXoVEhJSVFSUn58fEBAwNjbGYrEWFhY+fPiAwWD29vaKioru37/v5+fn4uKCwWDu3btXUFCwt7dnZGSE7Ebo6OggEolCoXBzc7O/v9/IyEgoFAoEAgcHh7a2thPK8RunoZj9DcGgh1EJSCSwubmpr69va2uLRhVIhHJBuIyMDE1Nzfb29gsy3qOHidrZErn8jJ396dOn0tLS6enphISE5ubm9PT06urqxMTEmpqa2NhYIpGI1HWYnJy0s7Njs9l0Or2mpqanp2dqaqq1tRXY02NjY15eXsABDsPwx48fKRSKqEATmUy2tbVNTk6GYXh4eNjJyel0HePoerbkPpBjbn5+fmxsDPXKnqOKhELh3Nzc0tLS6Xq5znFG/51Lb25uTk5OXvSXLRSzJXfsz2A20sva2hqHw5menv4spu3t7fHx8YGBAQSG9/b2ent7kfaAYbFY/f39MAzz+fyNjQ3kVz6fL8pvDEHQ8vLy4uIi2F6yv78/Pz+PtDktBrWzT0uSsuvH3d393r17c3NzsrsE2jMqAVQC8iwBFLMl2jkVzJZ0d9E4FLPlX2N2dnYaGhpoDNo5aorL5VZXVzc1NSFv4ec4GPTS/0oCIyMjxcXFq6ur/+oseWuMYrZEIyhmo7U4JXeDXHKlpaVJSUlMJlMuR/efGBSIQTM2NkZj0C6cvqlUqoKCAlqL8+wUJ88xaGcnBZldCbWzZSZatONfRwKgfjaK2RdRo0lJSYqKiihmn53uUMw+mazfvXsXFBT0+vXr6enpY+IvUMw+mXjP8qzd3d2tra0Tp805y6H+qtfi8/l9fX2Dg4OoFi6cihcXF9va2i56KVvUNy658X5V33hpaamqmG7fvo3D4dLS0np6ehgMxoGHDorZkltBXrmAgABjY+PFxUV5HSA6LlQC5yCBnZ2dxcXFycnJiR+g8S/0rbaTk5PLy8vHmDfnMEOpS6KYLRHGr4rZxcXFysrKly5dUhTT5cuXNTU1jYyMAgICqqqqZmZmQDTNRcFsNps9NDR0eKfN/v7+yTZBsVis2dlZyX3wNSf938tkMjc3N7/+XfKNy+VOTU3JNDTJzs4OzYMmkfh5cAKBYHBwcGxs7MAr73mMBb3m/zbaNDY24nC4R48e/fnnn7e+Rzel6Fttb968+ejRI3d39/fv3x9+zpy70FHMlqhAGrNDQkJe/yoUGBioJCYFBYVLYgLgraSkdPny5b/++svOzi4tLY1MJisoKLx69UpGt+n6+rqOjo6BgcGROfq3trZiYmJARho/Pz8fHx8PDw8/Kers7OTz+VNTU52dnVZWVq2traOjo6urq/39/VVVVVQqlUgkgmwJu7u7ERERJBLJR0ygWrmvmMhkMmKkCgQCnpiGhoasrKz29vbAV2ngF229c3BwGBoaAuXMa2pqYmJiAI88srlcbm9vb2tr6/Pnzy0sLBobG9vEJIsUiQkJCY6OjisrK5K7FuXOVgJMJvPhw4eWlpZya4edrTzO+Wr19fW3bt26ceOGhYWFk5OTs7Ozk5MTkUh0/gYRpejIJo6Ojng8/smTJ2pqag8ePBgZGTnnGR66PIrZEpFIY7byN0hRURHg3wX6VBCToqKiCJIBWiMMMh0FBQUlJSVFRcWysjIEjSSiOQ3ueMzmcrnv3r17+/ZtrZiSk5NNTU3fiKm2trapqWl1dXV9fT08PNzFxcXBwcHFxcXZ2bm0tNTKyioyMrK4uHhwcBCE8m5sbBgaGlZXVzc0NNDp9Lt371ZXVzc2NtbW1pqbm3/69AmGYaFQWFxcHBAQEBoaGhQUdOfOHRKJFBoaGiImZIv8p0+fTE1Ny8rKaDRaUlJSRETEgwcPEhMTQQUXAP/Ly8umpqbBwcFhYWHBwcGRYnJ2dg4MDPxBSW5ubjY1NeXl5aWcBqWmpmZlZdHp9KmpqR8cwGmo98L3sbCw8Pr162fPnqWkpKSmpn5LFfHx8RoaGrdv36ZSqd9qA3rIy8urq6tjMBgXXjTyOoHd3V0cDqepqVldXc1isQQCAfI+DR7mJ/jkcDg8Hm9jYyMzM/Pq1athYWEysmFOLFQUsyWik8ZsV1fXtKMoNTU1/aKRi4sLwGNpqEbA+/Llyzo6OoGBgU5OTmCvl4zu0eMxG4ZhkduZTCb7+PiQyWQCgXD37l0ymRwQEODp6VlbWwvDMARB3d3d0dHRLBarqakpLi5uZWUFj8cjpjPQ5cbGhrGxMaiWyGQy9fX1RYnkYBje398nEAgAs/l8vq+vb3x8fE1NTXV1dc0Xev36tY6ODnCVC4XCkJCQ5OTkjo6OkpKS4uLioqIiwBQXF5eVlYHH8dLSkqGhYXx8/FMxJYvJy8vL39//RyBzcnLS3t5eTU1NWVlZRUVFWVkZqObIT+k3ySMbKCoqKisrKykpXbt2TUdHp7y8XEbalPzb/BJcfX29gYHBb7/9pqysfPjfBBE18qauqKiooqKCHD/AADWpqKioqamJ0hJf9ILNcqvh5eXl+/fvm5qabm1tCQQCCIIQzP5JhsvlTk9P37lzx8rK6kf+i89SRChmS6QtjdkVFRWSHy44V1JSAjAbebIAr7iWlpabm1t1dfXy8jKfzy8sLBQ97isrK2X0lP8uZq+srNjY2LS3t4PUB9bW1qIS48PDw1FRURkZGTAMb29vl5eXP3nypLy83NvbOyQkpKury9raury8/J9//mlqauru7oYgaGNjQ0dHh0gkurq6Ojk5aWpqAp5IJGprayOY7ePjc3jXB5/PNzExAZjd3d0tglI6nQ7DcGlpqYeHh7uY3NzcPD09kVR0S0tL5ubmFRUVAPffvHkDEtaSyeTv/rfzeDwXFxc1NTU3N7eKioqGhoZ//vmnpaWl+dt0/K/Nzc1NTU1v3ryJjY3V0tL666+/xsbGLvj9K/PhLy4u6unpaWpqRkZGVlVV/fPPP98W///75R8xfasZUGJFRUVQUNC1a9fs7OzQLfWy0OL09PTNmzcJBAKPxxN+IYDcJ7CwwSl8MQmFwvX1dX19/UePHh25lieL6fxgnyhmSwT1y2O2goKCiorKX3/95eDgUFBQMDs7Kx0wBWLQKisrJRI5Ve5HMNvIyMjDw8Pf39/BweHOnTtkMZmZmQHMXl5eptFoFApFV1fXxcUlNja2rKzMzMzM3d0dh8Pdu3cvJiYGJH81MjLq6ur68OFDW1vb/fv3Ad/T02NlZSWN2QEBAbm5uTk5Oblf6NmzZ8DOhiDI1tZWX18fCGRkZAQ46sFnXV3d9vY2EM/S0pK+vr6vr29gYGDAF7K3t/8RO3tiYuLGjRt2dnYbGxtCoRB50HxL8EgDwBzZDFSR4XK5z58//+2330SRCkc2Qw8iEigrK7t8+XJSUhKHw0Ge+MivBxikwbdebaV1tLe35+3traamdtHrUhwQgpx8nZqa+uOPP4hEIoBVacn/zAiByb6xsfH48eMHDx6gmH1yYaL7s08mu5KSEmVlZU1NTUtLy4yMjE+fPh0ZPnPuceMrKyvW1tadnZ3j4+MlJSV2dnbj4+NjY2MUCgVgNp/PHxwc7OzstLGxyc7Ofvfu3cTEhKi86dLSUmdnp7OzM5DPxsaGqAoqg8Fgs9nLy8t6enrr6+tsNpvJZNrb2yOY7eHhQSKRkpOTaTRa8hei0WiZmZksFguCoPLy8sDAwKqqKmBnu4vJTUxeXl5I0m9gZ79+/Vra6kpMTPwRzG5vb//tt9/i4uL4fP63MODfKh1gtlAo7O7uVldX9/f3/7c9/NfaU6lUVVXV5ubm7/pF/q1kIAjKy8tTVVX9lfx2/1YIsmuPYLa07fHzlwPYD8JiUMz+KXmimH0y8bW3tycmJvb19W1vbx8DDOeO2Wtra1gs1s3NzcfHx8rK6t69eyQxWVlZvXz5EoZhFosVGxvr6el57949a2trHx+fmpoaAoGwtrYmjdlLS0uPHj0iEokuLi5EIlFTU9PJycnNzc3FxeXBgwcAs0VhJg4ODoD/llQhCAoJCaHT6RAEvX//vqmpqaGhob6+vqGhobGxEQne3tjY8PT0dHFx8fDwABfy9PR0dnbOyMg4Rtrgoo2Njaqqqunp6eDV/lsj+VfHv/gIhUNDQxoaGi4uLjwe70CizbW1tc+fP3+rWy6XOzo6yuVygfWPNOPz+dxvE2KOCASCjx8/stls5EQQ9Lezs4M4J47p6jBwCgSCoaEhpH/pbmEYZjKZSAbp75bPGR4ePjAwGIYpFIqCgsKHDx8OX/rAtf7tV4FAQKfT/+///q+oqOjfnou2/64EUMz+rojOuQGK2TJVwLljtkAgaGhoEC3EdnV1OTs702g0kPRgcnISSV306dOn4uJiDw+P7OzsgoKCoaEhV1fX3d1dacweGBjAYrFDQ0MTExN9fX2PHj36+PHjxMTE4OCgjY0NwOmNjQ0MBoM8678l2JCQkKqqKi6Xi8FgiEQiiUTy9vYmkUgGBgb5+fngrObm5s+fP2dnZ+/u7sbGxoKibbu7uy9fvjyAlIevUl9ff+XKlbS0tFM0FICPncfjjYyMaGpquri49Pf3+/n5jY+Pz87OVlRUFBcXe3l5ubq6FhcXl5SUjI6OHhjY7OyslZXVzMxMYGAgnU4HYxMKhVlZWT4+PuBFytvb29HREdlQ5+Pjk5eXB0HQ+Ph4a2srFot99uxZT0/PxMTE+/fvi4uLnz596uTk9Pz5cxBLmJaWBsICvLy8nJyc3N3dvcXk4uKCuJEFAsGemDY2NszNzXt7e8HXvb09aXCNj4/PyckBy5Cjo6MODg67u7vgK/LO1NnZWVVVVVpa+vfff+fn51eJqaWlBbwHUCgUZWXlgYEBMDbkrANiOcFXCILodLqiomJhYeEJTkdPOV4CKGYfL5/z/xXFbJnq4NwxG4bhlZWV6OhoIpGor69/ONpWIBBQqdScnBxPT8+SkhInJ6eSkhISiQRBkDRmi/yQZDIZPHkPxI3jcDiA2X19fY6OjqC26TFSRTDbzs5ucnISaUmj0QD8iPKxWFhYTE5O6urqgiqrJBJpaWmpvLzcz88vJydHGl2Q0xEGYHZ6evrxzZD2P8hAEMTn80dGRtTV1V1dXdlstugFwt3dvbe3NycnJyUlhUAg4HC4lJSUtLS0T58+QRD0+fPnhS/U3d1tYmIyPDz89u1bGxub/v5+YB9PTU21t7c3iamiokJbW/vt27eNjY1NTU1tbW0gOU9OTg5YdPD29nZzc8vNzRUpyN/fv6Ki4sOHD6AfgUDg4uKSnZ3d1dXV3t5uYmKSn5/f1dXV2dnp4uKCwFtnZ6ebmxt4RTA0NMRgMOL99j5ubm4AX2EYZrPZRkZGL1++jIiICAsLCwkJ0dbWDgwMDBdTa2srkJitrS3YApCUlJQspri4OHNzc7C5ICoqSlFR8f3796eO2TAMv3r1SklJCZkUGA/6eSoSQDH7VMQow05QzJahcGH4fDGbz+d//vx5aGiIRqPp6upisVgikRgfH9/a2joyMjI/P7+1tTU3NwcynLi7uzc3N4t2W+Hx+FevXsEwjGD27u6uq6srCPYGjlN9ff2dnZ25ubmenh5TU9PJyUmBQBAeHp6Xl85TQAwAACAASURBVPddeYaGhgI728rKKjw8nPaFsFhsbm4uDMNFRUUBAQE7Ozs6Ojrj4+MLCwt9fX3FxcW+vr5RUVF3797t6OjY39//lukmO8wWCoWjo6MaGhqurq4QBPF4vMHBwfX19adPn3p5eRkbGxsaGnp7e4eFhYGF//DwcHt7exwOZ2dnZ2lpqampaWNjg8PhzM3N7ezsSktLYRjmcrlxcXFOTk6enp4ODg5//vmn6IXA09PTyckpJiYGCHNlZcXf339hYWF2dtbb23ttbc3f37+xsVFa1AKBwNXV9Z9//uFyubu7u7a2tt3d3Vwul8PhhIeHFxQUgMaFhYWurq4dh8jGxgbs/YNhuLy8nEAgTE9P19XVVX0hOp1eVVVVW1s7PT0NurK2tvbz84uXovDwcBMTExaLBXzjSkpKHz58AI1P97OyshLF7NMVKdIbitmIKOSUQTFbpoo5X8yemJgAT/+4uLhPnz7x+fzp6enCwkISieTs7Ozo6JiUlASyXuTn59vb209OTu7u7sbHxwPTra+vLyAgAIA0jUYD9hPYk52UlLS3t5eVlUUkElNTUwFO+Pn5/cj2m8TExIaGBh6P5+bmlpqaWvCFSCRSeXk5DMMtLS0zMzMwDMfGxhKJRLAfDI/HNzc3GxgYKCkpqaurW1hYJCcnt7W1ra6ucrlcaSXKGrP/+OMPIyOjzMzMlJSUqampgYGBioqK0tJSEonk5uZWWlpaXl7e2dkpEAhEUf0fP37c3NxksVhDQ0PGxsZjY2Mgq2t1dTUIWtzf3/f29i4pKZmcnOzu7tbV1R0ZGZmamiorK3NxcYHh/yWSrKmpsba2jomJoVAolpaWjY2NXl5ekZGRFRUV5eXldDp9c3MT2NmWlpZgMx7YBQuS5Dx69AgxSYuKiigUirS4AO/l5QUwe35+Xltb29/fH4KggYEBECTo4eHh5ubm6ura3NyMnGttbZ2VlVUrpjdv3tTW1opmgWI2Ip8LyqCYLe+KQzFbpho6X8zm8/mrq6tHLgBzOBwGg4HkJltbW1taWgLOZMS5zWazkaCwI4OVQKZSRIAIqCNHjmQYDAbIx7K6uirdLcA26VOEQuHW1tammMApBgYGyIZ4RUVFNTW1hw8f+vn5lZSUjI+Pg5nKGrPV1dVNTU1fvHhhZmZWW1vb0tKSlJQUGxsbExMTGxsbFxeXkJBQXV0tEAgWFhbc3d3r6+shCALZJNLT0xkMRkhISFJSEljS3t/fB9vq/Pz8XF1db9265e3t7evri8PhnJycYBjm8XilpaVpaWl4PB5Uo6moqAAReaGhobdu3UpMTFxeXhYtVLu7uxcVFY2Ojn769MnS0vLVq1djY2Ojo6MkEgmxs4uKiszMzJK+UGJiYlJSEpVKNTAwqKurg2E4IiICg8EEBQVBELS6ulpbWwvS44BP6Rzy1tbWzs7OQUFBohc7kKgHOBtQO1v6Hr5wPIrZ8q4yFLNlqiGZYjYEQWB/tra2dk9PT98h6u/vlz72ra8Hjkuf8i0eOQVhvtXy8PEfPOXIZvfu3QNZY5WUlKRTa125cuXmzZs2NjY0Go1KpV65ciU1NZXP55/ikjbYQzw6Oqqpqenm5gbDcEBAQH19PZfLjYyMJBKJXmJydXX19fUF8X0QBPX09Njb2w8ODj579uzOnTv29vZOTk6xsbHI+42oCgtwMMzMzPT29hoYGExMTMzMzLx69QrY2TAMj4+Pd3R0BAQE+Pj4dHR0TExM+Pn5NTU1bWxsGBgYgBtYIBC4ubm9ffuWxWJtbGzY2Ni0trayWKzt7e2QkBDEzs7Ly7Ozs3vx4kX+1/TixYuFhQXg5CgrKwsMDIQg6MOHD66urtIZpKUT5tjZ2RUWFraLqaOjo729vaamxsLCAsFsZWXl/v5+MLzT/UR946crT+neUMyWloY88ihmy1QrssZsBoOho6ODpHVUOUQgeeehwxf1gJKSkoqKCkjkDnJegpTv0tkxQb21sLAw4OE/Lf1+C7PZbLazs3NmZmZdXV1tbe3Lly/t7e3X1taQ6/b39yckJODxeGNj4/Lycjs7O2RJGIZhDocjWv/G4/Genp54PP7PP/90c3Pz8vLC4/HBwcEggKugoMDHx8dYTCBU0N3dva+vb2NjQ19fH1xIFLuAw+GsrKwAymppaQHexcVF2jdOpVJB0AAyvMNMTU1NQEAABEGjo6MgA11NTQ3Ie4PEqcEwLFofcXd39/T0BOsXIP4/IiIC+PwpFIqioiK6nn1YvHJ+BMVsOVcQjGK2TDUka8xeX19/9OjR77//7u/vH/gNCgoKCv5V6MaNGwhIgzTg4H0FOMzV1NQMDAwsLS0vX76ckpLC4/G+Fad2AqUfidnV1dXz8/OOjo6BgYEgli48PNzGxgbBbBaLlZubGxAQ0NXVZWVlxWAw0tPTSSQSsugAw/Dw8HBwcHBjY2NCQoKXl9fMzMysmJBKGOvr62lpaVQqNSoqikqlrojz0S4tLW1sbOjp6YG57O/vW1patre3z87OTk1NWVlZVVdXz87OiiLPfX19ETvb09OzpaXl+OkjmB0REYHH4yMiIsLF5OLi4u7uDlwXXV1dw8PDxcXFExMThYWFubm5XC5XIBAUFhaOj4/DMBwdHa2oqCiN8cdf9F/9emI7+xTvh3814AvUGMVseVcWitky1ZCsMZvBYOjq6urp6UkvDMt0RufbuZ6eHuISR6xtFRWVu3fv+vr6vn37dm1tTRTtrKKikpqaCjZVn9aAD2M2mUx2dHR8+vQpgUBwc3MLFROJRMJgMKLQbrCv2tfX19/ff3l5WYTEFhYW29vbe3t7VCqVQCAMDAwACGGz2WVlZVgsVk9PLy8vT7puKRh8Y2MjiURKS0tLTEwMCgoqKCgwNTUFCWURzJ6dnX3y5AmwcXk8np2dHfBLQxAUEREB0o/s7OwYGRmtr68fLxMEs0NDQ0GqfEhMHR0dXl5eQqGQz+c7Ojp2d3d7eHi0tLSsr6/7+voODQ1lZWXl5+eLIhy3t7ejo6NBTpXjr3WyXw9gNoPBmBHT9FG0vLwMrsLj8V6+fDk8PAzEDkGQQCDY3t4eGhoCstrf35+dnf38+TOdTmexWNPT0zwer6qqCnl5Av3s7e29ePEChuHd3d3Z2Vnpa87NzSH/iUBoIHdQUVER8hV5b+BwONLnSvNLS0uHJfP27duurq7Dx8FIysvLQcwHBEFlZWVHalkops7Ozrdv34KVo8OLRyhmHylhOTqIYrZMlSFrzAbr2fr6+siTQqbTOffOdXV1kdIsly9f1tLScnZ2rqysXFlZQZ4+IAYtLS0NOXIqwz6A2aASiZ+f3/z8vKgkSX19/fz8/MTExOvXr/F4PEjsGhYWlpWVxWKxVlZWRBawhYUFeKpyudyXL18mJiZyOJzFxcW+vr7nz5+bmZk5OjoSCAQ/P7+ioqK2traPHz/Oz8/v7u56enrW1dUlJiampqaKqqO6u7vHx8fDMIzY2UKhMCEhITo6GsyUz+fj8fj3798vLi62tbXZ2tqC+LLCwsIfybqKYHZYWBjYchYjJncxCYXCd+/eOTo6bm9ve3p65ufnj4yM9Pf3NzQ0YLFYEbyRyeSGhoaoqKgzw+zc3FwCgeAgJjwer62tbW1tDb4SCITo6GihUNjS0pKammpvb08gEFJTU8vLyysqKsCWBHt7+9zcXFEy/JWVFR8fn87OTnd39+Li4oyMjK2tLVtb24mJif39fTabDeB2bW3NyMgIhuGqqip9fX1HR0fkWgYGBqDOTX9/f3p6eqaYoqOjtbS00tLSwNfMzMzh4WEY/p+P8969e3Z2dvb29k+ePHn48CHYFmglJnD3CoXCmZkZEEuYm5sLciGAryD+AGi8ra2NQCBMTU0ti8nPzy87Oxvw4PURXI5MJgcGBpqZmYEwQ1FlWz8/vwPrFyhmn8rjQoadoJgtQ+Ge9/5smU7tXDrX09NTUVHR1NTE4XDPnz+fmJg4/LIi67hxDQ0NNzc3EF+2s7PD5XKjo6NBpS9RelFPT8+UlBSw/YzFYgmFwu3tbQqF4uzsTKVSEaFBEMTlcvf29iIiItzd3WNjY/v6+ng8HpPJbGlpiYuL8/f39/DwCAoKWl5efvXqVXt7u62tbXNzs0AgEIWsgxXx7e1tOzs7GIYFAkFOTg7ibxcKhSUlJYuLix0dHSQSKTo6GmTYjYuLk05igwzmAAMi4WEYTk1NjY+Pp3+htLS0yMjInZ0dCoWSnZ3NYDBqa2s9PT19fHx8fX09PDxevnwJQdDa2tr6+jqSu/RA56fytfLr/dkCgWB0dLRRTFVVVUZGRgUFBeBrf38/h8MRCoUdHR1kMjkvLy8/Px+ko4mOjk5MTJyfn0cqBczNzcXHxyclJVlYWERGRtbU1IyNjenq6np7e3t5eQUGBoIkOZWVlffv3+/s7Hz58mVQUNDiF5qamrK2tp6ZmREKhTQaDYfDZWRkpKenBwUFhYeHAz5DTENDQzAMd3d34/H4PTFVVVW5uroCfnp6WlQgB2wr2N7exmAwjo6ORCLR0dHR0tIS5A+2sbERpdkBLhmhUBgUFCSqW0Mmk11cXJycnGxtbTEYjLOzM5FIDAkJAW+KdDrd2dm5trb2rRQRiUSQ/B/RC4rZiCjklEExW6aKkamdDcMwsLMNDAwOQ5dM53Venfv7+6ekpIj2DR+5gQ2MStaYDXKXSktge3sbyF/kNGYymYed21tbW0wm80gdAW+5dG+AF8WB7+7ubm1tAduOzWZ//vwZPMeRfgBAIu0PdwJytyHHD2cFR36SZjgcDgjf29nZQTb+gV1n29vbnz9/VldXv379+uPHj8lkcnl5+djYGJPJ3NvbQ7y+SL7xM1vPplAowCUQERFx9+7dwMDA2NhYX19fZ2dncKvs7u76+fn19/fPzMy4uLgwGIzExMSCggLEZQ3D8Lt374KDg7W1tW/fvu3j45ORkVFVVUUgEFpaWjw8PFJSUvb399va2jw8PG7evBkbG5uRkaGtre3g4IDD4YyNjfF4vKmp6eLiolAofCqm2dnZ8fFxb2/vvLw8kDN4YmJifn4eCKq7uxuDwYyPj09MTDx//pxAIIA2nZ2dCGYzmUwMBgMkzJQi0ZIEgUAAr4YfP37U0dEZGRlhMBi9vb1tbW3t7e3gs7e3F7Gz6XS6gYGBp6en9xfy8PDQ19dHMVu0BwStxSl5AoB/iZKSElHo0H+wDg+K2ZJb4TQ4AFrH93QGmO3q6nr8GH7hX1dWVq5cuaKgoABi9ZWVlW/duoXD4bKzs9+/f4+8mpylnQ3DcFhYWGJi4rt371paWkxMTKqqqt69e1dUVCQqMLO7u8vhcDIzMy0sLMzNzS0tLY2MjCgUSlhYmLGxsbu7O4FA8PDw+PTp0/r6elJSUkREhJGRkbe3d0NDQ0REhLW1NYvFCgoK6uvrA2H8KysrRkZGwJkREhKyvr4O0BckPADrxE+fPqVSqSEhITY2Nn/99Rewkl3FRKFQwJtQd3f3n3/+iRfT48ePtbS0AI/FYg0NDcGtzmQysVjs1NQU62sCznDgqsHj8Xfu3Jmenubz+aLtEsC8JhKJTk5OkZGRiBeBTqeL3jZaW1s7pMjFxQXFbBSzv3peoZitpKSEZP38SjSn8eW/Zmf/iMzOALONjIzy8vKeP3+eJybASH8ix5+LCWmMnAIagOPIiciv4Czpc5EjSM8IA84C0VXDsqe2trYrV66AqALwCYIBFRUVf//998ePH4eFhVVUVLi7u1+6dOnDhw/A1heKC5n/iPp+pE3l175xGIaDg4NtbW3DwsICAwPv3LlDIpEiIiLc3Nzs7OxEFrZQKJydnf348WNqaqqzs/PAwMD4+DjIK9fU1PTkyZM3b94wmcyKioq0tLT379+LkrBOTk7W1dXZ29vb2tqOjo56eXkhywpra2u6urptbW3p6elGRkaiPLuurq5aWloBAQHBwcE9PT1CoZBKpWZkZPD5/Pj4+KysrO3t7ZiYGOCjRibY3d3t4OAAvtbV1Xl6egJ+eXnZwMAAwWwdHR0bGxtRkAThC+HxeCwWC4rL9fT0BAQEiF5HgE+eTqdL3zZVVVWI14dOp5ubm0dFRcXGxkZHR4Ppg/cbZEgwDKO+cWlpyCOP+sZlqhXUzpapeI/sXNaYra6urqysDLacKcoBIZD5h+zpxo0byPQvXbqk9DUBYSgpKV25cuXq1avKysqFhYWbm5tI9fEj9XWCg4cxOywsLDk5GVSCNzU1ra+vHxwcrKioIBKJu7u7EATV1dVFRESIYrj09PTCwsJevnwZFxcnMsQ3Nzft7OxA4NjCwsLAwACFQsnKyhoaGhodHe3s7MzMzIyPjxetIoNcMaOjo7GxsX/88UdCQgKNRqNQKP39/XQ63djYuL+//8OHD6DWanR0NHiLun//fkFBQUlJycOHDysqKurq6sBiNgzDXV1d5ubm78SUmppqY2MD+NraWsTOZjAYFhYWHz58mDpEIHxhe3sb1Nudnp4WCoXl5eXZ2dnPvlBFRQWS2beqqsra2jo5Ofnp06fJyckpKSnJyckYDKampkZaBShmS0tDHnkUs2WqFRSzZSreIzs/A8w2NjYulRsCZUDt7e2BZ1Wmn/b29lgsFuyJl8ZsBK2VlZWvXbv28OHD27dvKykpdXV1AV/xKdYyh2H4MGYXFxcTCAQSiQQcxe7u7j4+Pt7e3iAZPsglV1xcHBkZaW9vn5+f393dHRIS0tDQgGA2BEH19fW2trZ///23u7s7BoPx9vYGdqeenh4I1IcgqLq6OjExURSYBmIPX79+nZ+fT6PR9PX1CwoK6urq+Hy+QCDw8/Orra2dn58PDw+PiooKDg7W0tIKDQ2Njo5GMBLEspFIJB8fHwwG8+DBA29vbx8fH1dXV8TOBiVcpaMKDt/zbDbb2tp6enp6bW3Nz88PbC/0F5OouisoAQBB0NTUVGVlZUFBQXFxcVJSUmVlZXV1dUVFBdhPj3SLYjYiCjllUMyWqWJQzJapeI/sXNaYfTgG7chh/KoHV1ZWfvvtN2RzPGJpX7169e+///by8qqpqWEwGGB/9vv37wViAqb2acnkMGYzmczw8PD8/PyMjAxfX1/EIYxccWVlxcPD48WLFyDKva+vz83NbWhoaHNzU5Q/DtjZAoEgMTExJiZmcXERqZz2+fNnIyOj7OxsJMIO7PXa29tzdnZub2/X1tYGpm18fLyNjc3Ozo4oYBCHw7W2tvZ/ocbGRn19/ebm5r6+vv7+frD9mkqlpqengxHW1dW5u7sDfnl5+fHjx8A3/ubNGzKZfPyuRTabjcVip6enJyYmzMzMGhsb28TU3t6uq6sLtoTNz89HR0e3trZSKJT5+XlQxG9/f7+lpSU8PByk2gVXRzEbuWfklEExW6aKQTFbpuI9snNZYzaoxXnkpf8LB1dWVq5fv44Y1qqqqjdv3gRl16UzioD62R8+fBCKCQG8UxHRYcyGYXhiYoJAINy6dSsoKGhycvJAkHxlZWVAQACdTg8ODn7x4kVAQICDgwODwTiA2bW1tTgczsDAQLTremNjg81mJyYmkkgkBweHwcFBMHiA2RMTE46OjpOTk2ZmZmCPlii629HRcWdnZ2FhwcrKqq6uzk9MYCPcrVu3PD09/f39/fz83rx5w+VysVhsZ2cn6PPt27ceHh6An5+fR+xsHx+fAzFihwWI2NmTk5N2dnaLi4sbX8jY2Bhg9rNnz+Li4pqamry8vHg83sDAAJ1Of/nypah4DJlMfv78OaIgFLMPS1i+jqCYLVN9oJgtU/Ee2bmsMVtTU/M/Hjd+9epVsEve0tIyJydnamrqsF1LoVDOpn62QCDo7u7OyMgADm3gqcbhcEQiMSIiIjMz8/Xr16JUaCDTS3Jycnh4OIvFio2NpdFoEAQBzF5YWAAJy0JDQ3E4XFZWlij5DJlMTkpK8vDwYDKZ9fX1OBxuampqZWUlPz/f3Ny8oKAgOTl5dXX11q1boq3VIP5clON9Z2entrbWy8uLz+fzvtDy8rKZmdna2ho4IBQKBwYGsFgsEtTd1NTk5+fHYrGSk5NFwWUkEgmCoJmZGTMzM2kj+MgbHmD2zMzM1NTUvXv3bG1tQZ4WHA5369atxcVF0aZBIpE4Pj7e399vYWGRn59fWFiYl5eHwWCamppmZ2cjIyORzZMoZh8pZDk6iGK2TJWBYrZMxXtk5yhmHymW0zq4vr6OxWITEhI+fvx4GKqRq5wZZvN4vPz8/PT09I6ODhAmBsMwm80eGBh48+ZNdnZ2UlLSysrK8vKyKO8NmUwGaUpHRkZATtP9/f2MjAwmkwlBUEtLS01NDcBIoVC4sLDQ3NwM6tVCENTV1TUrzt+emJgo2kI9NDQ0Pz+/s7NDo9HmxTQ0NATyrs/Ozn769AkRBQzDOzs7qampCEKDmvRIMBoMw5ubm+DV5+3bt9XV1SBb6vz8fGtrq3Q/R/J8Pj8jI2N9fX1tbS0rK2tlZWX9C9FotM3NTRiGGQyGUChks9m1tbVZWVkZGRlZWVnV1dVgpVza945i9pFClqODKGbLVBkoZstUvEd2jmL2kWI5rYNCoRCBxmP6PDPMPmYM6E8nkACK2ScQ2pmegmK2TMWNYrZMxXtk5yhmHymWMz6IYvYZC/y7lxMKhUtLSzs7O8cnJkIx+7uSPOcGKGbLVAEoZstUvEd2jmL2kWI544MoZp+xwL97uc+fP+vq6pqamsbFxbW0tKysrCBbt6XPnZqaunHjhrOzs7TDXLrByXhITBsbG4aGhg8ePEDy756st1M/C81dKhEpUBWau1QikVPl0Dxoh8UpP5iNxOIeHuQvfwTFbHlT8fLysqamJtibd+XKlXv37nl6ehYUFIyPjyMBaGA/OorZ8qa7r8aD2tlfieO0v6B29mlL9Pv9nTtm83g8UIxLtLn2+8P9RVugmI0oVigUfokfP8+/8/Pzmpqaly5dQnLFKyoqqqqqampqmpubx8TE9PT0rK+vj42NoZiN6E4eGRSzZaoVFLNlKt4jO5c1Zqurq7u5uR2+tEAg+Pz5c0NDg4+Pz59//qmiohIUFHS42X/kCIVCUVZWPlCb+VTmDkEQnU5XVFQMCwtrvAiUmppqa2sLamODT7szJOS6ojSlSKJ4RUVFZWVlpBQ9khjn7t27JiYmly9fdnR0PGZTwAn0CByuqG/8BKI7eAqK2QclcqrfUcw+VXH+UGeyxmxQPxsZCgRBu7u73d3dkZGRenp6V69eBanIL1265OvrizT7rzEUCkVRURHUwjrduQPMVlJSQhKty0HS96OHgNRQUVBQuC4mNTW169evq50hXb9+/dq1a+C6CDYfZsBNq6qq+ttvv6moqDg6Oh652n1iVaKYfWLRHTwRxeyDEjnV7yhmn6o4f6izM8BsV1dXCII4HM7k5GRGRsaTJ0+uX78OCoeAZx94WPv5+f3QiH+60dbWFkOKpPdiCQSC9fV1qR//x4Ic1MhlmUzmgQbr6+vS0cUsFutAAwaDIZ1ojM1mH2gQHBwso5wqEARVVlYqKCg4ODhQqVTaBaGenp6Vc6WBgQENDQ0ErRUUFJAXDZDMzs3NraamprOzU0NDw9nZ+XRTxKOYjfy7/SyDYvbPSvDY81HMPlY8MvlR1pitqalpbW1dWlpqb28PoFpFRUVBQQHUzFBRUQGPwkuXLhEIhM7OTpD8GUkBPTExgUybw+H09PRIN2hrawM5ukEbgUAwODiInAuYrq4u6aCh8fFxMzMzTTFpaGhoampK2/djY2N3797VkCJ1dXVDQ0MEcblcrpGRkbq6ulQTDS0trdHRUWScZDJZU1Pz999/B80AI11htri4+I8//tDQ0FBXV9fU1NTQ0Lh27ZrsfOMAswsLC5ERosx3JSAdgwaQG0C1vb19YWHh6uoq6GF6evqPP/5AMfu78jy3Bihmy1T0KGbLVLxHdi4LzAblnwUCwcDAgJqa2pUrVwBOAw8tYrJcEhPAbCUlJXV19StXroCvyEFPT09kpXB2dlZNTU26gaKioo6ODpKuksViGRoaKikpgdAhcKGrV68iKbSEQmFgYKCioqKSkpKFhYWVlRUWi3369Ckimbm5OQKBgJEiLBbr7e2NjEGUYpNEIkn9/j+WQCDMzs4inYBKkRgMBvQPGkun6GpoaLC1tcVisUg/d+/eVVRUfP/+PdLJKTKVlZWKioooZv8rkS4vLwM7W1lZ+ffffzc3N8/MzBwfH0fuBNDb1NSUpqamo6OjtKPlX13oyMaonX2kWE5yEMXsk0jth89BMfuHRXVqDWWH2RAEDQ0NaWhoGBgYBAQEaGtrgyrRALlBhUoEvxUUFMzNzZOSkmK/ptraWmTn69bWVnJy8te/x4L8l0AcXC63oKAgLi4OtAEMjUYDuS1Bm6ampri4OCqVurW1xRWT9FMYgiBw8MCntLgP/AS+IoOEYZjH4x1uI/1MFwgEBxpEREQoKCjIIgbtyFqc0tNB+SMlsLKyoqWl9ejRo9jY2IGBAWlXjXR7NKeKtDTkkUcxW6ZaQTFbpuI9snNZYDawEiAIGhsbu3nzpouLCwzDQqFweHg4KysLh8PduXMHBOVKx0ad2Xr2kXI434NRUVEKCgogufepj+TIul6nfpVfrEMOhzM4OPjdyDIUs+Vd7yhmy1RDKGbLVLxHdi5TzB4dHVVXVz9c12tlZaWhoSEiIsLExERNTU1VVVVZWfm/jNlgr5fsfONKSkqob/zI+/8nD6KY/ZMClPnpKGbLVMQyxWwIghgMhq6uroGBwbnkAjytPF+n1Q9QZX19vaqqalpa2ikGvgI7WygUjo6OHl+Lc29vb2JioqCgwNPTs7a2VqZ3lzx3DnKqoJgtzzo6cmwoZh8pFjk6iGK2TJUha8xeW1t7+PChnp4ewGwej8disdbX1+fm5vr7+xsbG3d3d8F6JOsbhNQMAMUH95rPxwAAIABJREFUJ8U08TXNzMyAmn3Sspqfn3/+/Ln00inyKwRBtbW1otKH4Mjg4GBLSwvyK8IIBAI+n7+5uUmj0XZ3d/liQpZR2Wz27OzstBStr68DdN/f3y8vLweRzxAECb9QV1dXa2trXV2dqqpqSkoKl8s9xbcBcKHvYjYyu/84g+ZBu6A3AIrZ8q44FLNlqiFZYzaDwdDT09PS0gKV7YODg3E4HIFAwOPxzs7OaWlpGxsbEAQVFhZaW1sTiUTnr4lIJNra2vb29oIKvhYWFhgMxt7e3tra+s6dOzY2Nvb29ra2trq6usjC5Nra2tjY2OjoaHd3t7Gx8T///DMmpsnJSQS/t7a2rKysurq6wJ7dtrY2KysrZP8uaCZCXDKZ7OHhgcfjtbS0PMXk5uaWnZ0NgHZgYMDe3l5PT8/Q0BAvptzc3Ldv3378+HFtbc3KygpMrbi4OCEhIS4uLj4+HovFWlpaurm5KSoq4nC48vLy767e/bj2Ucz+cVnBMIxi9r8Sl/w0RjFbfnRx9EhQzD5aLqd09Aww+9GjR5cvX6ZQKEwm08XFpa+vb319fWdnBzFYhULh06dPU1NT1w7R8vKyj49PfX09DMNMJhOLxQKTenl52dTUdGVlhcPhsFgsR0fHnp4eGIYFAkFsbKyRkZGtrS0GgzE1NcVgMDY2Nlgs9uHDhzMzM0Bsra2tOBwuKSnJ3NzcwsLC3Nxc9CvgraysQG6s7e1tY2Pj7u7uISkqLS11cXEBIxcKhXt7e6GhoUVFRbti4vF4FApFtDF6bW0Ng8FsbGzAMNzZ2Vn1hTw8PIhEIoVC+f/Z++6HppLv7fcv+kqzoqKuhd0VkaY0gQAhJAQSCB1C772D4Ir0XgUUpIP0KiVgQJAqJZAAIZB233wyy01WEQUJgs75IUzunTtz5pkJzz0zZ86cP3/eycmpu7v7GJcMIGcf6jcBOftQcJ2ezJCzT09f7K8J5Oz9cTmmqzLlbIFAsLS0pK2t/fDhQzabvb6+jsfjXVxc/P39/cQSFBS0sLAAODszM5PH49Hp9OE9+fjxI5fL9fb2RjnbzMysra2NTqd3d3dra2t3d3fT6fSRkREcDgc4m8fjBQcHl5aW7s1G//uXzWabm5uDaCFsNhuDwbx48UIoFC4tLY2MjIyOjgJeHh0d3dzcBNCyWKz79+9bWFjg8XgCgQA+jYyM7O3t0bcNPp9vaGhob28fGBgYHR29sbGBcjYGgwGcvbq6GhkZGRQUFBAQYGxs/OTJEwKBcPHiRWtra9B2tLQf7FLI2YcCEHL2oeA6PZkhZ5+evthfE8jZ++NyTFdlytlCoXBhYUFNTU1VVfXdu3erq6vW1taFhYVNTU09PT0lJSVmZmaLi4uAszMyMubm5gApUqlUa2trW1vbjY0Nac42NDQ0MzOzsrLCYrF37961sLAgEomWlpZqamooZwcFBZWUlHD/K5ubm6ampnQ6XSgUZmRkXLlyJTs7G0GQiooKslhsbW1BAo0CxmKx9PT0ampq3krJixcvpA/u7evrMzExqaysLCsr09LSWl9fRzkbzI0jCLK1tdXU1FQrFnd3d3t7+5iYGCUlJVEbGQwGcEMDEVF+cG0bcvahfhOQsw8F1+nJDDn79PTF/ppAzt4fl2O6KmvOnp2dvX//vqKiYnh4+MLCgq2tbXx8vJub28LCQmxsbFhYGGCaxMREwNkUCgWE4+jv73d1df2Ms7FY7NzcHIIgq6urhoaGwJDd3d21tbVFOdvHx+fevXvae6KlpfXw4UMtLa179+5NTk7u7Ozg8XgPD4+srCwEQbq7u5+KJSkpKVksCwsLAFoWi6WtrR0WFhazJ9HR0a6urqidzWazcTjcs2fPhEJhS0sLhULh8XifcfaHDx88PT1dXV3d3NxcXFz09PQeP34Mzi8yMDAICgqampri7wnk7GMa1N9VDOTs74Lp9GWCnH36+uS/GkHO/i8ex/xNppyNIAiYG5eTkwsPDx8ZGbG2tt7c3MzMzHz8+LGBgcHMzAwI/YFytr29/fLyslAo7Ovrc3FxkeZsBoNhZmZWXV3d29vb0NCgpaXV0NDQ09PT0dFhbm7e2dmJIAiPx/Py8qqqquJ8IahjOZPJjI6OBnb20NBQbm5u3p7k5+cvLy8DiDc2NnR0dKQ5OyYmhkqlguM3EATJzc11dnY2MzMLDg52cnLKzc0Fnk1gPRvY2VtbW4ODg319fY2NjaampomJiRYWFh4eHvLy8h4eHr29vRsbG2jYUcjZxzy4DywOcvaB8Jzem5CzT2/fAM0gZ8u0h06AszU1NeXl5cPCwvLz84OCggQCAY1GMzQ01NXVBd5eAoEgISEhMzNzfn7eyMjI2dmZSqWSSCQHB4fNzU0vLy+wnv3x40ddXV0KhSKyv+3s7G7fvg3STk5ODx8+BJy9s7NDJpMP3nQrFAqjo6OzsrIEAkFsbCyFQiGTyXZ2dsBjvaamBgC+s7PT0tJSUFBQXV0dGRn58uXL2traN2/evH37FpAri8Xa2dnZ2try9fVVV1dnsVgIgoSFhRUWFi4vL6Pr2QKBoKenx8rKKjU1lcfjFRYWamlpnT9/XlVVtampic/nH8vEOIIgcG78UL8UyNmHguv0ZIacfXr6Yn9NIGfvj8sxXZUpZwuFwuXlZQ0NDTk5OV9fX0dHx6qqKmBxFhYWVldXYzCY4eFhsJ6dlZXF4/EmJiZG92R2dpbL5fr4+ADOHhgYIJPJYD/3Z3PjZDIZcPbS0pKlpSU6v70vSChn8/l8Kyur8vLyPae34ZCQkKSkJPCUl5fX0NCQpaXl+vp6TExMaGgoj8djMpk2NjbSJ0qxWCw8Hg+MbARBwsPDpe3soaEhBwcHPB6vo6MDJhU2NzeJRKKSklJoaOjOzg4acxQk9lX4Oy9Czv5OoEA2yNmHguv0ZIacfXr6Yn9NIGfvj8sxXZU1Z4M4aBcuXHjy5ElOTg6dTndycurp6QEEU1NTU19fLxAIkpKSnj17xvxCRMcku7u719bWCoXC1NRUPz8/0G5pzt7Z2bGxsQF7uOvq6hwcHA72xJbmbGtr646ODtaeJCcngyOn5ufnHz9+vLm5+fjx47W1tZ2dndTU1A8fPuDx+NraWgsLCzDTvry8bGtrGxoaiu783tjY2N7eBvuz19bWJicnOzo6VldXLSwsJsRSX19fWVmpoKAQHh6+sbHB4/GkaftHehVy9qHQg5x9KLhOT2bI2aenL/bXBHL2/rgc09UT4GwNDQ1tbe2KigoCgeDl5RUdHR0fH5+YmJggFhBXJCYm5t69e8bGxrj/CvAJr6urYzKZOBwODZzCYDCMjIyWl5fz8/NdXFx0dXXn5uY4HI6VldW+Ec2k0RIKhTExMdnZ2Xw+H4vF6unpYTAYLBaLwWDU1NSAnf3s2bP09HSBQGBoaBgVFfWPWBwcHHx8fIRCYXh4OJ1On5iYMDAwiIuLQ096Bl7iRUVF8fHxpqamYEoAQZCZmZkHDx7gcDg8Hl9cXFxdXX3+/Pl79+45OjrOzMyA7WjQzpbuoxNIQ84+AZBlUQXkbFmgepxlQs4+TjS/KEvWnL28vKypqQnijS8vL3d2dlZXV1dUVJSXl5eWlpaUlLS2ttbV1ZmbmysrKxcUFOz8VzgcTm9v7+LiIo/Ho9FoqAHN5/Onp6fBfu6mpiaRezZwQKutrZU+gfGL5v57oaGhobu7G8Rfo9Ppe2Y2q7m5ubW1FUEQNpsNIpRNTEwUFBTkiqWsrGx1dRU4zSEIwmQyaTTaZ45ju7u7z8UyOjqK1r66ulpaWjo5OQl0q6urO3/+fGxsbGdn5/LyMsrZaP6jJaCdfSjcAGcf7PpwqAKlM5eXl8MzQqQBOcY05OxjBFMmRUHOlgmse4XKmrNXVlak443vVYvs7Oz09/cHBgaqqamdP39eQUFBUVGxqKgIzfALJ6TP9fqM8n+k1ZCzD4VeSEiIgoICPD/7UKCdhsyQs09DLxykA+Tsg9D54XsnwNmampqPHz8GQTp3d3eHhobi4+MfPXp08eJFJSUleSn5fTj70qVLycnJYDH7h/vw3wIO4GwQhG5dLFwul8Vi5eXlra2tSVfN5/M7OzvRMHAIguzu7hYVFX369AnNxmQyQSz3MbHQaDSQAJ8TExPoRMirV69ev36NPoggyPb2No1Gq62tBWv/Gxsb0s+i6fHx8fn5eekHQTozM3NoaOjL6wiCrKysgJUOcDctLW1jY2PfnAiCvHz5sr29HezKO3fuHOTsrwF1aq9Dzj61XfOvYpCzZdpDJ8DZGhoaOjo6U1NT6enpZmZm165dU1BQkJOTA2StoKAgLy8PPgsLC2Xa2FNSeG1trZKSUkpKyvdM43+/zl/jbIFAEB0d/eTJEx0dHTMzs/r6+pycnDt37lhaWhIIBFGIG/R1KjIykkKhoDvUmUwmkUiUdpJvbm4mk8kkEokslgcPHpiZmYE0mUwWBZzZ2trq6uoKCAggk8n3798PCAiIiIhobm42Nze3tLS0srJKTEzc3t4G3PngwQMrKys8Hq+rq6ulpQXOWcFgMLa2tqDVPB7vw4cPdDr9/fv3CQkJZDIZPc5taWkJRaaoqMjJyYnBYDDF4uLiUl5eDtKoS0FNTQ2RSMTj8aqqqnp6eng8Xk1NTV5eHs6NozCelQTk7NPeU5CzZdpDsubsjx8/qqurKykpKSsrnz9/HvC0oqKigoLCuXPn5OTkAFsD2i4uLkYb++rVq1tScvPmzVu3bvn7+6MZFhYW7ty5g2a5efOmioqKvr4+mmF7e9vIyEhFRQXNc+vWLVHEU+mdYH5+frdv3/4sD7pFG0GQ8vLyW7duXb9+HeRRUVG5efNmcHAwWsuHDx/u3r2LVnHjxo3bt29jsVg0hAuCINra2jel5MqVK/Ly8ifG2WB5PjY2Nj4+fn19vaWlBZxpRqfT7e3tQWx20JydnZ3k5GQQbQZBEAaDgcViga8AyACC0TY3Nzc1NTU2NmIwmMTExKampubm5s7OTjabDRzu4uLiysvL6+rqEhISCgsLKysrnZyc1tfXpQ8xKykp8fX13RVLampqSEgISHd1dWGxWFDdx48fNTQ0zMzMsFisqampkZGRKBCeubn5o0ePPD09wbICl8slEAjFxcXGxsYGYtHR0dHV1dXX1zc0NKRSqaDSlJSUyMjIiYmJSbF8+PCBSqXKyckNDg6iXXmMCbiefYxgflYU5OzPADl1XyFny7RLZMrZfD6fRqPdv3//0qVLt2/fVhCLvLz8uXPnAEkDgxulbem58fr6eg0pefjwoYaGRlRUFIrGp0+ftLS0pLJoaGpqWlpaohk4HI61tTV4EM2mo6MjPdkbERGhqamprq6OZtDQ0GhoaEALqamp0dTU1ND4X+GgqIcPH8bHx6MZZmZmtLW10cdBUWQyWZqzTU1N0QwaGhr37t1TUFA4Sc7m8/kUCqWjo4PNZoPzQ+3t7bFYrJqamo2NDdjexmazWSzW1tYWOr+9tLRkaGiInjIOmlxQUGBoaBgqFk1NTTs7u5CQEF9fX319fbABncfjxcbG5ufnM5lMMplMo9HevHnj6emJIgYSpaWl9vb278QSFhbm6uoK0oWFhRYWFiDP1NSUubk5m83ei+7679/a2loXFxegZ01NjY6OzvLy8s7Ozrt373p7e3v25P379+ixaSkpKTo6OmCSwFosDx48kJeXR3cigBqP6xNy9nEh+WU5kLO/xOR0XYGcLdP+kClnC4XClZUVTU1NbW3t2dnZ+vr6gICAx48fX7p0SVFRUV5eHsyQK4gd0BQUFKQ5WygU8r4QlE4AJl/c530228zn87/MI42nQCD4MoO0X5gs1KipqTl//nxycvJn2kordoT01+bGEQSZmprS19cHx3t3d3dbW1t3dnY6Ozvn5uaWlpY6Ojpubm76+/ubmpq6u7uDuWsEQSYnJ+/evVtWViatTF5eHoVCaW5ubmlpMTc3T0pKam5ufvXqFQaD+fjxo0AgKCgoePLkiYaGhr6+/v37921sbNLS0u7cuYPBYExMTIyMjMBsSnFx8cOHDykUir29vZ6enqamJkUsYBYd1Ag4W3orHbheV1cnCpYnEAhYLJampqaWlhaDwdjc3AwKCnJxcXHdE+m3opSUFA8Pjzdv3tTtCZlMlpOTg3Pj0p17JtKQs097N0HOlmkPyZqzV1dXpX3QhELh1tYWnU5PT08nEAjXr18HZreiWKQ5W6at/rmFS/uNH6MmB3B2dHT0rVu3PDw8jIyM6uvrMRhMRETEkydP3NzcPDw8wPoxk8ns7u4mkUioG1pra+v9+/d9fHyklczPzzc2No6MjIyIiNDW1ra3t4+MjAwICNDX1//48SOCIJubmwsLCz09PY8fP56ZmVlcXHz16hWFQpmamrKxsSkrKwMOYiUlJX5+fmCfW1paWmhoKEj39PTgcDhQ49TU1J9iefjwobq6+gOxqKur37t3z8PDQygUlpeXh4SEmJubMxiM7e3t1NTUmJiY2D0pKSlBX/JSUlKsrKzQk2CSkpIwGAy0s6V79qykIWef9p6CnC3THjoZzgb7sz9rCJ/PZzKZ9fX1/v7+WlpaN27cqK6u/izPL/m1trYW2NnSBv2Pt/RrnL2ysmJmZqarqzs2Nubs7FxXV4fH47OysnA4XFhYWHR0NIVCAbWLtqrb2tqinP3ixQsvLy83N7fZ2VlUvfz8fEdHx66urs7OTiwWm5qa2tXVVVtba25uDji7v7+fSqWCgPBubm4BAQFVVVU+Pj4CgcDJyQlsf0cQpKioiEgkNovF19cX2O7Nzc1paWkoZ4t8yLFYLIvF4nwhwPkcvB9gsVgGg7Gzs/Pq1avi4uKSkpJisbS0tKCc/fz5c0tLy7CwsPDwcPBpaGgI1rMFAgGYc0fb+OOJcrg/+8dB/EoJKGcf47YL8NsRCoUMBuPx48fq6uroqspXtDjpy//vpCv8gfogZ/8AeN9+VKacDQ7NRGOqfE0boVDIZrNpNBqTyfxanl/p+gnb2Xw+v6+vz8bGZnx8HHA2gUBoamqys7NLT0/Py8uzt7cH8NLpdDKZDDh7Y2PD1ta2trY2PT09JycHxR+ct+br6+vh4XHv3j1nZ2d/f39fX9/o6Oj19XXguVZRUQGOQsnJyWlvb3/x4kVycrJAIHB0dAScLRQKk5KSDA0N/cSCwWD09PT8/Pz8/f3t7OxQzu7s7CSRSAe/2SwtLQE7e3x83NramrgnVlZWTk5OwC0OeMaJliQqKyvz8vKeP3/e2Nhoa2sL7Gz0XLVj/DcNORsdMMeemJyc/OOPP6ytrWXE2Y8ePYKc/UO9Bjn7h+D71sOngbO/peOvdv+EORtBENHGbBKJBDi7pKRET0/Pzc1NW1ubSCSKTkeVtrNJJFJFRUVPT09NTQ2BQFhfXx8dHSWRSCAAHNi0HRYW5uXlVVFRYWxsvCX2WROIBfQTh8Nxdnaura01MjKKioqqqqoKCgqqrKyUtrP5fD4oATyYkZGx79x4ampqXFzcwd2/tLRkYWHBYDA6OjpsbGxoNNr79+/BljB1dXXwFjgwMBAcHFxSUhIbG/vx40cikdjf3y+6cu7cuYCAADabDdwaUKP84Bq/5y7k7O9B6Wh5Jicnb926RSKRwMvW0Qr57ClgZwsEAgaD8ejRowcPHhzjC9xndR3tK7SzJbgJxVJYWChyiSotLZXc+D1SkLNPvp9/CmcbGxs7ODgYGxsnJCT4+vryeDxfX9+mpqbOzk4nJycAAo1GU1NTs7a2bmxsNDExAUsVPB4vISEhNjYWtXdZLFZAQMC1a9esrKx6enqAeY3C2NfXRyaTx8bGjIyMgKcbFosdGxuT5uzl5WVDQ8PJyUnwVHp6elhYGEh3dHQA538ul2tpaflNHzHUzm5vb7ezs5ubm/u0J5qamoCzAwICsrKyCgoKAgICEATp7e1tbGz08fFRUFDQ1tZ+/fo1j8cDM+RoK34wATn7BwE84PHZ2VlVVVULCwt0EuWAzN95SygUglNxZ2Zm1NTU9PX1j9c/9DvVOCAb5GwJOJCzRW7bL1++lCByrCngg7bvevax1nOWCjt5zmYymXg8vqysrL293dbWtqqqCkEQPz+/jIwMX19fd3d3AN/IyIi/v//79++tra0TEhLQw8oWFhbwePzw8HBXV1dMTAyZTDY3N09PT8/Pz3d2dsbhcBQKJSAg4Pnz5x8+fEhKSsrMzCwtLTUzMwOR1MBJawKBwNnZ+e3btyCgiqurK2rKZGdnR0ZGzs3NeXt7GxkZxcbGIgjS0tJCJBJRHb7WwUtLS2A9u729XU1NDQRmARPkqqqqTLGQSKSlpaW6ujoDA4OEhIS4uLioqChVVVUFBYXi4uLMzEwOh3OME61gWz+MN/61LvvB6+vr6wYGBn///ffIyAifzwf/wA/4BHM56Cn1++bkcrngpa2hoeHatWtOTk7oG+oPantcj0POliAJORtytmQ0nEjq5DlbIBDMz88DWhoeHgbRwUZHR4eGhl6+fAl8x8DZJ1yx9PX1Se8vRxBkYmJia2uro6MjKyurt7eXwWCAf2q7u7uzs7P9/f2vXr1KTU2dnJwURU9bXV0VeaqDA9YYDMbExASCIEKhEByUAqKNSke2AY9wOJyurq6+vj6woD49PT0yMvLNDtna2srKytre3v748aPIr211dXVtT1JSUkAr1tbWhEIhh8Npbm4GJ9OUlpZaW1vLyckNDAygc+PHaFpBO/ubHXfkDEKhMC0t7fLly48fP46Ojs7Ozi4oKCgsLCz4uuTn54ObaOLLvBkZGUFBQX/99df169ebmpqOrJ6MHoScLQEWcjbkbMloOJHUyXP2iTTrP5WcpJnytbq+dh0oGhISIicn19vby+P9b1s/sMb+04Yf+AI5+wfA+/ajW1tbsbGxt2/fvnz5MjizAMR4UNpP5OTkFBUVlZSUzp8/DxJf5gKRGS9duqSmppabm/vN2Z1vq3jcOSBnSxCFnA05WzIaTiT1O3D2iQD5Q5WEhIQAv3HwHwCuZ/8Qmif+sOhs+4mJiYaGhhKxgN19+36SSCR5efng4OCioqJ9M4CLZWVlojBBc3NzB7/qnXhD/60QcrYEecjZkLMlo+FEUpCzTwTmb1QC7GzRbnJgYR+jEzJcz/4G9Cd7OzY2Vl5evr6+/mSrPebaIGdLAIWcDTlbMhpOJAU5+0Rg/kYloaGh8Pzsb2D0S9ze3t5eXl4+hdPdh0IXcrYELsjZkLMlo+FEUpCzTwTmb1QCOfsbAMHbpwkByNmS3oCcDTlbMhpOJAU5+0Rg/kYlkLO/AdCvcnt8fLy4uFj6wPWz2DLI2ZJeg5wNOVsyGk4kBTn7RGD+RiWQs78B0K9yOz4+/vz586dw+9ahAIacLYELcjbkbMloOJEU5OwTgfkblUDO/gZAv8rt+Ph4OTm5hoaGM90gyNmS7oOcDTlbMhpOJAU5+0Rg/kYlkLO/AdCvcnt6erquro7BYJzpBkHOlnQf5GzI2ZLRcCIpyNknAvM3KoGc/Q2A4O3ThADkbElvQM6GnC0ZDSeSqq2tvXDhAjie8rgqRA8motFoN27cQI/qOq7yf71yIGf/en26b4uWlpYGBwfRU+H3zXP6L0LOlvQR5GzI2ZLRcCIpWXA2CAwiFAohZ39nH0LO/k6gznq25OTkq1evtrS0nOmGQM6WdB/kbMjZktFwIinI2ScC8zcqgZz9DYB+ldtxcXHy8vLQB+3k+rOvr09ZWdnPz09GYWAhZ0POPrnRLK4JcvYJA75vdZCz94Xl17vY3d0dHR09PT19ppsG7WxJ90HOhpwtGQ0nkmpubr506VJsbCyXy0XfRME4PHL9PB5PIBDweLzBwUEVFRVXV9cjF/WbPAg5+zfp6F+jmZCzJf0IORtytmQ0nEhqZGRERUXF1taWyWSCoynQsyDR8yo+S4BRijqafXYXnEnF5/N3d3dLSkqUlZVjYmJOpClnuBLI2We48w6j+u7uLpPJPMbD0Q9T+bHlhZwtgRJyNuRsyWg4kRSbzTY3N7969Wp8fHx3dzedTp+YmKDT6ZNfkYn/yr656HT6yMhIWVmZrq6uiopKV1fXiTTlDFcCOfsMd95hVE9LS/vjjz/a29sP89Cpyws5W9IlkLMhZ0tGw0mlOjo6NDQ0Lly4cO3atVu3bt28efP27dt//IDcvn1bRUXl8uXLKioq8fHxPB7vpJpyVuuBnH1We+6QesfFxSkqKkIftEPC9gPZoQ/aD4D37Ufz8vIgZ38bpuPOIRQKp6enX7x44eHhQRKLzdfl1q1b58+ft7CwIJFIX8tFIpEcHR2jo6Pb29t3dnaOW99fsLzQ0FB5efn+/n6w4oAgCLoAceQEWKQQCARlZWUKCgp5eXm/IHBnrUlVVVVEInF4ePisKf4ffaGdLYED2tmQsyWj4VSm8Hj81atXJycnT6V2Z1WpiIgIBQWFrq4u4EzA5XKBb8HRCBuwNVcsfD6/pKRESUmpqKjorKID9T5lCEDOlnQI5GzI2ZLRcCpTjY2NeXl5Gxsbp1K7s6pUenr6xYsXCwoK+GIBjvdHbgzgbB6PB0qLjo6+cOHCmzdvjlwgfBAiII0A5GwJGpCzIWdLRgNM/TYI9Pb2Xr9+3djYuLOzc3l5eVMs7KPK1tbW5uYmm81eXFx8+/bt/fv31dTU4NTIaRhNRUVFhoaG/f39p0GZI+sAOVsCHeRsyNmS0XAqU8vLy7Ozs9Ct7Hg7h8fjhYWFAa89NTW1h2LR+Ipoamp+5c6/l8HjDx8+/PPPP69cuXLjxo2MjAyBQHC8OsPSjoBAbGysgoIC9EE7AnRHfAT6oB0RuO97DPqgfR9OPzOXs7OzhobGx48ff6YSv2LdbDa7vLycQqE8efLk8ePHjx490vmKaGlpiea6lZWVtbW1v5JF59GjR48fPzYxMXFxcamvr4eegKdkyOTAJ1IWAAAgAElEQVTl5eno6PT29p4SfY6mBrSzJbhBOxva2ZLRcCpTlpaWKioqcKJVFp0jFAo5HM7GxgbzQJmamlJVVdXT01tcXDwwI3NjYwOytSx66shl7uzsMJnMsz5NBTlbMgAgZ0POloyGU5lKT0/38/NbXV09ldr9Fkqx2eyQkJCkpCQul/tbNBg28pQhADlb0iGQsyFnS0YDTEEEIAK/FgLNzc1eXl50Ov1MNwtytqT7IGdDzpaMhlOZAvuITqVqv5FSYBv3b9TgX6WpcXFxcnJy0Aft5PoT+qDJFGvogyZTeI+lcF9fX0NDw7m5uWMpDRZyBARYLBYWi3V0dIRr1UdA7+c+8vz5cxUVlbdv3/5cNX6wdmhnSwCEdja0syWj4VSm8Hj89evXP3z4cCq1+y2UYjAY9+7d09fXZ7PZv0WDf6FGrq+vT0xMbG9vn+k2Qc6WdB/kbMjZktFwKlMhISEWFhYLCwunUrvfQqmNjQ0bGxtPT09oZ/8W/X36Ggk5W9InkLMhZ0tGw6lM8Xg86K7803uGy+We9f1CPx3Dn6IAjUYrLCz89OnTT6n9uCqFnC1BEnI25GzJaIApiABE4NdCIC4uTl5eHvqgnVyvQh80mWINfdBkCu+xFP7s2TMqlbq8vHwspcFCjoAAm8328/OLiYnZ3d09wuPwkZ+IADw/+6TBh5wtU8QhZ8sU3mMpHI/Hq6ioQB+0YwHzaIUAHzRDQ0Pog3Y0AH/iU3Nzc62trevr6z9Rhx+vGs6NSzCEc+NwblwyGk5lyt3dXVtbe2Zm5lRq91soxWQynzx5YmNjw+FwfosGw0aeMgQgZ0s6BHI25GzJaDiVKQaDsbCwwOfzT6V2v4VSQqFwcXERLk+cxc5eXFzs7e0968fPQ86WjD0ZcbZQKDxgWwiPxxMKhRIlDp/a3t4+lpP+4Nz44bGHT0AEIAJnBoGkpKQLFy40NzefGY33UxRytgSVH+FsJpNZUlKSn58/NDTU3t6el5dXWVnJ5/O5XO7CwkJ0dDSCILOzswUFBfn5+SUlJUwmE0GQxcVFX1/fxsZGiRIIMjw8XCCW/Px8kEC/vnv3TjongiB8Pj84OHhgYOCz60f4Cjn7CKCd8COvX79OT09nsVgnXC+sDkVgZ2cnJyenvLwcznagmJyVBPQbP+meOs0+aDQazcLCwtPTMzo62tXVNTQ0FIPBTE9PZ2RkjI+PE4lEBEEqKysxGEx0dLSGhsb8/Pzm5qabm5u7u7upqenY2BiKZlRUFJFIjBKLoaEhiUQCaQKBEBYWBrIxGIySkpLCwsKCggIbGxs7O7uCgoLCwsKioiLpotAyvycBOft7UPq5efB4/NWrV+FZnD+xF2ActJ8I/g9W3dfXl5ycPDs7+4Pl/NzHoZ0twf9H7OyRkREPD4+qqqro6Gh3d/e+vj5LS8uhoSEXF5exsTHA2RUVFX5+fnQ6nUAgzMzMUKlUb2/vra2t0tJSDAbT3t4OprjDw8Ozs7MFYvHy8ioqKgLp3Nzc4OBgoG5fX5+WllaIWAIDAwMCAkJDQ0NCQszMzJKSkiRNOkwKcvZh0Po5eclk8h9//DE9Pf1zqoe1Isja2trDhw9NTU3PeghM2JlnFAHI2ZKOO17OJhAIQ0NDzs7ONBoNtbN9fX0zMjKePXvm4uJCJBKDgoLCwsIiIiLc3d2xWCw4JC40NNTe3j5TLCYmJi4uLpmZmRkZGQ4ODihn9/T0kMnkL2fnkpOTExMTJU06TApy9mHQ+jl5JyYmBgYGDnCP+Dlq/U618vn8d+/ejY2NHYsTye+E3M9v6+bm5uzs7Fn/+UDOloykI3O2UChsa2uzt7fPycnx8/OjUCg1NTUYDKatrU2asysqKry8vMhk8sjIyPj4+MTERFFRkba2dnx8fG9v79zcHNg9Eh4eTiKRUsRiaGhIoVBAmkQiBQUFAXV7enqwWOzw8PDofyUwMBBytqRHYQoiABGACOwhkJ6erqqq2tHRsXfhTP6FnC3ptiNz9s7OjpeX159//mloaPjw4UM1NTUMBnPnzp2QkBAXFxcajWZtbY0gSEVFhbe3t5+fX1FREY1Gq62tra6ufvz48bNnz2pra9vb24EqYG4cKOPt7V1YWAjSubm5KGd3dnbeuXMHh8PhpcTS0tLU1LS4uFjSpMOkoJ19GLR+Tt6xsbGurq6zbij8HOyOqVY+n9/b2zs0NATt7GNC9OSKiYuLU1BQgLFLTw7x0+yD1t3dTaVSy8vLQ0NDXVxcuru7LSws+vr6XF1dpTk7ICBgfHzczMystLSUSqW6u7v/+eef1tbWVCo1KioKbPoKDg62tbX9RyzAzn4uFltbW5Sz37x5Q6VSf3CT2Gc9Bzn7M0BO4VdLS0sVFRXog/YTu4bBYKiqqsKzOH9iFxy56urqagqFQqPRjlzCaXgQ2tmSXjiynY0gSEdHR3Bw8OvXryMiItzc3Gg0Gh6PHxoa+pKzNzc3Hz16tLKyUlNT8+nTJ0tLy7a2tqKiIpSA7e3t/fz8csWCwWBcXV1zxOLk5IRydlpaWlxcnET140hBzj4OFGVbBjg/G3K2bFE+sHToN34gPPCmzBGAnC2B+Ec4++XLlykpKdXV1UFBQe7u7h8+fCAQCHQ6PTo6emxsDMyNV1ZWkkgkT09PU1PT/v5+LBa7sLBAIBA6Ojqsra1bW1vBfmsMBjM+Pg7U8vHxQee68/LyUM52cnKqr6+XqH4cKcjZx4GibMtobW0tKyvb2tqSbTWw9K8jwOVyKysrGxoavvQA/fpD8M6pQIDP53M4HNQ6OhU6HV4JyNkSzI7M2Xw+PygoqLm5ubq62tXV1c3NbWlpCY/HczgcLpcrvdfLw8Ojt7d3dnbWxcUlJydnY2PD0tJyYGCgu7ubQCDweLz+/n59fX10wdLHx6eoqIjL5a6vr8fHx0dERCAIMjc3Z2BgcOwR+CBnS4YCTEEEIAK/HALFxcUGBgb9/f1numWQsyXdd2TO3t7e9vHx6enpoVKpgYGBkZGRpaWlBAKBxWI9f/7cy8srJCQEQZCqqipgKO/u7lZUVNDp9MDAwCdPnnz8+JHP59fX1/P5/KdPnxYVFaE6JSYm1tXVjY6O2traGhkZvX37FkGQlJSUZ8+eoXmOKwE5+7iQlF05nz59mp6e5vF4sqsClnwwAgKBYGZmZmFh4aybawc385e8Gxsbq6SkBH3QTq5zT60PmlAoXFpaWl1dffv27erq6srKSn9///j4OI/H6+rqamtrA5FK5+fnh4eHUby2t7c7OzvHx8elf/xra2vS5/Ky2ezd3V0ulzs1NfXp0yfgqjo9PX2ocwC3trbm5uZ2dnakK0LVQBOQs1EoTm3CwcFBtCvh48ePp1bDX16x9fV1bW1tPB4PY6qcub7Ozs5+8OBBd3f3mdNcWmFoZ0vQOLKdLSniVKaqqqru3LmDx+OfP3/e3d3NYDD2NdTy8vLk5eVfvnx5MLUfuYmrq6uampqPHj3at/YjF/tbPQhil8Lzs39ip0O/8Z8IPqwaQRDI2ZJh8KtydkFBgZKSkrxYrl27pqur6+vrW1lZOT09LX0GcF5enpycXHl5OeRsyZg4Zans7OyQkBAGg3HK9PqN1GGz2VFRUf/884/0fNhv1H7Y1J+NAORsSQ9Iczbw/OL+EpKXl4dy9rlz5+Tl5RUUFC5duqSqqgqM75GRESaTmZWVBc7PllGwCGhnS4YaTJ0yBAQCwfv37//55x9vb28XFxdnZ2eX/QS97uTktN/9/11zFouLi4uvr29WVtbMzIyMXoJPGYRnQJ2GhgZXV9f379+fAV2/riLkbAk20pytqalp9quIurq6oqKiyIZWUFAAhA0ScmIB/K2tra2uri4nJweOJJGAcnwpyNk/jiWbzWaxWDJ6qfpx9c5oCUKhMC8v7+7du1fEoqKicv1AuXbt2o0bN65du/a1XCoqKiDDhQsXHjx4UFdXB2n7NIyNuLg4RUVF6IN2cn1xkj5oV69evbUnN6XkjzMoysrKCgoKcnJyioqKgK3BPDn6qaCgcFUs8vLyhYWFMtp4ui9ns1islZUVJpPJ4XBWVlZWV1e5XC6CIAKBoLu7e3NzUyAQrK2tgVuo18/k5OT79++l/w/y+XwGg7Gyn6ytrX05Rmk02te2fPD5/KamJrSu9vb2fUsAZU5NTbW1tX1Z/qGuCIXCzc3NpaWl2W+Jh4eHkZFRX1/fwRkXFxfX19eh38B39gKdTv/zzz/v37//4sWL7u7uYbH8N5D/v99GRkZGR0fB59DQ0L55wONDQ0NtbW1Pnz69efOmgYHB4uLidyoDs8kOgdTU1Js3b/74D1Z2Gn5PydDOlqAkbWe/ePFi5ity8L/LU3j32bNnioqKwMKW5mkFBYUrV65oaWlFRER0dHQkJSXJycmVlZVJEDnW1Jecvb297evri8PhnJ2dX758icVizc3NOzo66HT66uqqs7PzxMTE8vIygUDAYrFGRkY5OTkIgkxNTWEwGDMzs5GREVRBOp2OwWAsLCxA0HV9fX2QxmKxOBwOfQvZ2NhYE8urV6+srKw+ffoEvrJYLLSomZkZY2PjxcXFbbFERkamp6eDNLr8v7CwEB8fHxcXZ2VlZWpqGi+W2NhY6X0BaIEHJ3Z2dsrLyy0sLNTU1G7fvv3HH3/cunXra2+GFy9elJeXv3nz5tcygOv37t3T09OLiIhYWFg4uHZ4F0GQgoKCixcvPn36dHd3VyAQCIXC45rJEL2Aenp6Xrt2rbm5GUL90xHY2NiYmZlBo1/8dH2OpgDkbAlu0pxdWloquXHGU8AHTcTH8vLywNpWVlZWV1f39vZubm5GY7Pk5uaesA+aKJ6Xp6fn27dvHRwc0tPTU1NTQ0NDq6qqfH19+/r67O3t379/Pzc3RyQSx8fHvby8ampqJiYmyGSySNXS0lIrK6uJiQlgbQ8ODlpaWs7Nza2srFRVVREIhIWFhZWVFTqdrq2tDSzO7e1tBwcHS0tLIpEoOt1cS0sLj8eLmNvS0hIEqgP9/OzZM19f34CAAIpYsFjskydP7MTi4uICaLu7u9vQ0LCoqKhQLMXFxUVFRTY2Nrm5uYcdLGlpaRcvXrxz547IGsOJxfL7BIfD7ZsRh8OZmppqaGhcuHDBwsJC+nXksLr9Jvmjo6OVlJTa2tqEQiGfzz9Gzgaz7oqKimg0w98EUthM2SEAOVuC7a/N2fLy8hcvXvzrr7+cnZ3Ly8s/ffokPbeMIAjYn11eXn5cRoYEWXHqSzt7a2vLw8Ojo6PDyckpIyPjxYsX4eHhlZWVXl5ePT09Dg4OgLOtra2Hh4etra1ramqwWKyLi8vg4GB/f7+Pjw8GgwEWDODs2dnZpaWlyspKAoEwNze3tLT0/v17LS0twNmbm5sWFhatra1TezI9PT01NdXS0mJoaAi0XV1d1dHR6ezsnJycbGtra5KSlpYW9NTkzs5OdXV1H7F474mhoeFhOXt5eVlNTe3hw4ft7e1sNlsgFsAZYDR+9olagWjOzzIA1tnZ2REF6nF3d798+bLsJk4+69+z+zU0NFRBQaG3t5fP56MIH0tzhEJhZWWlgoJCXl7esRQIC/kRBIaGhtLT0+fn53+kkJ/+LORsSRf8qpxdXFx869YtS0vL7OzsqakpsGAsafZeCuzPLi8v37twzH8P4GxgZ6elpYWFhaGcjdrZ1tbW+fn5fn5+DQ0N+fn5VCrV2NhYT0/Pw8OjpqYGxF0fHBxUVVU1NzfH4XB6enq3b9+2sLDAYrEYDOavv/5COZtAIADTXJrq6HS6gYEBCPYeGBh4/fp1cPJPSEiIlVgIBIKVlZWzszM6N97V1YXFYjs6Ojo7O7v2xNXV9bCc3dfXd/XqVR8fn+3tbUDD6Ke0hmgaMAp42UIvfpbg8Xh8Pp/H49XV1SkrK4MYfMfcl79WcYCzBwYGAJIA5GNpolAoLC0tlZeXh5x9LHjuW8j29nZDQ0NycnJgYKCfn5+/v7/fV8TAwEBeXp5IJPr6+n4ly/8uBwUFPX/+vKen52v/KvdV48QuQs6WQA1+sYWFhaI55F9pbnxhYWFiYuKb4+/k46C1tbXp6uq6urpqa2sTCAQ8Hm9iYuLl5eXi4tLT02Nvbz8+Pj43N2djYxMZGRkeHs7lcplM5srKSkpKiq+v7+rqKovFAnw8ODhIJBJZLNbOzk5jYyOJRNrc3NzZ2VlcXNTQ0EA528jIyMbGBuzScd0TGxsbfX19BEHev3+Pw+GMjY0BZ/f19dVLydu3b9EZiO7u7j///NN5T0CBOjo6h+Xs+vp6sJKKrrhLhuNRU8BMFwgEIyMj169fd3R0PGpJv8tzKGfLosHl5eXQzpYFsKDMxcVFMpl85cqVy5cvKysrX716Vez7f0X5qHLlyv+evXTp0rVr10QLZJubm7JT/mglQ86W4ParcrakhQemTp6zh4aGgAOXkZGRm5ubq6sriUSKiYlxd3f/jLP7+voIBEJtbS2ZTCYSiVpaWmpqakQi0c7ObnR0FEGQwcFBLBY7NjY2OTlZXFxsaWn5/v37ycnJ/v5+TU1NwNksFguDwZSVlbW2trb8V/r6+hAEYTKZ09PTFhYWgLNTUlK8pCQ0NBT1Xunu7jYxMamoqKiUEjs7u8OaU7W1tefPn3/69Cn6NnBgF33XTXTanEaj3bx5097e/rse+40zQc4+o53P5/PDwsIuX75sa2tbUVHR3t7e/cPS09PT2tpaWFhoamp6+fLlkpKS0wYO5GxJj0DOBjFVJIgca+rLuXEmk+nm5vbu3TtHR8fU1NScnBywnu3t7f0ZZy8uLvr6+hYXF79//350dDQ+Pt7d3X1wcHBiYgLwaEdHh6qqKplMtrW1NTExAWkSiUQkEtG58ZWVFVNT04ODiPH5fEtLSxqNxufzExIS4qUkLi5udXUVQDI/Px8fHx8TExMfH+/n5xcfH5+UlBQXFzcwMHAozGpray9cuJCcnCwLzh4fH7916xaFQjmUSr9hZsjZZ7TTV1dX9fT0Hjx4MDs7C1Y0UI8E8M/8CJ9cLhesLrW3t9+8eZNMJn/m9/PTsYKcLekC0MG/3ty4pIUHpk7ezl5cXKRSqWNjY05OTomJiWVlZeHh4VVVVf7+/sBvHMyNE4nEjo4OBweH3NzclJSUnJyc7OzswMDA2NhYdAmjsLDQx8dnRyyNjY1kMnlrawvMjaN+46Ojozgc7mB25PP5OByORqNxOJy7d+8WSImOjg7YXba9vR0aGjo1NRUcHLy2tmZjY9Pd3c3j8UZHR8PDww91fEttbe3FixdTUlIO1urAfvv8Jvp/amxs7MaNG3Z2dgiCLC8vDw0N8cXCZrO3trYaxbIlFjAPIV3Q8vLyixcvlpaWmpqapI/r3tzcHB8ff//+PZPJnJqaotFowKNHKBSOjo4Cf0DRf9JxsUxNTYE5/8XFxeLiYvSNB1Q0Pz8Psn32OTY29uWEJIvFio+P/xq27e3t6Kbbubm5kpKSL//PcrncnZ0dFouVlJQ0OzsLhgpYMPopnC0UCnfFIhAIuFzu7u4u2gtbW1srKysgSgHIgy5s8fn85eVl9CvIA9oyPz8vEAjAUUBzc3NoaQBtLpc7OzsrXSYoGRxBJN31IL2ysrKvrxaqNvo4mvisRlDO3Nzc13YucLncubk5MPKFQuHs7OwBK0TLYvlMz48fP967dw+c14J6IaDzTOgP4VAJ4AvC5/Pn5+fB+QgHaPWZPifzFXK2BGfI2SdsZ/f393t7e09PT1MolMDAwObm5oiIiNra2tHR0eXlZdQHzdLSMiAgICwsrLGxEYfDTUxMZGVlhYSE0Gg0HA736dMn0T8LT09P9AzT1tZWW1tb8H9tZWVFR0cH/OqSkpISExMl/b1fCtjZo6OjHA7n4cOHbCmxtLQEnF1XV+fg4DAyMiJyYt/d3e3v709ISKitrS0oKHBzc8vOzv6SMPar6n/XZMHZCIKAJe2xsbHr16+DufGRkREcDldcXNzZ2ent7U2lUg3E4u7uTqVSW1paPtNwYmJC5F4wPT0dEBAQFBSE0nZVVZWxsTEGg8nLyzM3NycSiW5ublNTUx0dHeXl5VFRUXw+Pz4+Xl9f39LSEoPBrK2tiXwORHmMjY09PT3RxQUej+fg4GBqakoUy99//21mZgbSmpqalZWVQJ+1tbUhsQwMDBgaGubn54Ovw8PDKK/zeDxbW9uSkhIQGmFoaEhfX59Go4GvIBuPx4uLi3Nzc3N0dPz7778dHR3BWkxERASHwwkLC1NQUPhajJ3PkDns16+tZ4vmctzd3d3c3BobG6OiolxdXZOTkzc2NlZWVmpra6OjoxEEefPmjZOTk5ubm6+v7/r6Op/Pf/nypYmJSV5eHvqSNzk5mZyc3N/f7+Tk1N7enpOTs76+bm1tvby8LK0qnU4HGxqbm5sdHR2pVCqo3c3Nzc/PDxw8uLS0hEaJSUlJMTMzQ7/SaDSwKXRwcBDEbXV3d3d0dHRwcHATi4uLS1JSEjryd3d3wZtETExMXFwch8MBX6V5fWBgwM7OjslkCgSC3d1de3v7/v5+wLho6+bn5+vq6mpra0kkko+PT21tbV1dXUNDA5gtm5ycBKbw8dIqIAIGg/H48WN1dXVpnaUh/VlpyNkS5CFnnzBnFxQUPHv2bHR01NLS0tnZeXR01NvbW0TMIscx4FP24cOHubk5a2vrpaUlgUCQlpaWnZ09MDDg7+8fFRXF4/GePn06MDDw4cMHQ0ND1Cx4+/atnZ0di8UChjsGg0EQZGlpydTU9JsnYvH5fDweDzj75s2b4l3Z/37cvXt3eHiYz+fb2dk1NjbS6XQ9Pb2ampqmpqY3b95QKJT8/PypqSk7OzvATKKZ/2/+2mXN2Tdu3EDXs4eGhnx9fd+/f19WVpaRkWFjY0MikTIyMgoKCkQRbHZ2dmpra/Py8vLz8/Py8hISErS0tFLFYmpq+vTpUxAupry8PFksmZmZJBKpv7/fw8Ojrq5OZKqinB0TE5Obm9vR0eHs7Ly6uhoYGOjt7b20tOTm5hYaGrq+vo4gCJfLtbW1bWtr43A4okgXpqamvb29HLF4enqii4iFhYWPHz+2sbGxtrbG4XB4PJ5MJtvY2GhpaaFRSuh0OqAx1MlfX18fh8OBrzU1NQiCcDgcIpGYl5cnWkNBpbS01NLScmNjIywsTF5e/oQ5u6mpycPDIzo6+vnz5/b29nl5eS4uLl1dXWFhYa9fvwbe/vHx8YGBgcXFxVZWVmtra+3t7TgcrqysDIfDNTQ0AGJbX18PDw9//fq1lZVVQkICWDAyMDAQRWWoqKh48+bNzs4Ol8sdGBgwMzPb3t5OS0vz8vLq3ZPGxkZTU9P5+XmhUBgZGfnkyRMbsWCxWGNjY5JYwFABR1iCYERv375ta2sLDQ21trZ+K5asrCw0eNHm5qaXl5erq6ubmxuBQNDQ0ABpJyentLQ0lNfDw8NDQ0Pj4uJCQ0NDQkJMTEyIRGJISEhwcHB6ejr4EYFXw8jIyODg4LCwsIiIiPDwcBMTk6amJgRBIGdL2Ot0pk4ydik66Xo6oZCFVic/N97X1zc4OBgREZGWltbc3Pzq1StfX9/5+fmSkhIXF5eMjIydnZ2VlZXw8HD0H/329vY///zj6+sLXM9ABIylpSXpGMIrKytdXV0cDic/P//Zs2eAbKampkAYtYOhEwgE/v7+09PTu7u7dnZ20tO23t7eU1NTCILQ6XQw0ZqdnR2wJ9HR0WAOEJgjXC4Xg8FYWVm9ePFidHR0Y2NjX1PgBDjb0dFxd3d3fX19bW2NLZb8/PykpCRLS0srK6vExMTMzMy1tbXt7e28vLzIyMhosfj4+Ny/fz84ODhKLGFhYR0dHQiClJWVSXN2X18flUqtq6sTmaqfcXZcXFxqaqqdnZ2ZmVlpaWlNTU1hYSEWiwWvU1wul0QiFRcX02i0oaEhPT29yspKmljs7e3RX19mZiYwhQGdo58ODg61tbVgptfFxUV0sMfu7u7i4mJvb2+PWAAloVPEHA4Hh8OZm5vb2dmRSCTg94DD4UxMTDY2NkJDQ0+es8GsUmZmZmpqqqura0tLi4eHx9u3bz09PV+9ehUaGoogSHx8fHp6ekVFRXh4eFlZmb6+fmlpKYPBqK6u1tfXz8jI4HA45eXleDxeR0fn9u3bBALB39+/vr5eT08vMDDQwMDAzc1tY2OjuLjY1NT09u3bnp6e8fHxpqam0dHRUVFRERERQUFBRkZGCwsLAoEgICAgIyODxWKB94CmpibWnmxsbIBXhFevXlGpVDAfnpeX5+PjA9I9PT0oZy8vL+vq6tbU1LS0tLSKpUUsT58+pVAo4IewuLgoWooGWzNKxVIiltLS0vLy8ra2NvC+m5WVZW5unpiYmCCWxMTEuLg4Y2Nj8HuHnI2ccoGcLdMOOnnOlmlzfm7hc3NzqqqqCmK5ePGivr5+UFCQKCbM/Pw8Oj8M5saBDxp4+TgundG5cWBnt7W12dnZYbHYtra2nJwcKpXq5uaGFYubm5u7u/uzZ8/AmndxcTFYM56YmNDV1QVbljs6Op4+fcrlcoVCYXFxcYJYUlNTra2tOzo6XFxc3rx585md/c8//1hZWY2Pj9fX11dUVFCpVFVVVS8vr8bGRtEjYA2VSCRiMBgikWhtbf3HH3+YmZlZi0VNTQ21s7OyskJDQze+EDs7O8DZ9fX1N27c8PPzEwqF3d3dDg4OdnZ29vb2FLGgc/4cDodAIGRnZ0uzSGFhIbCzwXr24ODgceEvXc7X5sYbGxsjIiIyMjKeP3/u4uLS0tLi7u7e2trq6en5+vXrsLAwwNnPnz/39fUtKSlxc3OLiIggk8mGhoZge4Wvr+/S0hKLxcrOzraxsfnrr7+io6NpNFp0dDSgVVdX16GhIbAhoqmpydjYeG5uLjU11cHBoaKiIiEhwdjY+OXLl/X19cVLeZMAACAASURBVDs7OwKBICgoKDMz08vLi0Kh3Lt3j0QigXlvNze3uLg40KhXr16pqalRKBTR0pW+vj5IUygUnFgAHy8vL4OXIWkcEARpaGhwdHQEThUeHh5qamoMBoPH43l7ezs5OYGZdmdn5/j4eHTBPisry97e/pWUVFRUWFpaQs7+DNtT+hVytkw7RtacvbKyoqmpqa6u/rXDFUZPVtC5dFmgOjc3d+/ePfk9AYeqnT9/XlVV1cbG5sWLFzQajc1mv3nz5vLly4mJiTLibBUVFQqFwmazZ2Zm3NzcRDOoKysrZWVlaWlpL168SE1NffHiRXFxMQhLzmQywWwth8MZHh6+d++el5fX27dv8Xh8fX29UCj89OkTgUDQ0dHR1tbW1dX9888/zczMNDQ0IiIiQkJCUDs7NjY2JSXF3Nz8w4cPy8vLs7OzfX19BgYGQ0NDs7OzYCWSy+Xa2dn19PSAeXIsFgvYBUEQQFGgU7KyslRVVY2NjU1MTMCniVj++usvMDtKpVJDQkICAwOFQiGdTn/69GnSniQmJqLh3zkcDh6P9/HxiRcL2BHg7+8vsrzB3LiiouJJzo1zOJykpCQbGxt3d3dXV1cTE5Po6GhTU9PCwkIvL6/Xr18DOzshISEmJsba2vrDhw/AgW5wcNDY2LinpwesvAgEgpKSEnd394aGBhsbm/z8/JycHDOxLC0tOTk5gZkhEHvA3NycxWKlpKSgnG1kZFRRUfHq1atPnz4BOzsvL29iYiIkJMTb23toaOiff/4ZHx+n0+kzMzOgR6qqqkgkEvilxsXFOTo6gnR5ebm0na2pqZmQkJD8X6FSqba2tnw+v7293czMTEtLi8FgCIXCrq6uFil59+4dOn+enZ2to6PjLBYnsTg6Ompra0PORs6EQM6WaTfJlLOFQuHKysrDhw/Pnz8Poh8o/wy5KpYrV65cunRJU1MTeGBRZSD29vZXr16Vl5cHB5YD7gZmt8hpQFFRUVlZWVdX19TUVEFBIS4uDjUsjqWLpe1ssNdLIBD4+flVV1cLhUIcDgf2p8XHxwcFBZmZmaH+2Kurqz4+PpWVlWQyWUtLS7Q6oKen19XVBf6H8ni858+fR0ZGhoSExMbG4nC4qqoqOzu78vJyaTs7NjYWrIsHBAT4+PiYmJjo6urevHlTT0/PyMgIeFdxuVwikZiVldXV1dXe3v7o0aP8/PxOsQCHMoBDcnJybGzs2n4C5k4ZDEZpaWlQUJBQKJyamsrNzc3Zk+zsbPSk5J2dHRsbG29v7+jo6BixREdH+/n5WVhYbG5uhoaGnjt37rD79L6zp8r3i6mysbHh4+NjamqKx+OxWOzjx4+dnZ11dXVTU1OlOTsuLi4tLS0qKio1NTU9PZ1KpTo4ONy9e9fe3p5Kpaanp/N4vJGREeAqX1xczOFwpqamoqKivL29X79+bWNjA9Zr2Gx2Y2PjX3/95eLiEhYWZm1tHR0d7erqqqGhERUVFRsbOzExIRAIvLy8REf1zM/PGxgY9Pf3T0xM6OjoLC8vr6+voxEAX7165ebmtiWWrKwsb29vkO7o6LC0tAR29tLSEuDsf74Q8PJHo9GGh4f19PSAnU0mk83FYmpqam5uHhAQsLu7C+DNzs4Gbw/DezIwMEChUBobG+F69neOwJ+ZDXK2TNE/Ac7W1NRUUVGxtbW1+0lCoVDs7OxsbGwuXbp08eLFK1euoJ8Xj1VEgb4BT6OcLScWcEwLMLuVlJQuXLigoKAQHBwsCr2O2hY/3sv7cnZAQMDr168FAoG5ubmTk1OwWEAgWJSzwbFprq6u4eHheDy+q6uLSCS2t7ejumVkZOTn5ycnJ6enp1MolIGBAXd399ra2s/s7Pz8fDqdjsVi2Wz2+Pj4zMyMyDyenp4eHx8HrWOz2cbGxra2tsB/+969e0QiERidmpqa6Hq2n5/fy5cvDwakrKwMcHZBQYG9vb3znjg4OGRkZIBVWA6H09nZmZeXV1lZmZCQkJeX90YsNTU1Ozs7YD37JDkbQZDS0tLU1NTMzMzk5GRXV9euri4wN/4ZZ2dmZvb29trb23d0dNTU1JSWluro6OTn579+/frdu3d8Pr+iosLOzu6vv/6ysrKys7N7/vy5UCh89eqVmZlZYGAgWPJ/9uyZoaGhpqbm8vJyYGBgbW3t1NRURUUFgUCYnJz89OkTCNxrb2/f3Nzc2Nioq6tra2trZWV148YNMplsZ2eH9kJBQYG6ujpYgNDV1VVXV7cXi4WFBWpnT05OmpubH/wayuFwDAwMGAzGxsbG27dvm/ekqampvb0dfbapqcnGxoZMJpNIJAKBABwRKBQKWMiA69kH/zR+/l3I2TLtA5lyNoIgIKaKjo7ON72pZdpMBEF4PF5fXx9wU5LR55s3b27duoWeVg4OVUOt7cuXLxsYGCQmJsbHxyspKYH92Sgv/njz9+VsPz+/1NTUnp4eS0vL1NTUGrFkZ2cDZgU7xPr7++3s7LKyssbHx0VR1ldWVtra2szNzRsaGkC0isTExNevX4MpT5GhNjg4CHYrxcTESM+Nh4WFRUVFEQiEzs5OAoEwJT4+tb+/38LCAuxBWlxcNDc3B2kulys9N+7j4wPWs0VuZTgcDjgbHoAJamd7e3uDXU/9YklLSyORSHFxcS0tLfHx8XV1dc7OzsPDw6WlpaKIe+vr60wmMyAgoKamJiQkRE5Orq+vTyglB9R4qFv72tkIgqSmpgIH/vj4eBcXFxEBS3M26jeempra3d1taWn54cOHsLAwGo2GxWJbWlqioqLAm9bq6irwux4bG/Pw8ACR+ETb8bW0tKqrq4Gq6+vr7969w2KxHA6HQqFUV1fr6ura2dnhcDgymSza+iUQCICb3vDw8NbW1qxYBgcHtbS0pqenRfGD19bWwNtPeHh4dHT0B7GIvBxcXV1B+vXr13g8HtjZono9PT1B/q9hhXJ2T0+PtrY2lUoFIQfd3NwePnwIXiNWV1fr6+v7+/trampGRkaCgoLAgOnp6amrqxMIBJCzvwbvabkOOVumPXEynP3o0aOfztkyhREUjvqgAZMaHF5+6dIlNTW1kJAQUZQ3sONZ1n7jYLsaMLbc3Nw0NDTKysrMzc0dHBzAMQlOTk5Pnjxhs9lcLjcnJ8fExOT169c8Ho9Op4sOLV1dXRUKha2trUZGRmlpaVtbW25ubsPDw8nJyf7+/sHBwUNDQ6IJWzabzWQyX758CfZnx8TEREZGZmZmgmnMkpKSubk5DAaztLQUFRUFdvHW1dURCAQwBYpyNjiUzNPTE9jZExMTJiYm6Kzs13qttLQUrGd7e3sXFhYy9qSiokJLS+vChQuXLl1SVlYmEAh///13Q0PD5uZmfn7+2NiYvb19a2srBoNxcHCQk5MT7VsDlM3j8Q7mm69psu/1fTlbKBSGhIQ0NzdnZGSEh4c7OjqOj49TqdTJyUlRCHrUbzwuLs7Dw8PQ0DA5OTktLc3d3X1hYUE0l06j0dzc3CoqKhAE2d7e9vb2JpPJISEhZDIZbHcuLS3V1dV1dnbe3t4GWo2Pj+NwuI8fPxKJxNbWVjKZzBbL8PCwaIZDFJbg06dPYNs9sGXJZDKBQLh165aoTHClrq5OKBSSSCQ0fE1BQUFAQAAof2BggEAgAM4OCAgoKCjYFw30IofDMTQ0ZDAY3d3djo6O6Bk5LBZLdOb94uIigiAlJSX+/v7FxcX+/v4cDgeA0NTUVF5ebmVlNTw8DDkbxfOUJiBny7RjIGcfI7xzc3N37twBS9eXL19+8OABlUptbGyUnoU+gZgqt27dAnHQuFwulUqtrq7m8Xg2NjbAeF1cXATbrDliycnJmZqaAp5xT58+xePxaNySqampxsbGjx8/enl5jY6Oenl5OTo6pqenAweotbW16upqPz+/58+f8/n82NhY8C97amoqISFhdHQUuCgzmcyZmZmioiJRwA1nZ+eqqioAOI/Hs7a2Hh0dbWpq8vX1FQWyAO5gfn5+2dnZ3+yU8vJywNngWdyegJnb8+fPg9kOBQWF//u//1NWVjY2Nvb29vby8sLhcCwWKycnR09PD5zFCdgazFJ8s97vzLAvZ6+trQEHsX/++cfR0TEiIkK09d/d3X1jY4PJZObn50dGRqJ7vRAEmZ6eJhAIw8PDg4ODGAxmfn6+vb3d19eXx+Otrq7W1dVhMBhDQ0Nzc/Py8vKamhoQyy8wMDAiIoLNZm9vb7e2tmKx2NLS0rCwsHfv3unp6YF1/9jYWLAOXV9fL9qHvb6+DuzmDx8+9Pb2PnjwAMTtn5ycZLFYY2Njurq6IAALgiCFhYWBgYG7u7sDAwPAtU0gEIgOwNXX119aWjoYHw6Ho6+vDzhbV1c3IiICbD8LDQ3V1NRcXFzc2toCqzMVFRUuLi50sdBoNAqF8ubNm/Lych8fn/HxcRhT5WCcf/JdyNky7QDI2ccI79LSkpqa2h9//AFctMBc35fly9rOVlFRMTMz6xRLQ0NDh/jwUHd394qKio6OjtzcXDwen5ycDK6DbPX19fb29jgc7tmzZ+AK+Ozo6GhoaMjKykpKSrK3t8/MzMzNzbW3t09JSamuriYSiY6OjlVVVe3t7VFRUeizXV1dBQUFJBIpPj6+vb29s7OzQyyZmZnNzc1oyQUFBY2NjSUlJWFhYRkZGW1tbZ2dnaGhoY2NjdI67Jt+8eJFUFBQZ2dnUFBQSkpKzZ68ePECg8EAjwFA24qKiufOnVNQUACTH7du3XJ2ds7IyCCRSPLy8sBdGSwBfNlTR76yL2czGIyMjIxGcZDdp0+fvnnzxt/fPykpaWZmhkql2tjYgIgxqamphYWFwLV+YWFhcHDQ2traw8Njd3eXz+evr6/zeLzU1FQPD4/m5uadnR0ajVZUVBQWFgZeehgMRmhoKI1G6+joIBKJKSkpubm5fX194+PjZmZmGRkZ6enpwPebz+eD7VTSzWQwGBYWFsB0Btd7enrQbXgIgvT19Yk83UTT5sA5DgRdaWhoeP78uXQ5+6ZFcYVxONz6+vrg4KCNjU1BQUFpaWlJSUleXh4Oh1teXt7e3q6trQUnwTs7O9vZ2VHE4u7uvrq6uru7Ozk5SafTIWfvC+9puQg5W6Y9ATn7GOHlcDhv3ryZnZ09eCFA1px9/fp1JSWly5cvX7hwQVlZGfjcKSsrA9f9y5cvX7169bJYwBGEynsC5pPBRfTW5cuXwUGH4PPq1augTOW9MxDB10uXLoFiwXVQlHRF4OTES2IB5x6i+gBlwFegM7gCSpauHTwOcoKNAODuXgv+11glJSVFRUVA2HJycufOnQOOBShty8nJKYpFXl6+srJyd3dXIJZjHAn7cjZYreByuZubm6DGzc1NsAN+c3MTnYzZ3t6W3s3P5/NBNmn1uFyuNK0Cdw00A4/HAysOaEUCgQCUA/IIBAIQBQhkQx8E/g0glpH0xX1XDaR3KgoEgoPHPFra+vo6qht6EUEQFov1mW8Hj8fb3hPpxsK5cWncTmMacrZMewVytkzh3bdwWXO2ioqKmpoa8O75DT/xeLySkhLq+ge8CsCOO0VFRSUlpatXr+rp6ampqf3f//3fCfuN7zse4EUUAeBbgH7dNwE5e19YTtFFyNky7QzI2TKFd9/CZc3ZN27c+J3P4mxoaEBNbXRVW0lJ6dKlSzo6OjExMf39/Ts7O6KNagoKCuAM9X276Ucufs3O/pEyf4dnKyoqnj17NjAwsL29/ZnZjTYfcjYKxSlNQM6WacdAzpYpvPsWLmvORs/12rf2X/5iY2OjkpKSgoLCuXPnFBUVL168eO/ePX9//87OTtS9DkGQ0NBQOTk5aGefqvHg6ekJQg+pq6t7enrW19d/GbQfcvap6rJ9lIGcvQ8ox3cJcvbxYfm9JZ0AZ//OdnZjY+OlS5cuXLhw9+5dZ2fnurq6fXeOgf3ZsuNseXl5sG36e4cFzIcgrq6uYFFDXl4eOCUoKyvj8fi0tDRw6A66P1sUFx0s2x8XbGBaHp7FeQx4Qs4+BhC/XgTk7K9jI6s7subs33xufHh42NbWtri4GOz3/VovgjNCZMHZQqHw5cuXioqKnp6eoknyz6Surq5JLM1QvkBAdOooytnSjghycnJgacPHxycl5f+3d+Z/TVzdH//+RU8h7K0KtHXpU6lFEBVBkC2EJZAQEAKoEHYirlgQF8BSZZHIIqsWURABFZElIMi+ySYgCdlm5suT+3KSYhSrmXRSzvkhr5PJnTN3Pufqm3vnzr0527ZtCw0NBWZ/rG3/w8eB2ZQmAJhNqbw6gwOzdcqir4NojvSm0ahjNoZhFRUV2pPgtDlkYWFhCfYRBaysrEityIX6yVcAkINYfvToUTQFfdNEf2YBXG3Qz/5MuT5VDJj9KXW++jdg9ldL+LcDALP/tmQUnEAds3Ecv3v3rqmpKYvFSktLS/+rpYF9XAEnJyf0Gj363IBtKyurPXv2+Pj4WFpahoSErC8ZpPMltC9rLMDsL9NNx1nAbB2i6O8QMFt/Wn5uJGD25ypFZTlKmV1WVgbPs78ge9HR0WgNHO1RCjMzs127doWHh9fW1i4uLr5+/frHH39ks9kwNv4FChviFGA2pSoDsymVV2dwYLZOWQx8kDpmEwSx/gybwWDAHLS/m9OYmBi09A1aDMfGxobJZJaUlExOTpJdapg3/ndVNXR5YDaligOzKZVXZ3Bgtk5ZDHwQmG1gwT/ncojZ3333nbu7+/Xr1ycnJz88C5j9oSb0OgLMpjQfwGxK5dUZHJitUxYDHwRmG1jwz7nc9evXMzIyurq6tBcr3XAiMHuDILT7CsymNCXAbErl1RkcmK1TFgMfBGYbWPDPudzH1j7TPheYra0GHX1gNqVZAWZTKq/O4MBsnbIY+CAw28CC6+tywGx9KUlVHGA2Vcqq4wKzKZVXZ3Bgtk5ZDHwQmG1gwfV1OWC2vpSkKg4wmypl1XGB2ZTKqzM4MFunLAY+CMw2sOD6uhwwW19KUhUHmE2Vsuq4wGxK5dUZHJitUxYDHwRmG1hwfV0OmK0vJamKA8ymSll1XGA2pfLqDE4HZs/Pz1erTWcNt8JBYLaRZhmYTffEAbMpzRAwm1J5dQb/B5ktl8ubm5tPnTr1888/W1lZ8fl8nTXcCgeB2UaaZWA23RMHzKY0Q8BsSuXVGdzwzJbL5V1dXWfPnt23b5+VlZWFhQVayfn48eM6a7gVDgKzjTTLwGy6Jw6YTWmGgNmUyqszuMGYrVAoxGJxTk6Om5ubjY2Nmdq014aMiorSWcOtcBCYbaRZBmbTPXHAbEozRFtmd3d39/f3o3vHMGx5eXliYqK7u/vu3bs5OTljY2MEQSiVyqWPm0KhQKeLxeKmpqbm96btz83NoTLk58rKikAgWFpaIo8gZ3Fxsb29va2trbW1tU1tqA4EQSwvL2dlZZGXI0+sqKi4f/8++ZV0qGA22pUIx/G+vj57e3s/P7/CwsKAgAB7e3tyK0O0iSG516GZmZmHh0d5eXmFlj179oysp1QqraurQwXITaDv379PLnyhUqmam5u1zv6fW11dra1eT0/PhktUVFSMjIyQV5mZmUHByTjl5eXa1VCpVBUVFRuCaFeDIIjGxkYyCOlIpVLyKl1dXdrxy8vL2Wy2mZkZFftnw3rjpOxUOMBsKlTVZ0xgtj7V/CAWbZnd3Nx87NixJ0+eyOXypKQkV1dXFovF4/ESExNLSkrm5+cJgqivr3dycmIymf5qIx0/P7/Dhw8XFRUhroeGhgYGBkZGRoaHh//000+BgYHH1XbgwIHKykokyZs3b1rV1tLS4uXldfXqVfS1tbV1eXmZIIiOjg4ej3fw4EFXV9cwtYlEoj/++OPZs2fT09Oenp5SqRTDsDNnzkRGRqL4zs7OBw8eRF8jIyOzs7MR16lgNoZhOI5jGPby5csdO3ZYW1tbWVmZmJiYm5ubmpp+88035EZJ5P6G33zzDep5a39yOByyjYyNjf3www/m5uYWFhZmZmZoRH337t3kXydra2tHjx7VPt3Kymrbtm2dnZ1kkOTkZHNzc+0y5ubmBQUFZIH6+noUnyxjaWnJ4/HIAqurq+bm5gwGQ7vY3r17lUolWcbJyclCbaie6K+T8fFxskBcXBwZH5UxMzP7z3/+09HRQZbRo7P+dwPsEaJHPbVDAbO11aCjD8ymNCu0ZTaO448ePYqPj5dIJAKB4OHDh3K5fMPue3fv3hUIBDJdlpmZef36dYIgFAoFh8Npa2vDMGxtbc3X17erqwvDsPUFjU+ePFleXo7kLSgocHZ2Dg8PDwsL43K5oaGhyP/vf//78OFDgiBwHFepVFFRUQ0NDSq14TiekJBQU1MzNTXl4eEhkUgIgujr63v+/HmH2mJiYpKTkzs6Op6rbWBgAPVQqWC2SqXC1dbT02Nvb3/kyJGzZ8+6u7vb2dlpd69JYJuampqbmx8+fDgnJ+eKlmkPDLx7966goAAVyMnJuXr1ak5Ozq1bt8gdllQqVWVlpdbZV3JycvLy8rRHL548ebLhEleuXBGLxWSrHh0d1Y6A/D///JMsoFAo0KW1ixUVFZHdfYIgRCLRhnpeuXLl3bt3ZJDm5mbt069cueLl5WVqagrMJiUyFgeYTfdMdXR0fPfddwKBAPUk0H9MevzE1FZcXGxiYnLnzh26y6Hv+hUWFq7/n15eXq5HSbVDzc3NOTo6uri4fGLR/4/dE47ja2trMpksOjray8uLw+GEhYVxOJzg4ODnz58TBFFdXZ2YmKhSqZqamsrfj/E+ePBAoVBkZWXl5eWhfnZwcPDly5dramqqqqqcnZ2vXbtWU1NTW1vLYrFIZt+4cePChQvKD4zD4SBmEwQhlUodHBw8PDyCg4NjY2PRKHpNTc309LSHhwcaiZ2YmOByucHBwUFBQb/++quTk1Ow2vh8PrlJ0f37962srC5fvkyCVluxL/NRM8YwTCwWf//99zweD6nX399fUlISHh7+888/o0Fy1OE2MTExMzOLjIz8mPj/+uNCoZDBYHR0dHyZ4J8+q0y9fzYa6fnXK2ngGxwaGrK3tw8JCUF/wX86EZ//K/oXND8/7+Lism/fvi/4/4pSHf6P0uj6DQ79bP3quSEaPfvZa2trBQUF586du3v37vqYc2xsbElJydOnT8fGxl6+fOnp6Tk4OEgQRFVVVWJiolQqZbFYQqEwJyfn7Nmzvr6+CwsLWVlZZD87MDAwPDw8JSUlKSnpp59+On78eGpqakpKyqFDh8i/0vLz88+ePSv5wNhsdmNjIxKtpqYmNDS0t7f3yZMnhw8flkqlcXFx1dXVU1NTR48eRf1sqVT66tUrsVjc19cXFxeXlpbW19cnFosHBgbIx6tU9LMJgkCDB2Kx2M7OLiwsTDvRSqVybm6ura3tzJkzbm5u1tbWZmZmDAZji7/rZWpqCs+ztduJUfjQz6Z7moDZlGaInsyWy+UNDQ3nzp2LiIh49+4dl8v9448/mEzmo0ePrl+/Hhsbi8ZFq6qqEhISJBIJl8sdGhoiCGJmZobNZs/Pz2szm8PhPH36lCAIuVzu4+PT09ODxrrj4+PLysqQvLm5uT/++OPhD8zR0bG9vZ0giOnpaScnp6ysLLlcXlpaeurUKRzHBQJBVVUVOTbe29sbERHBU1tQUJCTk5OzszOXyw0PD0cH0bQ1ipiNnmf39fV9yGztJiSTycbGxoqKio4fP56fn6/905byYd64kaYbmE33xAGzKc0QPZmNbrmtrS0mJmZycjI4OPjNmzctLS0+Pj5OTk6vXr1CBUhmh4SEvH79GjF7fVx6A7MDAgJOnz5dXFx88+ZNJyen8+fPFxcXFxUV+fj4kP3szMzMy5cvr+oy9Pi2oKDgwoUL4eHh0dHRvr6+9fX1BEHEx8cjZnt6eqIu+sDAQH9///37948cOSISiZhMZmVl5atXrxoaGlpaWmQyGUEQ/yyzyeaEngOQX7eaA8w20owDs+meOGA2pRmiM7NbW1v5fH5TU1NERMTa2trr16+PHTvm5OR08+ZNsp8tEAikUmlgYKC3tzeLxfL19fXy8lpcXCT72aurq8eOHUtMTMzKyrp06ZKDg4NAIMhSm5ubG9nPPnnyZHV19SekXl1dVSqVq6urKSkpR48eXVtbIwji1KlTaGycnIOmUCjKysrc3d2rq6tVKlVpaWlcXFxDQwOTyWxra0PxacLsT9zsVvgJmG2kWQZm0z1xwGxKM0RnZjc3N/N4vJSUlBs3bty7d8/Pz6+oqGh4eNjPz08kEhEEcffu3cTERIIgVlZWFt/b8vIyjuNZWVm5ubkEQczOznp4eKB3w+Ryua+vLzk2LhAIUD9bqVQeO3YMPSP/tNojIyNubm7kE+6zZ88+ePCAfJ7d3NyMXio7evTomzdv0LS1qKgoFxeXzs5Ocp4z1cy2tbXd8Dz70ze1NX8FZhtp3oHZdE8cMJvSDNGE2XNzc9XV1X19feTNTkxM8Hg8V1fXzMzM8fHx3377Db2vhd6nQktqVFVVRUREiHVZcnLytWvX0OoWwcHBiJdyudzPz49kdnR0dEVFBUEQL1++9Pb23nSm6IsXL3x8fH7//Xey5MrKikwmm5iYcHd3l0qlY2Njvb2909PTvr6+fX19tbW1xcXFIyMjbDY7MzPz7du36O7+EWYrlcqhoSHtd5pRZdCAASm7SqUaGRkh38Amj3++I5PJenp6SIk2nLiwsDA9PY0OSiSS0dHRDQXIrziO9/T0kBP3yOOfdkZGRtADiA+LSSSShYUF8nh6ejqsqUKqYUQOMJvuyQJmU5qhf5bZEonk8ePHp06dcnBwsLGxQb1n9FJ1ampqTk5Ob29vZGQkk8nk8XjrU89OnDgRq7bTp0+/e/fu7t27v/76a1RUFJ/PR598tUVFRbm6uubl5SkUCh6PR3aLFQoFm83u6+urqKjw9/fft2/fCMFuBAAAGA9JREFU0NAQhmERERHk4iofU7uzs/PIkSNlZWVyuZwss7i4ePbsWT6fHxgYSHKup6dn586dTCYzOTm5tbUVx/Hp6en4+HhPT0/00N0AzGaz2SUlJRlqO3/+/MDAQENDg6enp0gkqq2t7e7uRrewsLDA5/PRs3l0ZG5uLiQkZGZmhrxHhUKRnZ3t7+/Pem8BamOxWEFBQaS2aFofjuNLS0tsNvvFixfoNRsyDprZfunSJfQOHkEQk5OTTCZTW08UpL29vba2try8fN++fYWFhbVqe/z4Mfl3wNWrV1ksFp/Pf/r0KapMc3Pz0tKSTCbj8/kDAwMymSwhIYHJZAYEBOTn52MYJpFIYmNj3d3d0VxFgiCA2dqpMSIfmE33ZAGzKc3QP8Ls1dXV58+fZ2Rk7N+/38bGBq3VZWJicvv2bXSzOI4PDAysrKwQBLG2tjY1NdXb24sWJ3mqtv7+fpVKtbCwMDg4qNBlY2NjqD83OTlJrgGC1hlVqVRLS0uvXr2anZ1Fl3vx4gXJg4+pLZFI0HC3dgGFQlFVVVVXV0eGIghiaWmpvb397du32jEVCkV/fz/qNVLNbDs7u5CQkAcPHgQEBMTGxopEora2NiaTmZSUdOHCBVdXVzQCgQD58uVLf3//R48eofuamJjw9vbWXhRlbW2Nz+evrznT3d397NkzHx+f4uLibrXx+fybN2+iE5ubmzkcDpoe7+LicuTIkXC1cblcNGmfIIj5+fljx47dvHkzMTExKSkpISFh3759sbGxiYmJKSkpqA4qlSogIEAgEJw/fz4jI+PcuXMXLlxITk4m36YjCCIyMvLhw4dsNrumpubkyZPnzp0TiUQZGRlPnjwJCQnp6+uTSCReXl5PnjxJTk7Ozc1dXV0VCoUCgeDWrVtsNhutjwbM1m7JRuQDs+meLGA2pRmilNkYhs3Ozu7fv//AgQNKpVIul4vF4qysLE9PTzs7O/SKMLmmpqmpKclsSm/5Hw+OmJ2dnY2WCdJXfbTf9eLxeDKZjMfjPXv2bGlpKSQkxNfXt7S09NKlSy4uLgUFBegBAbr08PDwxMQE8l+/fr2B2VKplM/nNzQ0EAQhkUg4HM6TJ09Q4bS0NHIV0uLiYh6Ph9Z0b9KyoKAgcgyjtLSUzWYPDAygrjNa2Qb5tbW1aBBCqVT6+/vHxMSc1rK4uDh3d/fV1VV03cjIyJcvX3K53KqqquTk5MuXL5eWliYnJz969Cg0NBQx29vbe3x8nM/n379/Pzo6ms1m9/f3z87OpqWl+fj4tLa2pqenm5iYwPvZSFIj+gRm0z1ZwGxKM0Qps3Ecn5mZcXZ23rNnz7Vr15hM5s6dO83NzU1MTBjvjWQ2g8EgmY3jeGdn58O/WlNTk3Z3dn05pMbGxr8WeYj+30eKLS4ufljgxYsXZLcbw7BGtWkHefz4sfZo7fPnz8lfUeHGxsbFxUUyKYODg2QB0hkeHiYLzM3NkceRk5mZaWlpmZWVhauNLPmVDslstA7a6Ogoi8Wam5uTSCQFBQWurq7nz58/fPhwXFxceHj46dOnl5eX0epvJFMJgujs7HR0dCQHz9E0uvDw8AMHDnh7e3t6eu7cufPQoUNeXl7e3t4ODg7azE5LS9twCxiGnTp1CsWfmZlxcHCIjY0lCOLZs2e+vr5MJtPvva33mNG5SqUyICDgzp077e3taEwFDZV7eXlpM7uzs5PD4VRXVyclJWVnZ4tEoqSkpA3Mbm9v53K5ZWVlGRkZPB7Pw8PD1dWVw+Fcvnw5Nzc3OTkZrYO2oc56+VoO643rRUddQYDZulSh0zFgNqXZoJTZCoWitbX1p59+QtszkKtmohWwEbV1MluhUERERFi9N0tLSysrK1tbW/J/doIgcnNzv/322/dFrCwtLW1sbM6cOUPK1d7ebmtrSxZAjp+fH4lkuVy+a9cutLcEuoSlpeWuXbvQJHMUJyAg4Ntvv7WwsLCxsbF8by0tLeRVcnJy0IYc5IWsra0zMzPJWeItLS0bqmFpaWlqapqdnU0Rs7dv387j8a5fv25vb3/o0CFPT8+mpqbAwMCuri4Oh1NfX5+bmysUCldXV6uqqoRCYWhoKHk79+7d27FjR2FhIXlEKpVGR0eLRKL16fFDQ0OBgYHo9bapqan4+HhtZnt6el76q2VmZrq5uVVWVmIYlpqa6u3tfeLECYIg3r5929ra+uTJk/XmgYx8gq5UKn3VxuVyORxOaGgol8sNCAhwc3NDzB4bG/P09Lx48aKbm1tCQgLaOSY+Pj4xMXEDs/Pz8xMSEqRSqVwuX1xcLC4u5nK5c3Nz66vhKpXKtLQ0mINGZtmIHGA23ZMFzKY0Q5QyG8Ow0dHRX375xd7ensViOTg4WFpampiYbMpsDMPKysrStSwtLe3s2bPa/b+2tjat3//nCoVC7elU4+PjZ86c2VCmoKCAnCymUqkyMzPT0tKEWnbx4kXtrSRLSkpOnz6NgqNQQqFQ+62wlpYWoVCofZW0tLSGhgaS2SMjIxuqERISYm5uTq43rq/8kv1sOzs7Ly8vNzc3Jyenrq6u0NDQxsZGZ2fnkJAQBwcHJpPp4eGRlpaGxhuePn3K5XLJOty4cYPFYq3P9SNHI6RSaUxMTF1d3erqKpqh1tjYuKq2lJQUktkFBQX+/v55H1hBQcHIyAiO4w8fPlzvcJ88eRJN1A/TMh6Ph8be0frwLBbr1q1bDx8+fPTo0UO1lZWVkf3s/v7+gwcPJiQkuLi4hIeHe3p6+vv7R0RECASCDczu6upisVjNzc3x8fFRUVHHjh1zcHCIioo6fvx4R0dHWlraN998A3uEkKk3FgeYTfdMAbMpzRClzMZxfH5+3tHR8cCBAysrK5OTk42NjUKhcH3JESsrK9TDRjtFmpmZac9BI1fPVv3VSBCi+VN//fF/30jSINE+LKA9L4wgiE0LoEW8NxT7ymrU1dWRe4ToMbkks21tbf38/C5cuMBiscbHx7lcbmNjY2ho6PT0dFRUVHt7++3btzMyMkhmky9zr62tRUVF3blz58SJE+RicxKJJCAgwN3dPSgoyN/ff8+ePW5ubkFBQYGBgY6OjojZGIZlZ2dfvXr1E7eD43hdXR0aGxeLxXfem0gkKisrIzfMxjDst99+i42NPXXq1DrgT548eUpt6enp5ACJv78/ehWwpKTk3LlzOTk5paWlSUlJTU1N5PNsLy+vmZmZ1NTUgoKC1tbWpqam8+fP+/n5PXr0qKmpaX5+Pi0tzdzcHJj9iZTR8ydgNj3zoqkVMFujBQUepcxGU4X379/v4uJCvhmMYdjq6urw8PCtW7fCwsL27NmDdnrWfp5NwY3SKKQB5o3zeDw0jo2YXVtb6+DgEBISsnfvXiaT6e7uvqGfPT09vbi4iKaFz8zMVFZWpqSkIKgvLCz4+fmtzzyfnp4eGhoKCAiorq6eVptAIEDMVigUJ06c0N5AU6fciNk4jguFQhaLlZqampycnJKSEhYWFh4ejk5pb2/v7OzMz8/v7++/ojaZTCaXy3Nzc0dGRlCZ9U3elpeXuVxuXl7etWvXcnJy0PPspqYmDodDzkF79eqVUCjMzMx88ODB1atXKysrIyMjf//998rKShzH0ZoqwGydmaLzQWA2nbPzv7oBsynNkOGZrX07CoViZmbmzz//TE9P9/Dw0H7ZV7vYv8ynmtloHbTh4WFfX9+qqqrAwMD1V9X5fH5/fz+Hw6mrq7t27drp06fJfvb6HmUREREPHz7kcrlo15D5+XkOh4P6vl1dXUFBQWhBGLQdCzlvXCgUImbPzMwEBASgHVA+kSyS2etztsmV3gmCaG1t5fF4aOwkNDS0paWFzWa3tLQsLCxEREQMDAz8/vvvf/zxB4fDkcvlS0tLPj4+aOcYoVBYWlp65coVkUjU1NQ0Pj5O9rN9fHzQo/rm5uaAgIDGxsbq6uqoqKiXL18GBARMT0+jd72A2Z/IFz1/AmbTMy+aWgGzNVpQ4P2zzCZvSKVSLS8vf2wFK7LYv8Ohmtl2dnZcLnd4eNjV1RW9/czlcisqKmQyWWxsbGtra35+PsnsiooKNze3e/fuJSYm8ni8d+/eIZFra2vXJ3/Nzs6eOXNGKBSiZwoks8fHx1taWlgsFlpIrrS0NDY2dsNzhw+TVVdXd+LECRzHU1NTfX190cQxgUDA4XBCQkIIgujo6PDw8FhbW+PxeEVFRSMjIx0dHS0tLQcPHlxfMiUyMrK+vr6pqSk+Ph4x29fXt7+///LlyyKRSCaTvXv3ztfXd3BwEL2fPTIyIpFIbt26lZycPDk5mZeXFxMTo1Kp0tPTGxoa0tPTYS/OD3NE/yPAbLrnCJhNaYZowmxK75Fuwalm9o4dO3g83uLiYlFRkUQiefv2bXZ29sLCglKpzM/PLy4u5nA49+/fR7LMz89Pqu3cuXNTU1OkVugNsfHx8cLCQvLVNaVSKRKJRkdHHz9+HB0dfebMmfn5eaVSmZmZqT09kAyywXn06BF6H+y33367ePFiXV3dvXv36uvr8/Ly4uPj0YanaAGW+vp6cg/TsLAw1Jufm5tbWlpqaWlpamo6ffp0XFxcZmYmWgqtu7u7pqaGy+UeP358dXV1bW0tPDwczf9fWlpaWVlBS6dVVVURBLG6uiqTyWC98Q3ZMZavwGy6ZwqYTWmGgNmUyqszONXMtre3R0PN5NXJyQRKpVKhUEgkEu1pdKjYh71kNHj+YUlyAiD5k0wmI33yoh86crl8eXmZpCZZQKFQoOPkEbT+nURtUqlUOziaareysrK2tqZSqZRK5dLSEo7jcrn87du35FDN27dvUf1RzLW1tZWVFe04sA6attpG5AOz6Z4sYDalGQJmUyqvzuBUM9vW1lb79S2ddYCDwGwjbQPAbLonDphNaYaA2ZTKqzM41cy2s7Pb0M/WWY0tfhCYbaQNAJhN98QBsynNEDCbUnl1Bqea2bB/tk7ZNxyE59kbBDGWr9rM1n7Y8TX1x97bwsKCi4vLvn37yMdJXxNWj+f+nx5jUR0KmE2pwsBsSuXVGZxqZtvZ2ZHLpOisABxEe3EyGAzYI8ToGgNidkhIiB632EGTJDAMA2broT0As/Ug4sdDALM/rg1VvwCzqVL278SFfvbfUYtGZV+/fv3DDz/ol9nvu9nY4uLiwYMHoZ/9VfkGZn+VfJudDMzeTCH9/w7M1r+mfz8iMPvva0aLM4aHh3fu3BkUFLS++p6+xsZVKhXqar9588ZZbR++RvHP3jyMjWv0R3srlZSUmJqaaq/NpCnxr/aA2YZPLzDb8Jp/eEVg9oeaGMWRmZkZR0fHI0eOzM7Ooi0G0CA5+p/8yz7RS4NKpbKnp2f37t1MJlP7RUE6yALM1mQBmM1gMNBqVhpR9OfNz89vWG9cf7GNNRIwmw6ZA2bTIQtfUAe0TN727duvX78+Ojr69u3bFbWtL0GPnC/4XF5eXh8VF4vFSUlJNjY2Fy9e/IKKUXoKMFsjLzAbmK1pDQbxgNkGkXmTiwCzNxGIxj93dnY6OTlZWVnt3r17vz7M0dHxl19+2bVrl7m5uY+Pj/aCgDSRAZitSQQwG5itaQ0G8YDZBpF5k4sAszcRiMY/4zje19eXmprq7+/v4uJy4MAB9HngS83Z2fnw4cOBgYFZWVkTExM0vHVgtiYpwGxgtqY1GMQDZhtE5k0uAszeRCDa/6xUKldXV5f1ZxKJhG5Tz8gkALNJKQhgNjBb0xoM4gGzDSLzJhcBZm8iEPxMJwWA2ZpsALOB2ZrWYBAPmG0QmTe5CDB7E4HgZzopAMzWZAOYDczWtAaDeMBsg8i8yUWA2ZsIBD/TSQFgtiYbwGxgtqY1GMS7f/++hYXF1atX9bUiBNocE8dxhUIhFothj5DPSSMw+3NUgjI0UQCYrUkEMBuYrWkNBvHu3btnYWFx+fJl1Pb0ck0USqVSicVie3t7WG98U1WB2ZtKBAXoowAwW5MLYDYwW9MaDOL9+eef1tbW2dnZaMVEvVwTx3G0JlR3d7e9vT3sxbmpqsDsTSWCAvRRAJityQUwG5itaQ0G8Z4+fbpjx474+HiZTKav4XEMwxCzHzx4sGPHjuTkZIPcihFfBJhtxMnbelUHZmtyDswGZmtag0G8qakpBwcHZ2fnjo4O9EoouWwyub/QFzgymWxqagotvlhSUmKQWzHii6SlpTEYjI6ODvKxwtf8/URu5oiilZeXm5mZFRYWGrFAUHU6KQDM1mQDmA3M1rQGg3g4jmdlZVlYWPz6669sNjs6OjomJiZabTFfarGxsREREW5ubtbW1u7u7vPz8wa5FSO+yPnz5xkMRnNzM/rzSKm2L/hTCZ2C/upC5FapVMXFxWZmZrdv3zZigaDqdFIAmK3JBjAbmK1pDYbyJBJJbm6uq6vrrl27bG1td+zYYWdnZ2tra/elZmtr+8MPP+zbt+/EiRODg4OGug8jvs6tW7csLCzy8vKUSqVCbV+zPRQiN2K2XC4XCATbtm1raGgwYoGg6nRSAJityQYwG5itaQ0G9HAcX1hYGBwc7NGT9fX1TU1NyeVyA96EEV+qt7d3165dTk5OIpFILBYPq23kS214eHhIbZ2dnYWFhbt37z548ODY2JgRCwRVp5MCwGxNNoDZwGxNawBvyyiAYdi1a9fs7e2/++67H3/8cafadn+p7VLb7t27v//+e0tLyz179pSXl3/NA/Itkwe40c9SAJitkQmYDczWtAbwtpICSqXy6dOn6enpISEhTCbTz8/P/6stLCzs/Pnzvb29GIZtJS3hXqlVAJit0ReYDczWtAbwQAFQABSgnwLAbE1OgNnAbE1rAA8UAAVAAfopAMzW5ASYDczWtAbwQAFQABSgnwLAbE1OgNnAbE1rAA8UAAVAAfopAMzW5ASYDczWtAbwQAFQABSgnwLAbE1OgNnAbE1rAA8UAAVAAfopAMzW5ASYDczWtAbwQAFQABSgnwLAbE1OgNnAbE1rAA8UAAVAAfopAMzW5ASYDczWtAbwQAFQABSgnwLAbE1OgNnAbE1rAA8UAAVAAfopAMzW5ASYDczWtAbwQAFQABSgnwLAbE1OgNnAbE1rAA8UAAVAAfopAMzW5ASYDczWtAbwQAFQABSgnwLAbE1OgNnAbE1rAA8UAAVAAfopAMzW5ASYDczWtAbwQAFQABSgnwLAbE1OgNnAbE1rAA8UAAVAAfopAMzW5ASYDczWtAbwQAFQABSgnwLAbE1OgNnAbE1rAA8UAAVAAfopYGTM3r59e1xcHIZhOI7rXUyS2QwGQyQS6T0+zQMWFhYyGIyysjKKtJ2bm9u/f/+BAweUSiXNpYDqgQKgAChATwWMjNnbtm0TCATUMRvDsJKSEgaDcefOHXomjLpaFRYWmpiYlJeXYxim96tgGDY7OwvM1ruwEBAUAAW2lAJGxuzt27cnJCRQx2yVSnX79m1TU9OysrIt1Q4IgigqKjIxMamoqKCun+3o6Ojs7Az97K3WtOB+QQFQQF8KGBOzX758aWtrGx0dLZfL9XX/2nFwHFepVDdu3GAwGFVVVdo/bQVfJBIxGIybN2+qVCq93y+O4xMTE3v37nV1daUivt4rDAFBAVAAFKChAsbE7NHRUQcHB29v7/n5edTVxnEcUxt6FP2VnxiGvXv3TiAQ2NjYtLa20jBblFapubnZ2to6NTVVKpViGKZSqb5ST5QdlUqFctTa2mpnZ8fj8agYe6dUGQgOCoACoABNFDAmZstkMg6HY21tnZGR8eLFi4mJiampqenp6Rk9WVdXV0FBgZ2d3aFDh+bm5miSIYNVAz1v/v7772/dutXd3T0+Pj45Ofk18pLnDg0NPX78ODAw0NLSsqioyGB3BBcCBUABUOBfpoAxMZsgCLFYfOjQIXNzcysrKxu1WVlZWVtbI/8rP7/99lsrKysHB4f6+vp/WZo/83aqqqp+/vlnS0tLpKqV2r5YVWtra0tLS5Qd9BkdHb2ysvKZlYFioAAoAAqAAhsUMDJmEwTx5s2b/Pz8kydPsvVtfD4/KytrcHBwg0Zb6uurV68uXboUGRnJZrNDQkK+UuPg4GA2mx0WFpacnFxTUyOTybaUmHCzoAAoAAroVwHjY7Z+7x+igQKgACgACoACxqIAMNtYMgX1BAVAAVAAFNjqCgCzt3oLgPsHBUABUAAUMBYFgNnGkimoJygACoACoMBWVwCYvdVbANw/KAAKgAKggLEo8P9G3xLUEZ9mVwAAAABJRU5ErkJggg==;" vertex="1" parent="1">
          <mxGeometry x="100" y="200" width="657" height="433" as="geometry" />
        </mxCell>
        <mxCell id="RlYvey6-DWaw5Cdh70bo-2" value="管理员" style="rounded=0;whiteSpace=wrap;html=1;" vertex="1" parent="1">
          <mxGeometry x="120" y="170" width="100" height="30" as="geometry" />
        </mxCell>
        <mxCell id="RlYvey6-DWaw5Cdh70bo-3" value="UserInfoController" style="rounded=0;whiteSpace=wrap;html=1;" vertex="1" parent="1">
          <mxGeometry x="250" y="170" width="100" height="30" as="geometry" />
        </mxCell>
        <mxCell id="RlYvey6-DWaw5Cdh70bo-4" value="Mysql" style="rounded=0;whiteSpace=wrap;html=1;" vertex="1" parent="1">
          <mxGeometry x="650" y="170" width="100" height="30" as="geometry" />
        </mxCell>
        <mxCell id="RlYvey6-DWaw5Cdh70bo-5" value="UserMapper" style="rounded=0;whiteSpace=wrap;html=1;" vertex="1" parent="1">
          <mxGeometry x="510" y="170" width="100" height="30" as="geometry" />
        </mxCell>
        <mxCell id="RlYvey6-DWaw5Cdh70bo-6" value="UserService" style="rounded=0;whiteSpace=wrap;html=1;" vertex="1" parent="1">
          <mxGeometry x="380" y="170" width="103.5" height="30" as="geometry" />
        </mxCell>
      </root>
    </mxGraphModel>
  </diagram>
</mxfile>
